<svg id="icon1" width="56" height="57" data-name="icon1" xmlns="http://www.w3.org/2000/svg" viewBox="0 0 55.9987 57.0005"><defs><style>.cls-1{fill:#00a0a4;fill-rule:evenodd;}</style></defs><title>icon1</title><path class="cls-1" d="M52.4989,39.9454H50.641a20.0637,20.0637,0,0,1-6.1457,8.7233l.9857,3.9407a2.5811,2.5811,0,0,1-.4744,2.2176,2.6256,2.6256,0,0,1-1.4508.9384L38.8267,56.923a2.6192,2.6192,0,0,1-.6305.0763,2.6551,2.6551,0,0,1-1.6115-.5447,2.5914,2.5914,0,0,1-.948-1.4349l-.3531-1.41a29.8936,29.8936,0,0,1-17.093.0031L17.84,55.02a2.5933,2.5933,0,0,1-.9494,1.4349A2.6633,2.6633,0,0,1,15.2792,57a2.6327,2.6327,0,0,1-.6306-.0763L9.92,55.7657a2.6189,2.6189,0,0,1-2.0036-2.5325,2.5417,2.5417,0,0,1,.0784-.6258v.002l.9817-3.9256A18.8474,18.8474,0,0,1,1.8783,34.3079a17.4912,17.4912,0,0,1,2.0332-8.15,5.3534,5.3534,0,0,1-2.3593-1.0928,4.0659,4.0659,0,0,1-1.5509-3.13A.983.983,0,0,1,.99,20.957a.983.983,0,0,1,.9882.9773,2.1151,2.1151,0,0,0,.84,1.6281,3.5476,3.5476,0,0,0,2.1926.7546,21.4485,21.4485,0,0,1,4.2172-4.6,25.9459,25.9459,0,0,1,8.8226-4.656,9.6336,9.6336,0,0,1-1.5786-5.2868,9.8831,9.8831,0,0,1,19.7651,0,9.6488,9.6488,0,0,1-1.4633,5.0969,27.7171,27.7171,0,0,1,4.4465,1.68A9.6038,9.6038,0,0,1,45.7163,13.76a7.3465,7.3465,0,0,1,2.8389.56.974.974,0,0,1,.5522,1.2144l-2.2889,6.6705a19.4351,19.4351,0,0,1,3.5907,5.8454h2.09A3.4885,3.4885,0,0,1,56,31.5121v4.97A3.4879,3.4879,0,0,1,52.4989,39.9454ZM37.5546,54.5515a.6432.6432,0,0,0,.2358.3554.6717.6717,0,0,0,.4058.1378l.1563-.0184L43.08,53.8687a.6352.6352,0,0,0,.36-.2338.6516.6516,0,0,0,.14-.4009l-.0179-.1545-.7747-3.0969c-.2214.1553-.4349.3192-.6622.4676a26.2056,26.2056,0,0,1-4.9663,2.5183Zm-27.5222-.9158a.6559.6559,0,0,0,.3616.2338l4.7291,1.1574.1554.0181a.6686.6686,0,0,0,.4052-.1381.6467.6467,0,0,0,.2366-.3563l.3954-1.5816a25.9728,25.9728,0,0,1-5.6324-2.9711l-.7708,3.0828-.0012.0025-.0179.1519A.6461.6461,0,0,0,10.0324,53.6357Zm21.91-49.3908a7.9661,7.9661,0,0,0-11.18,0,7.76,7.76,0,0,0,0,11.0584,7.9661,7.9661,0,0,0,11.18,0,7.7554,7.7554,0,0,0,0-11.0584Zm21.633,26.2034a1.5279,1.5279,0,0,0-1.0759-.444H49.7213a.9864.9864,0,0,1-.9355-.665,17.485,17.485,0,0,0-3.8121-6.2515.966.966,0,0,1-.2095-.9768l2.1484-6.2618a5.4774,5.4774,0,0,0-1.1951-.1345,7.8047,7.8047,0,0,0-5.5633,2.6747.9974.9974,0,0,1-1.1873.2085A25.4665,25.4665,0,0,0,33.46,16.557a9.9343,9.9343,0,0,1-2.17,1.6766c1.0337.148,2.07.3295,3.1031.5739a.9771.9771,0,0,1,.7313,1.1786.9883.9883,0,0,1-1.1912.7229,32.1093,32.1093,0,0,0-7.3882-.8752,28.4818,28.4818,0,0,0-7.5043.982.9916.9916,0,0,1-1.2175-.6814.9764.9764,0,0,1,.69-1.2027,29.3566,29.3566,0,0,1,3.011-.6355A9.957,9.957,0,0,1,19.39,16.7071a24.1428,24.1428,0,0,0-8.9009,4.5151A16.9672,16.9672,0,0,0,3.8544,34.3085,16.9711,16.9711,0,0,0,10.489,47.3964a25.6621,25.6621,0,0,0,16.2483,5.5072,26.2127,26.2127,0,0,0,14.3008-4.0845,18.6925,18.6925,0,0,0,7.935-10.1257.986.986,0,0,1,.9481-.7012h2.5773a1.5249,1.5249,0,0,0,1.0759-.4442,1.49,1.49,0,0,0,.4493-1.0636l.0012-4.9714A1.4932,1.4932,0,0,0,53.5756,30.4483Zm-11.4919-1.62a1.3665,1.3665,0,1,1,1.3823-1.3664A1.3745,1.3745,0,0,1,42.0837,28.8285ZM40.7182,46.0027a10.4358,10.4358,0,0,1-4.571,2.4136.9888.9888,0,0,1-1.2-.7093.977.977,0,0,1,.7161-1.1866A8.4541,8.4541,0,0,0,39.37,44.5742a.9965.9965,0,0,1,1.3968.0476A.97.97,0,0,1,40.7182,46.0027ZM29.0815,8.2415a.9831.9831,0,0,1-.9883-.9773.9153.9153,0,0,0-.0857-.4059.8537.8537,0,0,0-.26-.3089,1.6079,1.6079,0,0,0-.4256-.2138V8.6337a4.9888,4.9888,0,0,1,1.5818.714,2.7815,2.7815,0,0,1,.8063.9,3.2157,3.2157,0,0,1,.0126,2.9291,2.7183,2.7183,0,0,1-.9659,1.0068,4.0274,4.0274,0,0,1-1.4349.5069v.0905a.9884.9884,0,0,1-1.9766,0v-.0674a3.58,3.58,0,0,1-1.7111-.7515,2.876,2.876,0,0,1-1.0369-2.2336.9884.9884,0,0,1,1.9766,0,.9154.9154,0,0,0,.338.7419,1.3875,1.3875,0,0,0,.4331.2338V10.1432a5.3573,5.3573,0,0,1-1.5384-.628,2.5568,2.5568,0,0,1-1.21-2.251,2.95,2.95,0,0,1,.4592-1.5716A3.0831,3.0831,0,0,1,24.5988,4.469a3.9446,3.9446,0,0,1,.7465-.1982V4.2349a.9883.9883,0,0,1,1.9765,0v.074a4.3459,4.3459,0,0,1,1.0554.34A2.9575,2.9575,0,0,1,29.79,6.0155a2.8422,2.8422,0,0,1,.28,1.2487A.9835.9835,0,0,1,29.0815,8.2415Zm-3.7357-1.96c-.0131.0039-.03.0083-.0435.0136a1.1951,1.1951,0,0,0-.4428.2767,1.0021,1.0021,0,0,0-.2852.6923.7718.7718,0,0,0,.0711.3671.608.608,0,0,0,.1891.21,2.0326,2.0326,0,0,0,.5113.2536Zm1.9764,6.4038a1.5324,1.5324,0,0,0,.479-.2244.6856.6856,0,0,0,.1825-.2143,1.0546,1.0546,0,0,0,.1093-.5194,1.0072,1.0072,0,0,0-.1443-.5871,1.1157,1.1157,0,0,0-.4281-.349c-.056-.03-.1318-.0568-.1983-.0849h0Z" transform="translate(-0.0013 0.0006)"/></svg>