<svg width="3227" height="988" viewBox="0 0 3227 988" fill="none" xmlns="http://www.w3.org/2000/svg">
<path d="M2779.75 657.641C2868.81 657.641 2941 585.34 2941 496.152C2941 406.964 2868.81 334.663 2779.75 334.663C2690.69 334.663 2618.49 406.964 2618.49 496.152C2618.49 585.34 2690.69 657.641 2779.75 657.641Z" fill="#F9DE00"/>
<path d="M2664.31 622.856L2654.05 611.759C2667.12 599.668 2677.87 585.589 2686.14 569.689C2702.51 538.385 2707.47 501.946 2700.36 466.833C2693.58 433.873 2675.22 403.231 2648.76 380.705L2658.52 369.277C2687.63 393.956 2707.64 427.579 2715.08 463.852C2723.02 502.278 2717.4 542.36 2699.54 576.645C2690.44 594.037 2678.7 609.606 2664.31 622.856Z" fill="white"/>
<path d="M2905.94 622.853C2891.72 609.603 2879.81 594.034 2870.71 576.808C2852.85 542.523 2847.23 502.44 2855.17 464.014C2862.61 427.741 2882.79 394.118 2911.73 369.439L2921.49 380.868C2895.02 403.394 2876.67 434.035 2869.89 466.995C2862.77 502.109 2867.74 538.548 2884.11 569.852C2892.38 585.752 2903.13 599.831 2916.19 611.922L2905.94 622.853Z" fill="white"/>
<path d="M2669.27 595.693C2666.62 599.005 2663.81 602.152 2661 605.134C2664.3 608.778 2667.94 612.422 2671.58 615.734C2676.05 610.931 2680.35 605.962 2684.32 600.827C2679.19 599.337 2674.23 597.68 2669.27 595.693Z" fill="#F1F1F0"/>
<path d="M2903.95 599.01C2896.18 590.066 2889.57 580.294 2884.11 569.694C2876.66 555.449 2871.54 540.211 2868.89 524.311C2865.42 530.439 2861.61 536.402 2857.31 542.033C2860.46 553.959 2864.92 565.553 2870.71 576.65C2877 588.741 2884.77 600.004 2893.7 610.273C2897.34 606.629 2900.81 602.985 2903.95 599.01Z" fill="#F1F1F0"/>
<path d="M456.028 420.46V638.76H498.367V651.183H287V638.76H329.34V207.626H287V195.204H483.482C619.432 195.204 684.43 209.613 684.43 304.685C684.43 384.187 642.752 407.541 573.785 413.504V415.491C644.075 424.601 668.057 451.93 668.057 527.457V561.908C668.057 604.309 670.041 619.216 688.234 619.216C699.977 619.216 709.735 614.082 718.17 563.233L729.251 564.558C719.493 638.76 701.3 657.642 640.767 657.642C558.9 657.642 534.753 630.313 534.753 538.389V490.853C534.753 444.642 525.657 420.46 490.594 420.46H456.028ZM456.028 408.204H476.867C524.995 408.204 549.638 381.537 549.638 311.145V292.263C549.638 219.386 523.01 207.626 477.363 207.626H455.862V408.204H456.028Z" fill="black"/>
<path d="M916.635 334.5C1025.96 334.5 1077.89 386.011 1077.89 491.517C1077.89 598.348 1028.44 657.644 912.666 657.644C803.344 657.644 748.104 599.011 748.104 497.48C748.104 390.649 811.944 334.5 916.635 334.5ZM953.021 467.501C953.021 397.108 951.036 346.425 914.65 346.425C874.957 346.425 872.972 397.274 872.972 470.813V521.662C872.972 597.189 874.295 646.05 913.989 646.05C951.036 646.05 953.021 607.624 953.021 522.987V467.501V467.501Z" fill="black"/>
<path d="M1252.87 341.122V401.08C1263.29 368.451 1284.79 334.663 1344.5 334.663C1390.64 334.663 1425.21 354.869 1436.12 405.055C1446.54 372.426 1473.17 334.663 1531.72 334.663C1588.28 334.663 1627.31 364.642 1627.31 443.481V639.587H1663.7V651.347H1483.76V639.587H1506.58V427.747C1506.58 372.426 1499.47 365.801 1487.73 365.801C1464.24 365.801 1440.26 400.915 1440.26 455.738V639.422H1463.74V651.181H1296.54V639.422H1319.36V427.747C1319.36 372.426 1312.25 365.801 1300.51 365.801C1276.52 365.801 1253.04 406.877 1253.04 459.548V639.256H1276.52V651.016H1096.08V639.256H1131.81V352.716H1096.08V340.957H1252.87V341.122Z" fill="black"/>
<path d="M1830.41 341.13V639.429H1866.96V651.189H1673.79V639.429H1709.51V352.89H1671.14V341.13H1830.41Z" fill="black"/>
<path d="M1771.86 175C1812.22 175 1836.2 195.207 1836.2 234.958C1836.2 269.409 1817.35 296.241 1770.54 296.241C1717.78 296.241 1705.54 262.949 1705.54 235.621C1705.54 203.654 1723.07 175 1771.86 175Z" fill="#F9DE00"/>
<path d="M2037.98 341.122V401.08C2049.06 368.451 2070.56 334.663 2134.89 334.663C2195.43 334.663 2235.78 364.642 2235.78 443.481V639.587H2272.17V651.347H2088.09V639.587H2114.72V427.747C2114.72 372.426 2106.94 365.801 2090.57 365.801C2063.28 365.801 2037.81 406.877 2037.81 459.548V639.256H2065.76V651.016H1881.19V639.256H1916.91V352.716H1881.19V340.957H2037.98V341.122Z" fill="black"/>
<path d="M2559.61 296.079C2561.6 285.645 2557.63 275.872 2544.07 275.872C2535.63 275.872 2516.12 278.522 2516.12 318.936C2516.12 329.371 2517.44 342.456 2520.75 358.025C2546.05 374.919 2570.2 397.776 2570.2 440.674C2570.2 514.876 2516.78 551.977 2437.56 551.977C2418.7 551.977 2398.52 549.327 2384.8 546.843C2361.97 561.253 2356.19 568.375 2356.19 574.172C2356.19 579.969 2363.3 583.281 2397.86 583.281H2464.18C2537.62 583.281 2611.88 600.838 2611.88 689.45C2611.88 761.665 2559.78 813.838 2428.46 813.838C2315.33 813.838 2267.87 786.509 2267.87 744.108C2267.87 711.479 2295.16 698.56 2317.98 691.935L2357.01 709.491C2353.04 723.901 2351.72 734.833 2351.72 745.267C2351.72 772.596 2365.45 801.25 2434.91 801.25C2503.88 801.25 2540.26 773.259 2540.26 732.183C2540.26 700.879 2525.87 688.622 2457.73 688.622H2394.72C2317.32 688.622 2296.48 656.655 2296.48 628.001C2296.48 590.9 2319.96 572.681 2370.57 542.04C2319.8 527.63 2295.16 497.154 2295.16 442.993C2295.16 381.71 2337.5 334.174 2435.57 334.174C2467.49 334.174 2486.35 338.812 2507.68 350.406C2505.04 338.646 2503.71 328.211 2503.71 318.439C2503.71 265.106 2540.76 249.372 2567.39 249.372C2597.98 249.372 2620.15 266.266 2620.15 297.57C2620.15 327.549 2600.63 340.634 2579.13 340.634C2559.61 340.634 2542.74 328.874 2541.42 306.845L2559.61 296.079ZM2403.49 464.194C2403.49 525.477 2414.57 539.058 2434.08 539.058C2451.61 539.058 2462.7 528.624 2462.7 460.881V428.914C2462.7 356.037 2452.28 346.265 2434.74 346.265C2416.55 346.265 2403.49 358.025 2403.49 428.914V464.194V464.194Z" fill="black"/>
</svg>
