<svg width="4074" height="898" viewBox="0 0 4074 898" fill="none" xmlns="http://www.w3.org/2000/svg">
<g clip-path="url(#clip0)">
<path d="M3026.82 748.564C3141.24 748.564 3234 655.724 3234 541.201C3234 426.678 3141.24 333.838 3026.82 333.838C2912.4 333.838 2819.64 426.678 2819.64 541.201C2819.64 655.724 2912.4 748.564 3026.82 748.564Z" fill="#F9DE00"/>
<path d="M2878.46 703.842L2865.45 689.691C2882.23 674.219 2895.99 655.917 2906.74 635.728C2927.66 595.538 2934.07 548.556 2924.83 503.649C2916.16 461.196 2892.6 421.949 2858.48 392.892L2870.92 378.175C2908.24 409.874 2934.07 453.082 2943.69 499.687C2953.87 549.122 2946.7 600.444 2923.7 644.596C2912.01 666.86 2896.93 686.861 2878.46 703.842Z" fill="white"/>
<path d="M3188.94 703.842C3170.66 686.861 3155.39 666.86 3143.7 644.596C3120.7 600.444 3113.54 549.122 3123.72 499.687C3133.33 453.082 3159.16 409.874 3196.48 378.175L3208.93 392.892C3174.8 421.761 3151.43 461.196 3142.57 503.649C3133.33 548.745 3139.74 595.538 3160.67 635.728C3171.22 656.105 3185.17 674.219 3201.95 689.691L3188.94 703.842Z" fill="white"/>
<path d="M2884.68 668.937C2881.28 673.088 2877.7 677.239 2873.93 681.012C2878.27 685.729 2882.79 690.258 2887.5 694.597C2893.35 688.56 2898.82 682.144 2903.91 675.352C2897.5 673.654 2891.09 671.578 2884.68 668.937Z" fill="#F1F1F0"/>
<path d="M3186.31 673.467C3176.5 661.958 3167.83 649.316 3160.86 635.731C3151.24 617.428 3144.83 597.805 3141.44 577.616C3136.91 585.541 3132.01 593.088 3126.73 600.258C3130.88 615.542 3136.54 630.448 3143.89 644.599C3152 660.26 3161.99 674.6 3173.49 687.807C3177.82 683.09 3182.16 678.373 3186.31 673.467Z" fill="#F1F1F0"/>
<path d="M271.464 233.652C336.691 233.652 386.836 248.181 421.712 277.238C456.587 306.295 474.119 344.976 474.119 393.09C474.119 448.185 456.964 489.696 422.843 517.621C388.721 545.546 338.953 559.32 273.726 559.32L256.194 568.377H172.87V734.607H0V233.652H271.464ZM241.113 452.336C259.776 452.336 273.915 448.94 283.152 442.148C292.578 435.355 297.102 423.279 297.102 406.109C297.102 389.316 292.389 377.429 283.152 370.448C273.726 363.278 259.776 359.882 241.113 359.882H172.87V452.525H241.113V452.336ZM345.739 489.507L502.02 734.607H310.11L193.23 515.168L345.739 489.507Z" fill="black"/>
<path d="M723.529 347.615C765.946 347.615 803.083 355.351 834.566 370.823C866.236 386.295 890.743 408.749 908.464 437.995C926.185 467.429 935.045 503.09 935.045 544.978C935.045 586.488 926.185 621.961 908.464 651.584C890.743 681.207 866.048 703.661 834.566 719.133C802.895 734.605 765.946 742.341 723.529 742.341C681.49 742.341 644.729 734.605 612.87 719.133C581.011 703.661 556.315 681.207 538.594 651.584C520.874 621.961 512.014 586.488 512.014 544.978C512.014 502.902 520.874 467.241 538.594 437.995C556.315 408.56 581.011 386.295 612.87 370.823C644.541 355.351 681.49 347.615 723.529 347.615ZM723.529 465.165C715.989 465.165 709.391 467.241 703.735 471.58C698.08 475.92 693.932 483.845 691.293 495.543C688.465 507.241 687.146 523.657 687.146 544.978C687.146 566.299 688.465 582.526 691.293 593.847C694.121 605.168 698.268 613.281 703.735 617.81C709.391 622.338 715.8 624.602 723.529 624.602C731.635 624.602 738.234 622.338 743.701 617.81C748.979 613.281 753.126 605.357 755.766 593.847C758.593 582.526 759.913 566.111 759.913 544.978C759.913 523.657 758.593 507.241 755.766 495.543C752.938 483.845 748.979 475.92 743.701 471.58C738.234 467.429 731.635 465.165 723.529 465.165Z" fill="black"/>
<path d="M979.909 734.785V355.154H1136.94L1140.71 437.797C1151.84 408.929 1168.43 386.664 1190.86 371.003C1213.1 355.343 1240.44 347.418 1272.68 347.418C1301.52 347.418 1325.46 354.022 1344.31 367.23C1363.35 380.438 1376.74 399.117 1384.84 423.457C1392.95 407.231 1402.94 393.457 1414.82 382.136C1426.69 370.815 1440.64 362.135 1456.48 356.286C1472.31 350.437 1490.22 347.607 1510.02 347.607C1535.28 347.607 1556.77 352.512 1574.49 362.324C1592.21 372.135 1605.78 386.664 1615.02 405.532C1624.45 424.589 1628.97 447.609 1628.97 474.968V734.596H1454.59V520.629C1454.59 503.459 1452.52 491.761 1448.18 485.723C1443.85 479.685 1437.25 476.666 1428.01 476.666C1419.91 476.666 1413.12 478.742 1407.46 482.704C1401.81 486.855 1397.85 493.27 1395.4 502.138C1392.95 511.006 1391.63 522.327 1391.63 535.913V734.785H1217.25V520.629C1217.25 503.459 1215.18 491.761 1210.84 485.723C1206.51 479.685 1199.91 476.666 1190.67 476.666C1182.56 476.666 1175.78 478.742 1170.12 482.704C1164.47 486.855 1160.51 493.27 1158.06 502.138C1155.61 511.006 1154.29 522.327 1154.29 535.913V734.785H979.909Z" fill="black"/>
<path d="M1774.69 330.819C1740.38 330.819 1715.88 325.347 1701.55 314.026C1687.22 302.894 1679.87 284.214 1679.87 257.798C1679.87 231.005 1687.03 212.137 1701.55 201.193C1715.88 190.627 1740.19 185.155 1774.69 185.155C1809 185.155 1833.51 190.627 1847.84 201.382C1862.17 212.326 1869.52 231.194 1869.52 257.987C1869.52 284.214 1862.35 303.082 1847.84 314.215C1833.51 325.347 1809 330.819 1774.69 330.819Z" fill="#F9DE00"/>
<path d="M1861.79 355.155H1687.41V734.786H1861.79V355.155Z" fill="black"/>
<path d="M1920.98 734.785V355.154H2078.02L2085.56 516.101L2068.03 497.044C2071.61 465.722 2079.34 438.929 2091.59 416.665C2103.66 394.4 2120.06 377.23 2140.42 365.343C2160.96 353.456 2185.28 347.418 2213.56 347.418C2238.82 347.418 2260.31 352.324 2278.03 362.135C2295.75 371.947 2309.33 386.475 2318.56 405.344C2327.99 424.401 2332.51 447.42 2332.51 474.779V734.408H2158.14V518.365C2158.14 502.138 2155.87 491.195 2151.35 485.346C2146.83 479.496 2140.04 476.666 2130.8 476.666C2122.7 476.666 2116.1 478.553 2110.63 482.327C2105.35 486.1 2101.39 492.327 2098.94 501.006C2096.49 509.686 2095.17 520.818 2095.17 534.403V734.785H1920.98Z" fill="black"/>
<path d="M2650.54 626.868C2699.56 626.868 2737.07 636.68 2762.71 656.491C2788.54 676.303 2801.36 705.926 2801.36 745.361C2801.36 780.834 2792.5 809.702 2774.78 832.344C2757.06 854.798 2731.42 871.402 2697.86 882.157C2664.31 892.723 2623.4 898.006 2575.33 898.006C2501.05 898.006 2448.45 890.459 2417.54 875.175C2386.62 860.081 2371.35 837.25 2371.35 806.872C2371.35 785.551 2381.15 769.135 2400.95 757.437C2420.74 745.739 2452.98 739.889 2498.03 739.889L2496.53 752.72C2456.56 748.569 2427.91 738.38 2410.37 721.965C2392.84 705.549 2384.17 684.228 2384.17 657.812C2384.17 631.019 2395.1 609.887 2417.16 594.415C2439.22 578.943 2466.36 571.206 2498.6 571.206L2551.01 594.037H2535.93C2519.71 594.037 2508.4 595.358 2501.8 598.188C2495.21 601.018 2492 605.17 2492 610.641C2492 615.736 2494.45 619.698 2499.17 622.34C2504.07 625.17 2511.98 626.491 2523.11 626.491H2650.54V626.868ZM2588.33 347.617C2632.82 347.617 2669.96 352.522 2699.75 361.957C2729.53 371.579 2752.15 385.919 2767.24 404.788C2782.32 423.845 2790.05 447.996 2790.05 477.242C2790.05 506.111 2782.51 530.074 2767.24 548.942C2752.15 567.999 2729.53 582.15 2699.75 591.396C2669.96 600.83 2632.82 605.358 2588.33 605.358C2522.16 605.358 2471.83 594.792 2437.71 573.471C2403.59 552.149 2386.43 520.073 2386.43 477.054C2386.43 447.619 2393.97 423.467 2409.24 404.599C2424.51 385.731 2446.95 371.391 2477.11 361.768C2507.46 352.334 2544.41 347.617 2588.33 347.617ZM2577.78 792.344C2599.08 792.344 2616.61 791.589 2630.56 790.079C2644.51 788.57 2654.88 786.117 2662.04 782.909C2669.21 779.702 2672.6 775.362 2672.6 770.456C2672.6 767.437 2671.66 764.984 2669.58 763.286C2667.51 761.588 2663.74 760.645 2658.27 760.645H2510.48C2505.39 760.645 2501.62 761.965 2499.17 764.418C2496.71 766.871 2495.39 769.89 2495.39 773.475C2495.39 780.079 2502.75 784.796 2517.45 787.815C2531.78 790.834 2551.95 792.344 2577.78 792.344ZM2588.33 437.996C2578.15 437.996 2570.42 441.015 2564.77 447.053C2559.11 453.091 2556.47 462.902 2556.47 476.676C2556.47 490.261 2559.3 500.262 2564.77 506.299C2570.24 512.337 2578.15 515.356 2588.33 515.356C2598.51 515.356 2606.24 512.337 2611.9 506.299C2617.55 500.262 2620.19 490.45 2620.19 476.676C2620.19 463.091 2617.37 453.091 2611.9 447.053C2606.43 441.015 2598.51 437.996 2588.33 437.996ZM2790.23 232.142L2799.28 339.881C2794.19 338.937 2789.48 338.183 2785.33 337.616C2781 337.05 2776.85 336.862 2772.89 336.862C2752.15 336.862 2737.07 342.522 2727.84 354.032C2718.41 365.353 2713.89 377.429 2713.89 390.07L2662.99 374.976C2662.99 353.277 2666.19 331.39 2672.79 309.314C2679.39 287.238 2690.7 268.747 2706.91 253.841C2723.12 238.935 2744.99 231.388 2772.89 231.388C2775.34 231.388 2778.17 231.388 2781.19 231.388C2784.01 231.388 2787.03 231.765 2790.23 232.142Z" fill="black"/>
</g>
<defs>
<clipPath id="clip0">
<rect width="4074" height="898" fill="white"/>
</clipPath>
</defs>
</svg>
