<?xml version="1.0" encoding="utf-8"?>
<!-- Generator: Adobe Illustrator 24.0.1, SVG Export Plug-In . SVG Version: 6.00 Build 0)  -->
<svg version="1.1" id="Layer_1" xmlns="http://www.w3.org/2000/svg" xmlns:xlink="http://www.w3.org/1999/xlink" x="0px" y="0px"
	 viewBox="0 0 710 160" style="enable-background:new 0 0 710 160;" xml:space="preserve">
<style type="text/css">
	.st0{fill:none;}
	.st1{fill:#FFFFFF;}
	.st2{clip-path:url(#SVGID_2_);}
	.st3{clip-path:url(#SVGID_4_);}
	.st4{fill:#A6DBE5;}
	.st5{fill:none;stroke:#F9C171;stroke-width:2.455;stroke-linecap:round;stroke-miterlimit:10;stroke-dasharray:7.3651;}
	.st6{fill:#F9C171;}
	.st7{enable-background:new    ;}
	.st8{fill:#99481F;}
	.st9{fill:#B36B24;}
	.st10{clip-path:url(#SVGID_7_);fill:#B36B24;}
	.st11{clip-path:url(#SVGID_7_);fill:#99481F;}
	.st12{fill:#FF884D;}
	.st13{fill:#FFC34D;}
	.st14{clip-path:url(#SVGID_9_);fill:#FFC34D;}
	.st15{fill:#FFB83D;}
	.st16{fill:#FF9F22;}
	.st17{fill:#0095FF;}
	.st18{fill:#0066A3;}
	.st19{fill:#AFC7E2;}
	.st20{fill:#81BDF2;}
	.st21{fill:#8F4813;}
	.st22{fill:#BC5F19;}
	.st23{fill:#A86A3F;}
	.st24{fill:#3DB39E;}
	.st25{clip-path:url(#SVGID_11_);fill:#78CABB;}
	.st26{clip-path:url(#SVGID_11_);fill:#5ABEAC;}
	.st27{fill:#8CD2C5;}
	.st28{fill:#C47E4D;}
	.st29{fill:#EFC75E;}
	.st30{fill:#D7B354;}
	.st31{fill:#B27245;}
	.st32{fill:#CA8B5F;}
	.st33{fill:#F5DCB4;}
	.st34{fill:#965A50;}
	.st35{fill:#4B3F4E;}
	.st36{fill:#5D5360;}
	.st37{fill:#824641;}
	.st38{fill:#E7C9A5;}
	.st39{fill:#BC8E78;}
	.st40{fill:none;stroke:#464646;stroke-width:16.516;stroke-linecap:round;stroke-linejoin:round;stroke-miterlimit:10;}
	.st41{fill:#FF8087;}
	.st42{fill:#E6646E;}
	.st43{fill:#D4AF91;}
</style>
<rect id="SVGID_5_" x="385.7" y="-53.4" class="st0" width="578" height="219.9"/>
<path class="st1" d="M694,156H16c-6.1,0-11-4.9-11-11V15C5,8.9,9.9,4,16,4h678c6,0,11,4.9,11,11v130C705,151.1,700,156,694,156z"/>
<g>
	<defs>
		<path id="SVGID_1_" d="M694,156H16c-6.1,0-11-4.9-11-11V15C5,8.9,9.9,4,16,4h678c6,0,11,4.9,11,11v130C705,151.1,700,156,694,156z
			"/>
	</defs>
	<clipPath id="SVGID_2_">
		<use xlink:href="#SVGID_1_"  style="overflow:visible;"/>
	</clipPath>
	<g class="st2">
		<defs>
			<rect id="SVGID_3_" x="-83.6" width="820" height="312"/>
		</defs>
		<clipPath id="SVGID_4_">
			<use xlink:href="#SVGID_3_"  style="overflow:visible;"/>
		</clipPath>
		<g class="st3">
			<g>
				<g>
					<path class="st4" d="M159.7-20.8c2.3,0,4.2,1.7,4.4,3.9c0,0,0,0,0,0c1,9.8-6.4,18.9-15.4,23c-8.9,4.1-19.1,4.2-29,4
						C110,10,99.9,9.6,90.5,12.6c-19,6.2-31.4,25.7-50.4,31.8C26.6,48.8,11.8,45.6-1.6,41c-13.4-4.6-26.6-10.7-40.7-12.2
						c-15.7-1.7-31.9,2.9-44.8,11.9c-8.4,5.8-19.9,0-19.9-10.2V-1.9c0-10.4,8.4-18.9,18.9-18.9H159.7z"/>
				</g>
				<path class="st5" d="M-123.6,65.7C-112.4,32-74.9,9.4-39.8,15.1c20.3,3.3,38.2,14.7,57,23c18.8,8.3,41.1,13.5,59.5,4.3
					c7.5-3.8,13.8-9.7,21.3-13.5c22.5-11.4,51.6-2.1,73.4-14.8c19.6-11.5,25.5-41,11.9-59.2"/>
			</g>
			<g>
				<g>
					<path class="st4" d="M600.9,268.9c22.6,6.3,38.3,41,13.7,55.6c-8,4.7-17.6,5.5-26.8,6.7s-18.9,2.9-25.9,9
						c-6.9,6-10.1,15.1-15.1,22.8c-6.3,9.8-16.1,17.6-27.5,20c-27.8,5.7-39.7-19.4-36.3-43.2c1.4-10.3,6.6-20.3,15.2-26
						c12.4-8.3,29.4-6.7,41.8-14.9c7.1-4.7,11.9-12,18.1-17.9C569.3,270.1,586,264.7,600.9,268.9z"/>
				</g>
				<g>
					<path class="st6" d="M617,66.1l-17.3-2.7l-2.5-9.7c-0.3-1.1-1-2-2-2.5l0,0c-1.5-0.8-3.4-0.2-4.3,1.3l0,0
						c-0.6,0.9-0.7,2.1-0.3,3.1l3.1,9.5l-13.1,11.6c-1.5,1.4-1.8,3.7-0.5,5.3c0.5,0.6,1.3,0.8,2,0.4l14.7-7.8l3.7,11.4l-3.4,2.8
						c-1,0.9-1.2,2.4-0.3,3.5c0.2,0.2,0.5,0.3,0.7,0.1l4.6-3l1.1,1.8c0.3,0.5,0.9,0.7,1.4,0.6c0.5-0.2,0.9-0.7,0.9-1.2l-0.1-2.1
						l5.5,0c0.3,0,0.5-0.2,0.6-0.5c0.2-1.3-0.8-2.6-2.1-2.7l-4.4-0.5l-3-11.6l16.6-1.4c0.8-0.1,1.4-0.7,1.5-1.5
						C620.5,68.3,619.1,66.5,617,66.1z"/>
					<path class="st5" d="M621-12.7c-10.5,13.4-20.3,27.9-25.1,44.3c-0.4,1.3-0.8,2.7-1.1,4.1"/>
					<path class="st5" d="M618.1,100.6c4.5,5,8.5,10.3,10.7,16.6c4.9,14.5-0.8,32.4,8.4,44.6c6.8,9.1,19.5,11.5,28.1,18.9
						c8.9,7.6,12.7,20.5,9.3,31.7c-7.6,25.3-42.7,30.7-57.2,52.8c-12.8,19.5-5.6,46.2,7.2,65.8"/>
				</g>
			</g>
			<path class="st5" d="M-34,220.3c9.1-8.9,20.2-16.5,32.7-19c12.5-2.5,26.7,0.8,35.1,10.4c13.3,15.3,8.7,40.7,22,56
				c6,6.9,14.7,10.6,22.1,16c15.6,11.5,24.7,31.3,23.2,50.6"/>
			<g>
				<path class="st6" d="M368.9,245.9c0-4.6-4-8.3-8.7-7.8c-3.6,0.4-6.5,3.3-6.9,6.8c-0.2,1.9,0.3,3.8,1.2,5.2h0l5.5,10.2
					c0.4,0.8,1.6,0.8,2,0l5.5-10.2h0C368.5,248.9,368.9,247.5,368.9,245.9z M361.1,249.2c-1.8,0-3.3-1.5-3.3-3.3
					c0-1.8,1.5-3.3,3.3-3.3c1.8,0,3.3,1.5,3.3,3.3C364.5,247.7,363,249.2,361.1,249.2z"/>
				<path class="st6" d="M45.2,18.1c0-4.6-4-8.3-8.7-7.8c-3.6,0.4-6.5,3.3-6.9,6.8c-0.2,1.9,0.3,3.8,1.2,5.2h0l5.5,10.2
					c0.4,0.8,1.6,0.8,2,0l5.5-10.2h0C44.7,21.2,45.2,19.7,45.2,18.1z M37.3,21.5c-1.8,0-3.3-1.5-3.3-3.3c0-1.8,1.5-3.3,3.3-3.3
					c1.8,0,3.3,1.5,3.3,3.3C40.7,20,39.2,21.5,37.3,21.5z"/>
				<path class="st6" d="M-32.7,244.7c0-4.6-4-8.3-8.7-7.8c-3.6,0.4-6.5,3.3-6.9,6.8c-0.2,1.9,0.3,3.8,1.2,5.2h0l5.5,10.2
					c0.4,0.8,1.6,0.8,2,0L-34,249h0C-33.2,247.8-32.7,246.3-32.7,244.7z M-40.5,248c-1.8,0-3.3-1.5-3.3-3.3c0-1.8,1.5-3.3,3.3-3.3
					c1.8,0,3.3,1.5,3.3,3.3C-37.2,246.5-38.7,248-40.5,248z"/>
			</g>
		</g>
	</g>
</g>
<g>
	<g>
		<path d="M202.8,23.4v4.1h-5.6v14.6h-4.8V27.5h-5.6v-4.1C186.8,23.4,202.8,23.4,202.8,23.4z"/>
		<path d="M218.5,33.1v9.1h-4.7v-7.7c0-1.7-0.9-2.7-2.4-2.7c-1.8,0-2.8,1.4-2.8,3.3v7.1h-4.7V22.4h4.7v7.7c1-1.7,2.7-2.5,4.8-2.5
			C216.4,27.5,218.5,29.6,218.5,33.1z"/>
		<path d="M235.3,36.2h-10c0.5,1.7,1.7,2.5,3.3,2.5c1.3,0,2.4-0.5,3.4-1.5l2.5,2.5c-1.5,1.7-3.7,2.5-6.3,2.5c-4.7,0-7.6-2.9-7.6-7.4
			s3-7.5,7.5-7.5C233.1,27.6,235.7,30.9,235.3,36.2z M230.7,33.7c0-1.7-1-2.8-2.7-2.8c-1.5,0-2.5,1.1-2.9,2.8H230.7z"/>
		<path d="M257,42.2l-2.7-5.2h-0.1h-3.6v5.2h-4.8V23.4h8.4c5,0,7.7,2.4,7.7,6.6c0,2.8-1.1,5-3.3,6l3.9,6.1H257V42.2z M250.6,33.1
			h3.6c2,0,3.2-1,3.2-2.9c0-1.8-1.1-2.8-3.2-2.8h-3.6V33.1z"/>
		<path d="M279.6,35c0,4.4-3.2,7.4-7.9,7.4c-4.7,0-7.9-2.9-7.9-7.4s3.2-7.4,7.9-7.4C276.4,27.6,279.6,30.5,279.6,35z M268.7,35
			c0,2.2,1.3,3.6,3,3.6c1.9,0,3.2-1.4,3.2-3.6c0-2.2-1.3-3.6-3.2-3.6C269.9,31.4,268.7,32.8,268.7,35z"/>
		<path d="M306.5,33.1v9.1h-4.7v-7.7c0-1.7-0.9-2.7-2.4-2.7c-1.7,0-2.7,1.4-2.7,3.3v7.1H292v-7.7c0-1.7-0.9-2.7-2.4-2.7
			c-1.7,0-2.8,1.4-2.8,3.3v7.1h-4.7V27.7h4.7v2.4c1-1.7,2.7-2.5,4.7-2.5c2.3,0,4.1,1.1,4.8,3.2c0.9-2.2,2.7-3.2,5.1-3.2
			C304.5,27.5,306.5,29.6,306.5,33.1z"/>
		<path d="M314.5,27.7v14.5h-4.7V27.7H314.5z M314.2,23.7c0,1.3-0.9,2.2-2.2,2.2s-2.2-0.9-2.2-2.2s0.9-2.2,2.2-2.2
			S314.2,22.4,314.2,23.7z"/>
		<path d="M332.8,33.1v9.1h-4.7v-7.7c0-1.7-1-2.7-2.4-2.7c-1.7,0-2.7,1.1-2.8,2.8v7.6h-4.7V27.7h4.7V30c1-1.7,2.7-2.5,4.8-2.5
			C330.7,27.5,332.8,29.6,332.8,33.1z"/>
		<path d="M349.8,27.7v13.2c0,4.1-3.2,6.6-7.9,6.6c-2.5,0-4.8-0.8-6.5-1.9l1.8-3.3c1.3,0.9,2.9,1.4,4.4,1.4c2.2,0,3.4-1.1,3.4-2.8
			v-1.5c-0.9,1.3-2.3,1.9-4.1,1.9c-3.6,0-6.2-2.8-6.2-7c0-4.1,2.5-6.9,6.1-6.9c1.8,0,3.3,0.6,4.2,1.9v-1.8h4.7V27.7z M345.1,34.5
			c0-2-1.1-3.4-2.9-3.4c-1.8,0-2.9,1.4-2.9,3.4s1.1,3.3,2.9,3.3C343.9,37.9,345.1,36.5,345.1,34.5z"/>
		<path d="M367.9,35c0,4.4-3.2,7.4-7.9,7.4s-7.9-2.9-7.9-7.4s3.2-7.4,7.9-7.4S367.9,30.5,367.9,35z M356.9,35c0,2.2,1.3,3.6,3,3.6
			c1.9,0,3.2-1.4,3.2-3.6c0-2.2-1.3-3.6-3.2-3.6C358.2,31.4,356.9,32.8,356.9,35z"/>
		<path d="M390.7,32.6h4.2v7.4c-2,1.4-5.2,2.4-7.7,2.4c-5.7,0-10-4.1-10-9.5s4.4-9.5,10.3-9.5c2.8,0,5.7,1,7.6,2.8l-2.8,3.4
			c-1.3-1.3-3.2-2-5-2c-3,0-5.3,2.3-5.3,5.3s2.3,5.3,5.3,5.3c0.9,0,2.2-0.4,3.2-0.9v-4.7H390.7z"/>
		<path d="M412.2,27.7v14.5h-4.7v-2.4c-1,1.7-2.5,2.5-4.6,2.5c-3.2,0-5.2-2.2-5.2-5.5v-9.1h4.7v7.7c0,1.7,0.9,2.7,2.3,2.7
			c1.7,0,2.7-1.4,2.7-3.3v-7.1H412.2z"/>
		<path d="M428.6,32.8v9.4h-4.7v-1.7c-0.9,1.1-2.4,1.8-4.3,1.8c-3,0-5-1.9-5-4.4c0-2.8,1.9-4.3,5.5-4.3h3.8v-0.1
			c0-1.4-0.9-2.2-2.8-2.2c-1.1,0-2.8,0.4-4.3,1.1l-1.3-3.2c2.3-1,4.3-1.5,6.7-1.5C426.3,27.5,428.6,29.5,428.6,32.8z M423.9,37.3V36
			h-2.8c-1.3,0-2,0.5-2,1.5c0,1,0.8,1.7,1.9,1.7C422.5,39.2,423.7,38.4,423.9,37.3z"/>
		<path d="M441.2,27.5v4.3c-2.7-0.3-4.4,0.9-4.7,2.9v7.4h-4.7V27.7h4.7v2.4C437.6,28.5,439.1,27.5,441.2,27.5z"/>
		<path d="M455.8,32.8v9.4h-4.7v-1.7c-0.9,1.1-2.4,1.8-4.3,1.8c-3,0-5-1.9-5-4.4c0-2.8,1.9-4.3,5.5-4.3h3.8v-0.1
			c0-1.4-0.9-2.2-2.8-2.2c-1.1,0-2.8,0.4-4.3,1.1l-1.3-3.2c2.3-1,4.3-1.5,6.7-1.5C453.4,27.5,455.6,29.5,455.8,32.8z M451.1,37.3V36
			h-2.8c-1.3,0-2,0.5-2,1.5c0,1,0.8,1.7,1.9,1.7C449.6,39.2,450.7,38.4,451.1,37.3z"/>
		<path d="M473.7,33.1v9.1H469v-7.7c0-1.7-1-2.7-2.4-2.7c-1.7,0-2.7,1.1-2.8,2.8v7.6h-4.7V27.7h4.7V30c1-1.7,2.7-2.5,4.8-2.5
			C471.5,27.5,473.7,29.6,473.7,33.1z"/>
		<path d="M486.2,41.4c-1,0.6-2.5,1-3.9,1c-2.8,0-4.8-1.7-4.8-4.6v-6.2h-1.9v-3.3h2v-4.1h4.7v4.1h3.7v3.2h-3.7V37
			c0,1,0.5,1.5,1.3,1.5c0.5,0,1.1-0.1,1.8-0.5L486.2,41.4z"/>
		<path d="M502.1,36.2h-10c0.5,1.7,1.7,2.5,3.3,2.5c1.3,0,2.4-0.5,3.4-1.5l2.5,2.5c-1.5,1.7-3.7,2.5-6.3,2.5c-4.7,0-7.6-2.9-7.6-7.4
			s3-7.5,7.5-7.5C499.8,27.6,502.4,30.9,502.1,36.2z M497.5,33.7c0-1.7-1-2.8-2.7-2.8c-1.5,0-2.5,1.1-2.9,2.8H497.5z"/>
		<path d="M518.1,36.2h-10c0.5,1.7,1.7,2.5,3.3,2.5c1.3,0,2.4-0.5,3.4-1.5l2.5,2.5c-1.5,1.7-3.7,2.5-6.3,2.5c-4.7,0-7.6-2.9-7.6-7.4
			s3-7.5,7.5-7.5C515.9,27.6,518.5,30.9,518.1,36.2z M513.5,33.7c0-1.7-1-2.8-2.7-2.8c-1.5,0-2.5,1.1-2.9,2.8H513.5z"/>
	</g>
	<g class="st7">
		<path d="M233.3,76.7l5.6,7.5v-7.5h1v9.3h-1l-5.6-7.5v7.5h-1v-9.3H233.3z"/>
		<path d="M248.8,82.4c0,2.1-1.5,3.5-3.5,3.5c-2.1,0-3.5-1.5-3.5-3.5c0-2.1,1.5-3.5,3.5-3.5C247.4,78.9,248.8,80.3,248.8,82.4z
			 M242.8,82.4c0,1.6,1,2.6,2.5,2.6s2.5-1,2.5-2.6c0-1.5-1-2.6-2.5-2.6C243.8,79.9,242.8,80.9,242.8,82.4z"/>
		<path d="M261.8,82.4c0,2.1-1.3,3.5-3.4,3.5c-1.2,0-2.2-0.6-2.6-1.5v4.1h-1V79h1v1.5c0.6-1,1.5-1.5,2.6-1.5
			C260.4,78.9,261.8,80.3,261.8,82.4z M260.7,82.4c0-1.5-1-2.6-2.5-2.6s-2.5,1-2.5,2.6c0,1.5,1,2.6,2.5,2.6S260.7,84,260.7,82.4z"/>
		<path d="M269.5,82.8h-5.7c0.1,1.3,1.2,2.2,2.5,2.2c0.9,0,1.6-0.3,2.2-0.9l0.6,0.6c-0.7,0.7-1.6,1.2-2.8,1.2
			c-2.1,0-3.5-1.5-3.5-3.5s1.5-3.5,3.5-3.5C268.5,78.9,269.7,80.5,269.5,82.8z M268.7,81.9c0-1.3-1-2.2-2.3-2.2s-2.3,0.9-2.5,2.2
			H268.7z"/>
		<path d="M275,85.5c-0.4,0.3-1,0.6-1.6,0.6c-1,0-1.8-0.6-1.8-1.9v-4h-1v-0.7h1v-1.8h1v1.8h2.2v0.7h-2.2V84c0,0.9,0.3,1.2,0.9,1.2
			c0.3,0,0.7-0.1,1.2-0.3L275,85.5z"/>
		<path d="M281.7,78.3v0.9h2.1v0.7h-2.1v5.9h-1v-5.9h-0.9v-0.7h0.9v-0.7c0-1.5,1-2.3,2.2-2.3c0.6,0,1,0.1,1.5,0.4l-0.4,0.7
			c-0.3-0.3-0.7-0.3-1-0.3C282.2,77,281.7,77.4,281.7,78.3z"/>
		<path d="M290.5,82.8h-5.7c0.1,1.3,1.2,2.2,2.5,2.2c0.9,0,1.6-0.3,2.2-0.9l0.6,0.6c-0.7,0.7-1.6,1.2-2.8,1.2
			c-2.1,0-3.5-1.5-3.5-3.5s1.5-3.5,3.5-3.5C289.7,78.9,290.7,80.5,290.5,82.8z M289.7,81.9c0-1.3-1-2.2-2.3-2.2s-2.3,0.9-2.5,2.2
			H289.7z"/>
		<path d="M298.3,82.8h-5.7c0.1,1.3,1.2,2.2,2.5,2.2c0.9,0,1.6-0.3,2.2-0.9l0.6,0.6c-0.7,0.7-1.6,1.2-2.8,1.2
			c-2.1,0-3.5-1.5-3.5-3.5s1.5-3.5,3.5-3.5C297.4,78.9,298.5,80.5,298.3,82.8z M297.4,81.9c0-1.3-1-2.2-2.3-2.2s-2.3,0.9-2.5,2.2
			H297.4z"/>
		<path d="M302,79.7c-0.7,0-1.3,0.3-1.3,0.9c0,1.6,3.8,0.7,3.8,3.2c0,1.3-1.2,1.9-2.5,1.9c-1,0-2.1-0.3-2.6-1l0.4-0.7
			c0.6,0.6,1.5,0.9,2.3,0.9s1.5-0.3,1.5-1c0-1.8-3.8-0.9-3.8-3.2c0-1.3,1.2-1.9,2.3-1.9c0.9,0,1.6,0.3,2.2,0.6l-0.4,0.7
			C303.3,80,302.6,79.7,302,79.7z"/>
	</g>
	<g class="st7">
		<path d="M420.4,84.9c1.8,0,2.8-1,2.8-2.9v-5.4h1v5.4c0,2.3-1.5,3.8-3.8,3.8c-2.5,0-4-1.5-4-3.8v-5.4h1v5.4
			C417.5,83.9,418.6,84.9,420.4,84.9z"/>
		<path d="M433.8,82.4c0,2.1-1.3,3.5-3.4,3.5c-1.2,0-2.2-0.6-2.6-1.5v4.1h-1V79h1v1.5c0.6-1,1.5-1.5,2.6-1.5
			C432.5,78.9,433.8,80.3,433.8,82.4z M432.7,82.4c0-1.5-1-2.6-2.5-2.6s-2.5,1-2.5,2.6c0,1.5,1,2.6,2.5,2.6
			C431.7,85,432.7,83.9,432.7,82.4z"/>
		<path d="M443.2,85.3c-0.4,0.3-1,0.6-1.6,0.6c-1,0-1.8-0.6-1.8-1.9v-4h-1v-0.7h1v-1.8h1v1.8h2.2V80h-2.2v3.8c0,0.9,0.3,1.2,0.9,1.2
			c0.3,0,0.7-0.1,1.2-0.3L443.2,85.3z"/>
		<path d="M451,82.4c0,2.1-1.5,3.5-3.5,3.5c-2.1,0-3.5-1.5-3.5-3.5c0-2.1,1.5-3.5,3.5-3.5C449.5,78.9,451,80.3,451,82.4z
			 M444.9,82.4c0,1.6,1,2.6,2.5,2.6s2.5-1,2.5-2.6c0-1.5-1-2.6-2.5-2.6S444.9,80.8,444.9,82.4z"/>
		<path d="M461.2,79c0-0.9-0.7-1.5-1.9-1.5c-0.9,0-1.9,0.4-2.6,1.2l-0.4-0.7c0.9-0.7,2.1-1.3,3.2-1.3c1.8,0,2.9,0.9,2.9,2.2
			c0,0.9-0.7,1.9-1.8,2.9l-2.9,3.1h5.3v1h-6.6V85l3.7-3.8C460.6,80.5,461.2,79.6,461.2,79z"/>
		<path d="M475.3,76.1v9.8h-1v-1.5c-0.6,1-1.5,1.6-2.6,1.6c-2.1,0-3.4-1.5-3.4-3.5s1.3-3.5,3.4-3.5c1.2,0,2.2,0.6,2.8,1.6v-4.4h0.9
			V76.1z M474.3,82.4c0-1.5-1-2.6-2.5-2.6s-2.5,1.2-2.5,2.6c0,1.5,1,2.6,2.5,2.6C473.3,85,474.3,83.9,474.3,82.4z"/>
		<path d="M484.1,82.4c0,2.1-1.5,3.5-3.5,3.5s-3.5-1.5-3.5-3.5c0-2.1,1.5-3.5,3.5-3.5S484.1,80.3,484.1,82.4z M478.1,82.4
			c0,1.6,1,2.6,2.5,2.6s2.5-1,2.5-2.6c0-1.5-1-2.6-2.5-2.6C479.1,79.7,478.1,80.8,478.1,82.4z"/>
		<path d="M492.1,78.9V85c0,2.1-1.3,3.4-3.5,3.4c-1,0-2.1-0.4-2.8-1l0.4-0.7c0.7,0.6,1.5,0.9,2.3,0.9c1.5,0,2.5-0.9,2.5-2.3v-1
			c-0.4,0.9-1.3,1.5-2.5,1.5c-1.9,0-3.2-1.3-3.2-3.4c0-1.9,1.3-3.4,3.1-3.4c1.2,0,2.1,0.6,2.6,1.5v-1.5H492.1z M491,82.2
			c0-1.5-1-2.5-2.3-2.5c-1.5,0-2.3,1-2.3,2.5s1,2.5,2.3,2.5C490,84.7,491,83.7,491,82.2z"/>
		<path d="M496.2,79.7c-0.7,0-1.3,0.3-1.3,0.9c0,1.6,3.8,0.7,3.8,3.2c0,1.3-1.2,1.9-2.5,1.9c-1,0-2.1-0.3-2.6-1L494,84
			c0.6,0.6,1.5,0.9,2.3,0.9s1.5-0.3,1.5-1c0-1.8-3.8-0.9-3.8-3.2c0-1.3,1.2-1.9,2.3-1.9c0.9,0,1.6,0.3,2.2,0.6l-0.4,0.7
			C497.5,79.9,496.9,79.7,496.2,79.7z"/>
	</g>
	<g>
		<path class="st8" d="M394.4,81.9c0,3.5-3.7,3.5-4.9,3.5h-0.8l-0.4-5.3l0.4-4c1.3,0,2.5,0.5,3.4,1.4l0.9,0.9
			C393.9,79.4,394.4,80.6,394.4,81.9L394.4,81.9z M394.4,81.9"/>
		<path class="st9" d="M388.6,76.1v9.3h-0.9v-0.8l-3.4-0.9l-0.6,0.6c-0.6-0.6-0.9-1.4-0.9-2.4c0-1.3,0.5-2.5,1.4-3.5l0.9-0.9
			C386.1,76.6,387.3,76.1,388.6,76.1L388.6,76.1z M388.6,76.1"/>
		<path class="st8" d="M391.1,71.8c0,1.5-1.1,2.7-2.5,2.7l-0.4-2.6l0.4-2.9C390,69,391.1,70.2,391.1,71.8L391.1,71.8z M391.1,71.8"
			/>
		<path class="st9" d="M388.6,69v5.5c-1.4,0-2.5-1.2-2.5-2.7S387.3,69,388.6,69L388.6,69z M388.6,69"/>
		<g>
			<defs>
				<rect id="SVGID_6_" x="369.8" y="69" width="28" height="26.7"/>
			</defs>
			<clipPath id="SVGID_7_">
				<use xlink:href="#SVGID_6_"  style="overflow:visible;"/>
			</clipPath>
			<path class="st10" d="M384.6,74.6c-0.1-0.7-0.4-1.3-0.9-1.8c-0.5-0.5-1.1-0.8-1.8-0.9c-0.7-0.1-1.4,0.2-1.9,0.7
				c-0.5,0.5-0.7,1.2-0.7,1.9c0.1,0.7,0.4,1.3,0.9,1.8c0.6,0.6,1.3,0.9,2,0.9c0.6,0,1.2-0.2,1.7-0.7C384.4,76,384.7,75.3,384.6,74.6
				L384.6,74.6z M384.6,74.6"/>
			<path class="st11" d="M397,76.2c-0.6,0.6-1.3,0.9-2,0.9c-0.6,0-1.2-0.2-1.7-0.7c-1-1-0.9-2.6,0.2-3.7c0.5-0.5,1.1-0.8,1.8-0.9
				c0.7-0.1,1.4,0.2,1.9,0.7C398.1,73.5,398,75.2,397,76.2L397,76.2z M397,76.2"/>
		</g>
		<path class="st12" d="M384.7,92.1c0,3.5-3.7,3.5-4.9,3.5H379l-0.8-4.7l0.8-4.7c1.3,0,2.5,0.5,3.4,1.4l0.9,0.9
			C384.2,89.6,384.7,90.8,384.7,92.1L384.7,92.1z M384.7,92.1"/>
		<path class="st13" d="M379,86.3v9.3h-0.9c-1.5,0-2.5-0.2-3.3-0.6c-0.7-0.4-1.6-1.2-1.6-2.9c0-1.3,0.5-2.5,1.4-3.5l0.9-0.9
			C376.5,86.8,377.7,86.3,379,86.3L379,86.3z M379,86.3"/>
		<path class="st12" d="M381.5,81.9c0,1.5-1.1,2.7-2.5,2.7l-0.8-2.6l0.8-2.9C380.3,79.2,381.5,80.4,381.5,81.9L381.5,81.9z
			 M381.5,81.9"/>
		<g>
			<defs>
				<rect id="SVGID_8_" x="369.8" y="69" width="28" height="26.7"/>
			</defs>
			<clipPath id="SVGID_9_">
				<use xlink:href="#SVGID_8_"  style="overflow:visible;"/>
			</clipPath>
			<path class="st14" d="M379,79.2v5.5c-1.4,0-2.5-1.2-2.5-2.7C376.5,80.4,377.6,79.2,379,79.2L379,79.2z M379,79.2"/>
			<path class="st14" d="M374.1,82.9c-0.5-0.5-1.1-0.8-1.8-0.9c-0.7-0.1-1.4,0.2-1.9,0.7c-1,1-0.9,2.6,0.2,3.7
				c0.6,0.6,1.3,0.9,2,0.9c0.6,0,1.2-0.2,1.7-0.7C375.3,85.6,375.2,84,374.1,82.9L374.1,82.9z M374.1,82.9"/>
		</g>
		<path class="st12" d="M387.5,82.7c-0.5-0.5-1.2-0.7-1.9-0.7c-0.7,0.1-1.3,0.4-1.8,0.9c-0.5,0.5-0.8,1.1-0.9,1.8
			c-0.1,0.7,0.2,1.4,0.7,1.9c0.4,0.4,1,0.7,1.7,0.7c0.7,0,1.4-0.3,2-0.9c0.5-0.5,0.8-1.1,0.9-1.8C388.2,83.9,388,83.2,387.5,82.7
			L387.5,82.7z M387.5,82.7"/>
	</g>
	<g>
		<g class="st7">
			<path d="M424.2,115c0,1-0.6,1.9-1.8,2.1c1.3,0.1,2.1,1,2.1,2.3c0,1.6-1.2,2.5-3.4,2.5h-4v-9.3h4
				C423.2,112.8,424.2,113.5,424.2,115z M423.2,115.1c0-0.9-0.7-1.5-1.9-1.5h-2.8v3.1h2.8C422.5,116.8,423.2,116.2,423.2,115.1z
				 M423.6,119.4c0-1-0.9-1.6-2.3-1.6h-2.8v3.2h2.8C422.8,121,423.6,120.4,423.6,119.4z"/>
			<path d="M432.7,119H427c0.1,1.3,1.2,2.2,2.5,2.2c0.9,0,1.6-0.3,2.2-0.9l0.6,0.6c-0.6,0.7-1.6,1.2-2.8,1.2c-2.1,0-3.5-1.5-3.5-3.5
				s1.5-3.5,3.5-3.5C431.7,115,432.7,116.6,432.7,119z M431.7,118.1c0-1.3-1-2.2-2.3-2.2s-2.3,0.9-2.5,2.2H431.7z"/>
			<path d="M440.8,112.2v9.8h-1v-1.5c-0.6,1-1.5,1.6-2.6,1.6c-2.1,0-3.4-1.5-3.4-3.5c0-2.1,1.3-3.5,3.4-3.5c1.2,0,2.2,0.6,2.8,1.6
				v-4.4h0.9V112.2z M439.8,118.5c0-1.5-1-2.6-2.5-2.6c-1.5,0-2.5,1.2-2.5,2.6s1,2.6,2.5,2.6C438.8,121.2,439.8,120,439.8,118.5z"/>
			<path d="M445.2,115.9c-0.7,0-1.3,0.3-1.3,0.9c0,1.6,3.8,0.7,3.8,3.2c0,1.3-1.2,1.9-2.5,1.9c-1,0-2.1-0.3-2.6-1l0.4-0.7
				c0.6,0.6,1.5,0.9,2.3,0.9c0.9,0,1.5-0.3,1.5-1c0-1.8-3.8-0.9-3.8-3.2c0-1.3,1.2-1.9,2.3-1.9c0.9,0,1.6,0.3,2.2,0.6l-0.4,0.7
				C446.5,116,445.8,115.9,445.2,115.9z"/>
			<path d="M450.1,121.5c0,0.1-0.1,0.4-0.1,0.6l-0.6,0.9h-0.6l0.4-0.9c-0.1-0.1-0.3-0.3-0.3-0.6c0-0.4,0.3-0.7,0.6-0.7
				C449.8,120.7,450.1,121,450.1,121.5z"/>
			<path d="M463.1,118.5c0,2.1-1.3,3.5-3.4,3.5c-1.2,0-2.2-0.6-2.6-1.5v1.5h-1v-9.8h1v4.4c0.6-1,1.5-1.5,2.6-1.5
				C461.7,115,463.1,116.5,463.1,118.5z M462.1,118.5c0-1.5-1-2.6-2.5-2.6s-2.5,1-2.5,2.6c0,1.5,1,2.6,2.5,2.6
				C461.1,121.2,462.1,120,462.1,118.5z"/>
			<path d="M471.2,118.5c0,2.1-1.5,3.5-3.5,3.5s-3.5-1.5-3.5-3.5s1.5-3.5,3.5-3.5S471.2,116.5,471.2,118.5z M465.2,118.5
				c0,1.6,1,2.6,2.5,2.6s2.5-1,2.5-2.6c0-1.5-1-2.6-2.5-2.6S465.2,117,465.2,118.5z"/>
			<path d="M472.7,115l2.1,5.9l2.1-5.9h1l2.1,5.9l2.1-5.9h1l-2.6,6.9h-1l-2.1-5.7l-2.1,5.7h-0.9l-2.6-6.9H472.7z"/>
			<path d="M485.3,112.2v9.8h-1v-9.8H485.3z"/>
			<path d="M489.7,115.9c-0.7,0-1.3,0.3-1.3,0.9c0,1.6,3.8,0.7,3.8,3.2c0,1.3-1.2,1.9-2.5,1.9c-1,0-2.1-0.3-2.6-1l0.4-0.7
				c0.6,0.6,1.5,0.9,2.3,0.9s1.5-0.3,1.5-1c0-1.8-3.8-0.9-3.8-3.2c0-1.3,1.2-1.9,2.3-1.9c0.9,0,1.6,0.3,2.2,0.6l-0.4,0.7
				C491,116,490.5,115.9,489.7,115.9z"/>
			<path d="M494.6,121.5c0,0.1-0.1,0.4-0.1,0.6l-0.6,0.9h-0.6l0.4-0.9c-0.1-0.1-0.3-0.3-0.3-0.6c0-0.4,0.3-0.7,0.6-0.7
				C494.3,120.7,494.6,121,494.6,121.5z"/>
			<path d="M504.8,122v-1c-0.6,0.7-1.5,1.2-2.5,1.2c-1.5,0-2.3-0.9-2.3-2.1s1-2.1,2.6-2.1h2.3v-0.4c0-1-0.6-1.6-1.9-1.6
				c-0.7,0-1.5,0.3-2.2,0.7l-0.4-0.7c0.9-0.6,1.6-0.9,2.8-0.9c1.8,0,2.6,0.9,2.6,2.3v4.6H504.8z M504.8,119.5v-0.7h-2.2
				c-1.2,0-1.8,0.3-1.8,1.2c0,0.7,0.6,1.3,1.6,1.3C503.7,121.2,504.6,120.6,504.8,119.5z"/>
			<path d="M514.5,117.6v4.3h-1v-4c0-1.2-0.7-2.1-1.9-2.1c-1.3,0-2.2,0.9-2.3,2.2v3.7h-1.2v-6.9h1v1.5c0.4-1,1.5-1.6,2.6-1.6
				C513.5,115,514.5,116,514.5,117.6z"/>
			<path d="M523.2,112.2v9.8h-1v-1.5c-0.6,1-1.5,1.6-2.6,1.6c-2.1,0-3.4-1.5-3.4-3.5c0-2.1,1.3-3.5,3.4-3.5c1.2,0,2.2,0.6,2.8,1.6
				v-4.4h0.9V112.2z M522.2,118.5c0-1.5-1-2.6-2.5-2.6s-2.5,1.2-2.5,2.6s1,2.6,2.5,2.6C521.1,121.2,522.2,120,522.2,118.5z"/>
		</g>
		<g class="st7">
			<path d="M420.8,137.3c-0.4,0.3-1,0.6-1.6,0.6c-1,0-1.8-0.6-1.8-1.9v-4h-1v-0.7h1v-1.8h1v1.8h2.2v0.7h-2.2v3.8
				c0,0.9,0.3,1.2,0.9,1.2c0.3,0,0.7-0.1,1.2-0.3L420.8,137.3z"/>
			<path d="M425.8,130.9v1c-1.5,0-2.3,0.9-2.5,2.3v3.7h-1V131h1v1.6C423.9,131.4,424.7,130.9,425.8,130.9z"/>
			<path d="M433.3,134.8h-5.7c0.1,1.3,1.2,2.2,2.5,2.2c0.9,0,1.6-0.3,2.2-0.9l0.6,0.6c-0.6,0.7-1.6,1.2-2.8,1.2
				c-2.1,0-3.5-1.5-3.5-3.5c0-2.1,1.5-3.5,3.5-3.5C432.3,130.9,433.3,132.5,433.3,134.8z M432.3,133.9c0-1.3-1-2.2-2.3-2.2
				s-2.3,0.9-2.5,2.2H432.3z"/>
			<path d="M439.4,137.9v-1c-0.6,0.7-1.5,1.2-2.5,1.2c-1.5,0-2.3-0.9-2.3-2.1s1-2.1,2.6-2.1h2.3v-0.4c0-1-0.6-1.6-1.9-1.6
				c-0.7,0-1.5,0.3-2.2,0.7l-0.4-0.7c0.9-0.6,1.6-0.9,2.8-0.9c1.8,0,2.6,0.9,2.6,2.3v4.6H439.4z M439.4,135.4v-0.9h-2.2
				c-1.2,0-1.8,0.3-1.8,1.2c0,0.7,0.6,1.3,1.6,1.3C438.2,137,439.1,136.4,439.4,135.4z"/>
			<path d="M446.3,137.3c-0.4,0.3-1,0.6-1.6,0.6c-1,0-1.8-0.6-1.8-1.9v-4H442v-0.7h1v-1.8h1v1.8h2.2v0.7h-2.2v3.8
				c0,0.9,0.3,1.2,0.9,1.2c0.3,0,0.7-0.1,1.2-0.3L446.3,137.3z"/>
			<path d="M449.6,131.7c-0.7,0-1.3,0.3-1.3,0.9c0,1.6,3.8,0.7,3.8,3.2c0,1.3-1.2,1.9-2.5,1.9c-1,0-2.1-0.3-2.6-1l0.4-0.7
				c0.6,0.6,1.5,0.9,2.3,0.9s1.5-0.3,1.5-1c0-1.8-3.8-0.9-3.8-3.2c0-1.3,1.2-1.9,2.3-1.9c0.9,0,1.6,0.3,2.2,0.6l-0.4,0.7
				C451,131.9,450.2,131.7,449.6,131.7z"/>
			<path d="M459,128.9c0,0.4-0.3,0.7-0.7,0.7s-0.7-0.3-0.7-0.7c0-0.4,0.3-0.7,0.7-0.7S459,128.5,459,128.9z M458.9,130.9v6.9h-1
				v-6.9H458.9z"/>
			<path d="M467.7,133.5v4.3h-1v-4c0-1.2-0.7-2.1-1.9-2.1c-1.3,0-2.2,0.9-2.3,2.2v3.7h-1v-6.9h1v1.5c0.4-1,1.5-1.6,2.6-1.6
				C466.7,130.9,467.7,131.9,467.7,133.5z"/>
			<path d="M472.8,131.7c-1.5,0-2.5,1-2.5,2.6c0,1.6,1,2.6,2.5,2.6c0.9,0,1.6-0.3,2.2-0.9l0.6,0.6c-0.6,0.7-1.6,1.2-2.8,1.2
				c-2.1,0-3.5-1.5-3.5-3.5c0-2.1,1.5-3.5,3.5-3.5c1.2,0,2.1,0.4,2.6,1l-0.6,0.7C474.3,132,473.6,131.7,472.8,131.7z"/>
			<path d="M478.6,128.1v9.8h-1v-9.8H478.6z"/>
			<path d="M487.1,130.9v6.9h-1v-1.6c-0.4,1-1.3,1.6-2.6,1.6c-1.6,0-2.6-1-2.6-2.6v-4.3h1v4c0,1.2,0.7,2.1,1.9,2.1
				c1.5,0,2.3-1,2.3-2.6v-3.4L487.1,130.9L487.1,130.9z"/>
			<path d="M496,128.1v9.8h-1v-1.5c-0.6,1-1.5,1.6-2.6,1.6c-2.1,0-3.4-1.5-3.4-3.5c0-2.1,1.3-3.5,3.4-3.5c1.2,0,2.2,0.6,2.8,1.6
				v-4.4h0.9V128.1z M495,134.4c0-1.5-1-2.6-2.5-2.6s-2.5,1.2-2.5,2.6s1,2.6,2.5,2.6S495,135.8,495,134.4z"/>
			<path d="M504.6,134.8h-5.7c0.1,1.3,1.2,2.2,2.5,2.2c0.9,0,1.6-0.3,2.2-0.9l0.6,0.6c-0.7,0.7-1.6,1.2-2.8,1.2
				c-2.1,0-3.5-1.5-3.5-3.5c0-2.1,1.5-3.5,3.4-3.5C503.7,130.9,504.7,132.5,504.6,134.8z M503.7,133.9c0-1.3-1-2.2-2.3-2.2
				s-2.3,0.9-2.5,2.2H503.7z"/>
			<path d="M512.8,128.1v9.8h-1v-1.5c-0.6,1-1.5,1.6-2.6,1.6c-1.9,0-3.4-1.5-3.4-3.5c0-2.1,1.3-3.5,3.4-3.5c1.2,0,2.2,0.6,2.8,1.6
				v-4.4h0.9V128.1z M511.7,134.4c0-1.5-1-2.6-2.5-2.6s-2.5,1.2-2.5,2.6s1,2.6,2.5,2.6S511.7,135.8,511.7,134.4z"/>
		</g>
	</g>
	<g class="st7">
		<path d="M239,120.7v0.9l-4.1,8.4h-1.2l4.1-8.2h-4.7v1.3h-0.9v-2.3H239z"/>
		<path d="M243.5,124.2c2.1,0,3.4,1.2,3.4,2.8c0,1.9-1.3,3.1-3.4,3.1c-1,0-2.3-0.4-3.2-1l0.4-0.9c0.7,0.6,1.9,0.9,2.8,0.9
			c1.5,0,2.5-0.7,2.5-2.1c0-1.2-0.9-1.8-2.3-1.8c-0.6,0-1.8,0.1-2.5,0.3v-4.7h5.7v1h-4.7v2.6C242.4,124.2,243.1,124.2,243.5,124.2z"
			/>
		<path d="M254,120.1v9.8h-1v-9.8H254z"/>
		<path d="M263.7,126.6c0,2.1-1.3,3.5-3.4,3.5c-1.2,0-2.2-0.6-2.6-1.5v1.5h-1v-9.8h1v4.4c0.6-1,1.5-1.5,2.6-1.5
			C262.3,123.1,263.7,124.5,263.7,126.6z M262.6,126.4c0-1.5-1-2.6-2.5-2.6s-2.5,1-2.5,2.6c0,1.5,1,2.6,2.5,2.6
			S262.6,128.1,262.6,126.4z"/>
		<path d="M267.3,123.8c-0.7,0-1.3,0.3-1.3,0.9c0,1.6,3.8,0.7,3.8,3.2c0,1.3-1.2,1.9-2.5,1.9c-1,0-2.1-0.3-2.6-1l0.4-0.7
			c0.6,0.6,1.5,0.9,2.3,0.9s1.5-0.3,1.5-1c0-1.8-3.8-0.9-3.8-3.2c0-1.3,1.2-1.9,2.3-1.9c0.9,0,1.6,0.3,2.2,0.6l-0.4,0.7
			C268.7,124.1,267.9,123.8,267.3,123.8z"/>
		<path d="M272.2,129.4c0,0.4-0.3,0.7-0.6,0.7c-0.4,0-0.6-0.3-0.6-0.7c0-0.4,0.3-0.7,0.6-0.7C271.9,128.8,272.2,129.1,272.2,129.4z"
			/>
		<path d="M284.1,126.9h-5.7c0.1,1.3,1.2,2.2,2.5,2.2c0.9,0,1.6-0.3,2.2-0.9l0.6,0.6c-0.7,0.7-1.6,1.2-2.8,1.2
			c-2.1,0-3.5-1.5-3.5-3.5s1.5-3.5,3.4-3.5C283,123.1,284.2,124.5,284.1,126.9z M283.2,126.2c0-1.3-1-2.2-2.3-2.2s-2.3,0.9-2.5,2.2
			H283.2z"/>
		<path d="M290.2,130v-1c-0.6,0.7-1.5,1.2-2.5,1.2c-1.5,0-2.3-0.9-2.3-2.1s1-2.1,2.6-2.1h2.3v-0.4c0-1-0.6-1.6-1.9-1.6
			c-0.7,0-1.5,0.3-2.2,0.7l-0.4-0.7c0.9-0.6,1.6-0.9,2.8-0.9c1.8,0,2.6,0.9,2.6,2.3v4.6H290.2z M290.2,127.6v-0.9H288
			c-1.2,0-1.8,0.3-1.8,1.2c0,0.7,0.6,1.3,1.6,1.3C289.1,129.2,289.9,128.7,290.2,127.6z"/>
		<path d="M296.3,124c-1.5,0-2.5,1-2.5,2.6c0,1.6,1,2.6,2.5,2.6c0.9,0,1.6-0.3,2.2-0.9l0.6,0.6c-0.6,0.7-1.6,1.2-2.8,1.2
			c-2.1,0-3.5-1.5-3.5-3.5c0-2.1,1.5-3.5,3.5-3.5c1.2,0,2.1,0.4,2.6,1l-0.6,0.7C297.9,124.2,297.1,124,296.3,124z"/>
		<path d="M307.4,125.7v4.3h-1v-4c0-1.2-0.7-2.1-1.9-2.1c-1.5,0-2.3,1-2.3,2.6v3.4h-1v-9.8h1v4.4c0.4-1,1.5-1.6,2.6-1.6
			C306.4,123.1,307.4,124.1,307.4,125.7z"/>
	</g>
	<g>
		<path class="st15" d="M394.4,136.6h-22.4l0.4-5.7c0.1-0.7,0.6-1.3,1.3-1.3h18.9c0.7,0,1.3,0.5,1.3,1.3L394.4,136.6z M394.4,136.6"
			/>
		<path class="st16" d="M394.4,136.6h-11.2v-7h9.5c0.7,0,1.3,0.5,1.3,1.3L394.4,136.6z M394.4,136.6"/>
		<path class="st17" d="M396.5,137.1c0,0.4-0.2,0.7-0.4,1c-0.3,0.3-0.6,0.4-1,0.4h-23.9c-0.8,0-1.4-0.6-1.4-1.4
			c0-0.8,0.6-1.4,1.4-1.4h23.9C395.9,135.7,396.5,136.3,396.5,137.1L396.5,137.1z M396.5,137.1"/>
		<path class="st18" d="M396.5,137.1c0,0.8-0.6,1.4-1.4,1.4h-11.9v-2.8h11.9C395.9,135.7,396.5,136.3,396.5,137.1L396.5,137.1z
			 M396.5,137.1"/>
		<path class="st17" d="M387.8,132.6c0,0.4-0.4,0.8-0.8,0.8h-7.8c-0.4,0-0.8-0.4-0.8-0.8c0-0.4,0.4-0.8,0.8-0.8h7.8
			C387.5,131.9,387.8,132.2,387.8,132.6L387.8,132.6z M387.8,132.6"/>
		<path class="st18" d="M387.8,132.6c0,0.4-0.4,0.8-0.8,0.8h-3.9v-1.6h3.9C387.5,131.9,387.8,132.2,387.8,132.6L387.8,132.6z
			 M387.8,132.6"/>
		<path class="st19" d="M388,125.3c-0.1,0-0.2,0.1-0.2,0.2c-0.2,1.7-2.3,2.4-3.5,1.3c-0.9-0.8-0.9-2.1-0.2-2.9
			c0.1-0.1,0.1-0.3,0-0.4l-4.2-4.2c-0.1-0.1-0.3-0.1-0.4,0c-0.9,0.7-2.2,0.7-2.9-0.2c-1.2-1.3-0.3-3.5,1.5-3.5
			c0.1-1.8,2.2-2.7,3.5-1.5c0.9,0.8,0.9,2.1,0.2,2.9c-0.1,0.1-0.1,0.3,0,0.4l4.2,4.2c0.1,0.1,0.3,0.1,0.4,0c0.9-0.7,2.2-0.7,2.9,0.2
			C390.4,123.1,389.6,125.1,388,125.3L388,125.3z M388,125.3"/>
		<path class="st20" d="M388,125.3c-0.1,0-0.2,0.1-0.2,0.2c-0.2,1.7-2.3,2.4-3.5,1.3c-0.9-0.8-0.9-2.1-0.2-2.9
			c0.1-0.1,0.1-0.3,0-0.4l-0.9-0.9v-3.9l2.8,2.8c0.1,0.1,0.3,0.1,0.4,0c0.9-0.7,2.2-0.7,2.9,0.2C390.4,123.1,389.6,125.1,388,125.3
			L388,125.3z M388,125.3"/>
		<path class="st21" d="M384.7,111.8c-0.4,0-0.8,0.4-0.8,0.8v0.5c0,0.4,0.4,0.8,0.8,0.8c0.4,0,0.8-0.4,0.8-0.8v-0.5
			C385.5,112.1,385.1,111.8,384.7,111.8L384.7,111.8z M384.7,111.8"/>
		<path class="st21" d="M387.1,115.4c-0.4,0-0.8,0.4-0.8,0.8v0.5c0,0.4,0.4,0.8,0.8,0.8c0.4,0,0.8-0.4,0.8-0.8v-0.5
			C387.9,115.8,387.5,115.4,387.1,115.4L387.1,115.4z M387.1,115.4"/>
		<path class="st21" d="M390.6,119.5c0.4,0,0.8-0.4,0.8-0.8v-0.5c0-0.4-0.4-0.8-0.8-0.8s-0.8,0.4-0.8,0.8v0.5
			C389.8,119.1,390.1,119.5,390.6,119.5L390.6,119.5z M390.6,119.5"/>
		<path class="st22" d="M380,122.4c-0.4,0-0.8,0.4-0.8,0.8v0.5c0,0.4,0.4,0.8,0.8,0.8c0.4,0,0.8-0.4,0.8-0.8v-0.5
			C380.8,122.7,380.4,122.4,380,122.4L380,122.4z M380,122.4"/>
		<path class="st22" d="M376,124.3c-0.4,0-0.8,0.4-0.8,0.8v0.5c0,0.4,0.4,0.8,0.8,0.8c0.4,0,0.8-0.4,0.8-0.8v-0.5
			C376.8,124.7,376.5,124.3,376,124.3L376,124.3z M376,124.3"/>
		<path class="st22" d="M378.5,127c-0.4,0-0.8,0.4-0.8,0.8v0.5c0,0.4,0.4,0.8,0.8,0.8c0.4,0,0.8-0.4,0.8-0.8v-0.5
			C379.2,127.3,378.9,127,378.5,127L378.5,127z M378.5,127"/>
		<path class="st21" d="M390.3,125.7c-0.4,0-0.8,0.4-0.8,0.8v0.5c0,0.4,0.4,0.8,0.8,0.8c0.4,0,0.8-0.4,0.8-0.8v-0.5
			C391.1,126.1,390.7,125.7,390.3,125.7L390.3,125.7z M390.3,125.7"/>
	</g>
	<g>
		<path class="st23" d="M188.8,73.7h20c1.1,0,2,0.9,2,2v2.4c0,1.1-0.9,2-2,2h-20c-1.1,0-2-0.9-2-2v-2.4
			C186.8,74.6,187.7,73.7,188.8,73.7L188.8,73.7z M188.8,73.7"/>
		<path class="st24" d="M193.2,75.9l12.5-3.3c0.4-0.1,0.9,0.1,1,0.6l2.1,7.7c0.1,0.4-0.1,0.9-0.6,1l-16.3,4.3
			c-0.4,0.1-0.9-0.1-1-0.6l-1.5-5.6L193.2,75.9z M193.2,75.9"/>
		<g>
			<defs>
				<rect id="SVGID_10_" x="186.8" y="70.9" width="25.7" height="22.9"/>
			</defs>
			<clipPath id="SVGID_11_">
				<use xlink:href="#SVGID_10_"  style="overflow:visible;"/>
			</clipPath>
			<path class="st25" d="M206.6,80.6l-2.7,0.7c-0.2,0.1-0.4-0.1-0.5-0.3c-0.1-0.2,0.1-0.4,0.3-0.5l2.3-0.6l-1.2-4.6l-2.3,0.6
				c-0.2,0.1-0.4-0.1-0.5-0.3c-0.1-0.2,0.1-0.4,0.3-0.5l2.7-0.7c0.2-0.1,0.4,0.1,0.5,0.3l1.4,5.4C206.9,80.3,206.8,80.5,206.6,80.6
				L206.6,80.6z M195.4,83.6l-2.7,0.7c-0.2,0.1-0.4-0.1-0.5-0.3l-1.4-5.4c-0.1-0.2,0.1-0.4,0.3-0.5l2.7-0.7c0.2-0.1,0.4,0.1,0.5,0.3
				c0.1,0.2-0.1,0.4-0.3,0.5l-2.3,0.6l1.2,4.6l2.3-0.6c0.2-0.1,0.4,0.1,0.5,0.3C195.7,83.3,195.6,83.5,195.4,83.6L195.4,83.6z
				 M195.4,83.6"/>
			<path class="st26" d="M187,78.7c3.6-2,13.2-7.7,13.2-7.7c0.4-0.2,0.9-0.1,1.1,0.3l4,6.9c0.2,0.4,0.1,0.9-0.3,1.1l-14.7,8.4
				c-0.4,0.2-0.9,0.1-1.1-0.3c0,0-1.1-2.3-2.2-4.2C186.9,78.7,187,80.2,187,78.7L187,78.7z M187,78.7"/>
		</g>
		<path class="st27" d="M203.2,77.9l-2.8-4.8c-0.1-0.2-0.4-0.3-0.5-0.1l-2.4,1.4c-0.2,0.1-0.3,0.4-0.1,0.5c0.1,0.2,0.4,0.3,0.5,0.1
			l2.1-1.2l2.4,4.2l-2.1,1.2c-0.2,0.1-0.3,0.4-0.1,0.5c0.1,0.2,0.4,0.3,0.5,0.1l2.4-1.4C203.2,78.4,203.3,78.1,203.2,77.9
			L203.2,77.9z M192.6,83.6l-2.1,1.2l-2.4-4.2l2.1-1.2c0.2-0.1,0.3-0.4,0.1-0.5c-0.1-0.2-0.4-0.3-0.5-0.1l-2.4,1.4
			c-0.2,0.1-0.3,0.4-0.1,0.5l2.8,4.8c0.1,0.2,0.4,0.3,0.5,0.1l2.4-1.4c0.2-0.1,0.3-0.4,0.1-0.5C193,83.6,192.8,83.5,192.6,83.6
			L192.6,83.6z M193.6,76.5c-1.5,0.9-2.1,2.8-1.2,4.4c0.9,1.5,2.8,2.1,4.4,1.2c1.5-0.9,2.1-2.8,1.2-4.4
			C197.1,76.2,195.2,75.7,193.6,76.5L193.6,76.5z M203.2,77.9l-2.8-4.8c-0.1-0.2-0.4-0.3-0.5-0.1l-2.4,1.4c-0.2,0.1-0.3,0.4-0.1,0.5
			c0.1,0.2,0.4,0.3,0.5,0.1l2.1-1.2l2.4,4.2l-2.1,1.2c-0.2,0.1-0.3,0.4-0.1,0.5c0.1,0.2,0.4,0.3,0.5,0.1l2.4-1.4
			C203.2,78.4,203.3,78.1,203.2,77.9L203.2,77.9z M192.6,83.6l-2.1,1.2l-2.4-4.2l2.1-1.2c0.2-0.1,0.3-0.4,0.1-0.5
			c-0.1-0.2-0.4-0.3-0.5-0.1l-2.4,1.4c-0.2,0.1-0.3,0.4-0.1,0.5l2.8,4.8c0.1,0.2,0.4,0.3,0.5,0.1l2.4-1.4c0.2-0.1,0.3-0.4,0.1-0.5
			C193,83.6,192.8,83.5,192.6,83.6L192.6,83.6z M193.6,76.5c-1.5,0.9-2.1,2.8-1.2,4.4c0.9,1.5,2.8,2.1,4.4,1.2
			c1.5-0.9,2.1-2.8,1.2-4.4C197.1,76.2,195.2,75.7,193.6,76.5L193.6,76.5z M193.6,76.5"/>
		<path class="st28" d="M209.6,93.7h-20.8c-1.1,0-2-0.9-2-2V77.3h22.8c1.1,0,2,0.9,2,2v12.4C211.6,92.8,210.7,93.7,209.6,93.7
			L209.6,93.7z M188.4,77.3h-1.6v-1.6C186.8,76.6,187.5,77.3,188.4,77.3L188.4,77.3z M188.4,77.3"/>
		<path class="st23" d="M211.6,88.7h-3.2c-1.5,0-2.8-1.3-2.8-2.8c0-1.5,1.3-2.8,2.8-2.8h3.2c0.4,0,0.8,0.4,0.8,0.8v4
			C212.4,88.4,212.1,88.7,211.6,88.7L211.6,88.7z M211.6,88.7"/>
		<path class="st29" d="M208.4,84.3c0.9,0,1.6,0.7,1.6,1.6c0,0.9-0.7,1.6-1.6,1.6s-1.6-0.7-1.6-1.6
			C206.8,85.1,207.5,84.3,208.4,84.3L208.4,84.3z M208.4,84.3"/>
		<path class="st30" d="M208.8,87.1c-0.9,0-1.6-0.7-1.6-1.6c0-0.3,0.1-0.7,0.3-0.9c-0.4,0.3-0.7,0.8-0.7,1.3c0,0.9,0.7,1.6,1.6,1.6
			c0.5,0,1-0.3,1.3-0.7C209.5,87,209.2,87.1,208.8,87.1L208.8,87.1z M208.8,87.1"/>
		<path class="st31" d="M209.6,92.9h-20.8c-1.1,0-2-0.9-2-2v0.8c0,1.1,0.9,2,2,2h20.8c1.1,0,2-0.9,2-2v-0.8
			C211.6,92,210.7,92.9,209.6,92.9L209.6,92.9z M209.6,92.9"/>
		<path class="st32" d="M209.6,77.3h-21.2c-0.9,0-1.6-0.7-1.6-1.6v0.8c0,0.9,0.7,1.6,1.6,1.6h21.2c1.1,0,2,0.9,2,2v-0.8
			C211.6,78.2,210.7,77.3,209.6,77.3L209.6,77.3z M209.6,77.3"/>
	</g>
	<g>
		<path class="st33" d="M207.8,115h-4c-1.4,0.6-1.8-0.4-4.8-0.4c-3,0-3.3,1-4.8,0.4h-4l-0.5,9.9c0.3,3.9,2.8,6,4.7,6.8h9.1
			c1.9-0.8,4.3-2.9,4.7-6.8L207.8,115z"/>
		<path class="st34" d="M203.8,115c4.5,1.3,2,8.2,4.9,11.2c0.4,0.4,1.1,0.2,1.3-0.3c0.2-0.8,0.5-1.9,0.4-3.6c0-2.3,0.9-2.5,0.9-2.5
			s-1.2-5.5-4.8-5.5C205.4,114.2,203.8,115,203.8,115z"/>
		<path class="st35" d="M194.9,125.3L194.9,125.3c-0.8,0-1.4-0.6-1.4-1.4v-0.8c0-0.8,0.6-1.4,1.4-1.4l0,0c0.8,0,1.4,0.6,1.4,1.4v0.8
			C196.3,124.7,195.7,125.3,194.9,125.3z"/>
		<path class="st36" d="M194.9,121.8c-0.1,0-0.1,0-0.2,0v2c0,0.4,0.4,0.8,0.8,0.8c0.4,0,0.8-0.4,0.8-0.8v-0.6
			C196.3,122.4,195.7,121.8,194.9,121.8z"/>
		<circle class="st1" cx="194.9" cy="122.8" r="0.6"/>
		<path class="st35" d="M203.2,125.3L203.2,125.3c-0.8,0-1.4-0.6-1.4-1.4v-0.8c0-0.8,0.6-1.4,1.4-1.4l0,0c0.8,0,1.4,0.6,1.4,1.4v0.8
			C204.6,124.7,204,125.3,203.2,125.3z"/>
		<path class="st36" d="M203.2,121.8c-0.1,0-0.1,0-0.2,0v2c0,0.4,0.4,0.8,0.8,0.8c0.4,0,0.8-0.4,0.8-0.8v-0.6
			C204.6,122.4,204,121.8,203.2,121.8z"/>
		<circle class="st1" cx="203.2" cy="122.8" r="0.6"/>
		<path class="st37" d="M208.7,126.2c0.4,0.4,1.1,0.2,1.3-0.3c0.1-0.4,0.3-1,0.3-1.7c-0.8-0.4-1.4-1.6-1.9-3.7
			c-0.7-3.8-1.8-5.9-4.7-5.4C208.3,116.4,205.9,123.2,208.7,126.2z"/>
		<path class="st38" d="M194.5,131.8h1.9c0,0-3.3-2.2-3.8-6.1c-1.1-7.6,1-9.9,2.7-10.5c-0.3,0-0.6,0-0.9-0.2h-4l-0.5,9.9
			C190.2,128.9,192.6,131,194.5,131.8z"/>
		<path class="st34" d="M194.3,115c-4.5,1.3-2,8.2-4.9,11.2c-0.4,0.4-1.1,0.2-1.3-0.3c-0.2-0.8-0.5-1.9-0.4-3.6
			c0-2.3-0.9-2.5-0.9-2.5s1.2-5.5,4.8-5.5C192.7,114.2,194.3,115,194.3,115z"/>
		<path class="st37" d="M194.2,115c-0.4-0.2-1.7-0.7-2.6-0.7c-3.6,0-4.8,5.5-4.8,5.5s0.9,0.1,0.9,2.5c0,0,0,0.1,0,0.1
			C190,113.7,193.5,114.7,194.2,115z"/>
		<ellipse class="st39" cx="199.1" cy="132.1" rx="4.4" ry="3.2"/>
		<path class="st40" d="M199.1,135.6"/>
		<path class="st41" d="M197.1,132.1v2c0,1.1,0.9,2,2,2c1.1,0,2-0.9,2-2v-2H197.1z"/>
		<path class="st42" d="M197.1,133.6c0.6-0.1,1.1-0.2,1.6-0.5v0.5c0,0.2,0.2,0.4,0.4,0.4c0.2,0,0.4-0.2,0.4-0.4v-0.6
			c0.5,0.3,1,0.4,1.6,0.5v-1.5h-4V133.6z"/>
		<path class="st43" d="M201.6,128.5h-5.1c-1.6,0-3,1-3,2.2c0,1.2,1.3,2.2,3,2.2c0.8,0,1.6-0.2,2.1-0.6c0.1-0.1,0.3-0.2,0.5-0.2
			c0.2,0,0.3,0.1,0.5,0.2c0.5,0.4,1.3,0.6,2.1,0.6c1.6,0,3-1,3-2.2C204.6,129.5,203.3,128.5,201.6,128.5z"/>
		<path class="st36" d="M199.1,126.9c1.3,0,2.4,0.7,2.4,1.6c0,0.8-1,1.3-1.7,1.6c-0.4,0.2-0.9,0.2-1.3,0c-0.7-0.3-1.7-0.8-1.7-1.6
			C196.7,127.6,197.8,126.9,199.1,126.9z"/>
		<path class="st35" d="M197.9,128.1c-0.1-0.5,0.3-1,0.3-1c-0.9,0.2-1.5,0.8-1.5,1.5c0,0.8,1,1.3,1.7,1.6c0.4,0.2,0.9,0.2,1.3,0
			c0.2-0.1,0.3-0.1,0.5-0.2C199.2,129.7,198,129.1,197.9,128.1z"/>
	</g>
</g>
</svg>
