<svg xmlns="http://www.w3.org/2000/svg" viewBox="0 0 36.12 95"><defs><style>.cls-1{fill:#bf6b16;}.cls-2{fill:none;stroke:#cad8d9;stroke-linecap:round;stroke-linejoin:round;stroke-width:2px;}.cls-3{fill:#c82226;}.cls-4{fill:#ebfbfc;}</style></defs><g id="Layer_2" data-name="Layer 2"><g id="Layer_2-2" data-name="Layer 2"><rect class="cls-1" x="9.07" y="26.38" width="17.99" height="67.62"/><rect class="cls-2" x="13.23" y="26.38" width="9.66" height="67.62"/><line class="cls-2" x1="18.06" y1="26.38" x2="18.06" y2="94"/><line class="cls-2" x1="35.12" y1="94" x2="1" y2="94"/><path class="cls-3" d="M35.27,17.21c0,.26,0,.51,0,.76a16.59,16.59,0,0,1-.68,4.13c-.15.52-.33,1-.53,1.53a17,17,0,0,1-2.38,4.13A17.19,17.19,0,0,1,5.8,29.28a15.9,15.9,0,0,1-1.33-1.52,17,17,0,0,1-2.38-4.13c-.2-.5-.37-1-.53-1.53A16.59,16.59,0,0,1,.88,18c0-.25,0-.5,0-.76s0-.51,0-.77a16.15,16.15,0,0,1,.69-4.13,13,13,0,0,1,.53-1.52A16.73,16.73,0,0,1,4.47,6.66,15.9,15.9,0,0,1,5.8,5.14,17.15,17.15,0,0,1,31.65,6.66,16.73,16.73,0,0,1,34,10.79a11.38,11.38,0,0,1,.53,1.52,16.15,16.15,0,0,1,.69,4.13C35.26,16.7,35.27,17,35.27,17.21Z"/><path class="cls-4" d="M31.65,6.66H4.47A15.9,15.9,0,0,1,5.8,5.14H30.33A17.32,17.32,0,0,1,31.65,6.66Z"/><path class="cls-4" d="M34.55,12.31h-33a13,13,0,0,1,.53-1.52H34A11.38,11.38,0,0,1,34.55,12.31Z"/><path class="cls-4" d="M35.27,17.21c0,.26,0,.51,0,.76H.88c0-.25,0-.5,0-.76s0-.51,0-.77H35.24C35.26,16.7,35.27,17,35.27,17.21Z"/><path class="cls-4" d="M34.56,22.1c-.15.52-.33,1-.53,1.53H2.09c-.2-.5-.37-1-.53-1.53Z"/><path class="cls-4" d="M31.65,27.76a17.32,17.32,0,0,1-1.32,1.52H5.8a15.9,15.9,0,0,1-1.33-1.52Z"/></g></g></svg>