<svg xmlns="http://www.w3.org/2000/svg" viewBox="0 0 94 74.89"><defs><style>.cls-1{fill:#2f9004;}.cls-2{fill:#4dd2f5;}.cls-3{fill:#f8a21b;}.cls-4{fill:#bf6b16;}.cls-5{fill:#54a735;}</style></defs><g id="Layer_2" data-name="Layer 2"><g id="Layer_2-2" data-name="Layer 2"><path class="cls-1" d="M94,50.4c0,13.52-21,24.49-47,24.49-19.93,0-37-6.47-43.8-15.59A14.74,14.74,0,0,1,0,50.4C0,36.88,21,25.91,47,25.91c1.47,0,2.93,0,4.37.11C75.27,27.16,94,37.65,94,50.4Z"/><path class="cls-2" d="M81.76,46.8c-1.26,4.39-5,7.74-9.29,9.43S63.56,58.17,59,58s-9.13-.63-13.69-.35c-5.6.35-11.06,1.87-16.53,3.13s-11.12,2.25-16.7,1.53a22.47,22.47,0,0,1-8.87-3A14.74,14.74,0,0,1,0,50.4c0-9.56,10.53-17.85,25.88-21.88a9.06,9.06,0,0,0,3.39.41c1.83-.13,3.6-.82,5.43-.9C39,27.84,43,31,47.34,30.84h0a17.79,17.79,0,0,1,13.87,1.31,15,15,0,0,0,3.94,1.53c3.93.88,8.26-.26,11.9,1.45C81.19,37.07,83,42.42,81.76,46.8Z"/><path class="cls-3" d="M65.67,65.12a24.26,24.26,0,0,0,14.6-4.22c4.16-3,7-8.1,6.66-13.24a10,10,0,0,0-2.55-6.25,6.79,6.79,0,0,0-6.25-2.07,5.2,5.2,0,0,0-4.06,4.9,7.6,7.6,0,0,1,0,2.89,3.06,3.06,0,0,1-3.25,1.62,25.06,25.06,0,0,1-3.77-1,4,4,0,0,0-3.71.55c-1.26,1.14-1,3.14-.69,4.81s.6,3.65-.62,4.84-3.17.89-4.7.22c-2.53-1.11-5.25-2.84-7.74-.59-1.48,1.33-1.51,2.86.07,4s4.08,1.71,6.07,2.19A45.48,45.48,0,0,0,65.67,65.12Z"/><path class="cls-4" d="M24,47.85V65.12a6.79,6.79,0,0,1-6.46,0V47.85Z"/><path class="cls-5" d="M37.77,53.2Q20,63.31,3.72,53.2c8.82-6.17,11.34-13.48,17-19.65C26.42,39.72,29,47,37.77,53.2Z"/><path class="cls-1" d="M37.77,43.84Q20,53.94,3.72,43.84c8.82-6.18,11.34-13.48,17-19.65C26.42,30.36,29,37.66,37.77,43.84Z"/><path class="cls-5" d="M37.77,34.47Q20,44.58,3.72,34.47c8.82-6.17,11.34-13.47,17-19.65C26.42,21,29,28.3,37.77,34.47Z"/><path class="cls-4" d="M47,18.51v9.67a3.81,3.81,0,0,1-3.62,0V18.51Z"/><path class="cls-5" d="M54.73,21.5q-10,5.67-19.08,0c4.94-3.45,6.36-7.55,9.54-11C48.37,14,49.79,18.05,54.73,21.5Z"/><path class="cls-1" d="M54.73,16.26q-10,5.65-19.08,0c4.94-3.46,6.36-7.55,9.54-11C48.37,8.71,49.79,12.8,54.73,16.26Z"/><path class="cls-5" d="M54.73,11q-10,5.67-19.08,0C40.59,7.55,42,3.46,45.19,0,48.37,3.46,49.79,7.55,54.73,11Z"/><path class="cls-4" d="M84.73,31.8V38a2.46,2.46,0,0,1-2.3,0V31.8Z"/><path class="cls-5" d="M89.64,33.7q-6.35,3.6-12.13,0c3.14-2.19,4-4.79,6.07-7C85.6,28.91,86.5,31.51,89.64,33.7Z"/><path class="cls-1" d="M89.64,30.37q-6.35,3.6-12.13,0c3.14-2.2,4-4.8,6.07-7C85.6,25.57,86.5,28.17,89.64,30.37Z"/><path class="cls-5" d="M89.64,27q-6.35,3.6-12.13,0c3.14-2.2,4-4.8,6.07-7C85.6,22.24,86.5,24.84,89.64,27Z"/><path class="cls-4" d="M66.79,25.45v6.2a2.43,2.43,0,0,1-2.31,0v-6.2Z"/><path class="cls-5" d="M73.6,22.45A2.59,2.59,0,0,1,71,25a2.65,2.65,0,0,1-.89-.16v.17a2.59,2.59,0,0,1-4.47,1.78,2.6,2.6,0,0,1-4.48-1.78v-.17a2.65,2.65,0,0,1-.89.16A2.59,2.59,0,0,1,60,19.88a2.68,2.68,0,0,1-.22-1.06,2.59,2.59,0,0,1,2.59-2.6,2.54,2.54,0,0,1,1.34.37,2.59,2.59,0,0,1,4.5-.25,2.56,2.56,0,0,1,.79-.12,2.59,2.59,0,0,1,2.59,2.6,2.68,2.68,0,0,1-.22,1.06A2.59,2.59,0,0,1,73.6,22.45Z"/></g></g></svg>