<svg xmlns="http://www.w3.org/2000/svg" viewBox="0 0 73.83 94"><defs><style>.cls-1{fill:#060606;}.cls-2{fill:#1c1c1c;}.cls-3{fill:#cad8d9;}.cls-4{fill:#efefef;}.cls-5{fill:#222;}.cls-6{fill:#ebfbfc;}.cls-7{fill:#f8a21b;}</style></defs><g id="Layer_2" data-name="Layer 2"><g id="Layer_2-2" data-name="Layer 2"><path class="cls-1" d="M69.12,46.7V89a5,5,0,0,1-5.05,5H13.21a5,5,0,0,1-5-5V46.7Z"/><rect class="cls-2" x="3.45" y="32.48" width="70.38" height="14.22" rx="2.02"/><path class="cls-3" d="M20.22,32.48,6,46.7H5.47a2,2,0,0,1-2-2V40.74l8.26-8.26Z"/><polygon class="cls-4" points="35.11 32.48 20.89 46.7 12.39 46.7 26.61 32.48 35.11 32.48"/><polygon class="cls-4" points="50 32.48 35.78 46.7 27.29 46.7 41.5 32.48 50 32.48"/><polygon class="cls-4" points="64.9 32.48 50.67 46.7 42.17 46.7 56.4 32.48 64.9 32.48"/><path class="cls-4" d="M73.83,34.5v3.93L65.57,46.7H57.06L71.29,32.48h.52A2,2,0,0,1,73.83,34.5Z"/><rect class="cls-2" x="0.06" y="9.36" width="70.38" height="14.22" rx="2.02" transform="translate(-3.25 10.88) rotate(-16.78)"/><path class="cls-4" d="M15.56,15,6.05,32.7l-.5.15A2,2,0,0,1,3,31.5L1.89,27.73l5.52-10.3Z"/><polygon class="cls-4" points="29.82 10.68 20.3 28.4 12.17 30.86 21.68 13.13 29.82 10.68"/><polygon class="cls-4" points="44.07 6.38 34.57 24.1 26.43 26.55 35.93 8.84 44.07 6.38"/><polygon class="cls-4" points="58.33 2.08 48.82 19.8 40.69 22.26 50.2 4.54 58.33 2.08"/><path class="cls-4" d="M67.47,1.44,68.61,5.2,63.09,15.5,54.94,18,64.45.24,65,.09A2,2,0,0,1,67.47,1.44Z"/><path class="cls-5" d="M25.19,30.93V42a4.69,4.69,0,0,1-4.69,4.69H4.69A4.69,4.69,0,0,1,0,42V22.66A4.7,4.7,0,0,1,4.69,18h7.54A13,13,0,0,1,25.19,30.93Z"/><circle class="cls-6" cx="11.84" cy="32.35" r="5.73" transform="translate(-11.48 6.99) rotate(-22.5)"/><circle class="cls-3" cx="11.84" cy="32.35" r="2.74" transform="translate(-11.48 6.99) rotate(-22.5)"/><polygon class="cls-7" points="45.29 73.84 46.87 83 38.64 78.67 30.42 83 31.99 73.84 25.34 67.36 34.53 66.03 38.64 57.7 42.75 66.03 51.94 67.36 45.29 73.84"/></g></g></svg>