<svg xmlns="http://www.w3.org/2000/svg" viewBox="0 0 106.34 94"><defs><style>.cls-1{fill:#32adf2;}.cls-2{fill:#e23e21;}.cls-3{fill:#fbcca4;}.cls-4{fill:#fcbd8d;}.cls-5{fill:#54a735;}</style></defs><g id="Layer_2" data-name="Layer 2"><g id="Layer_2-2" data-name="Layer 2"><path class="cls-1" d="M39.2,67.66c3.95-2.13,7.4-5.23,11.65-6.66,11.18-3.76,23.52,5.17,34.9,2,4.17-1.15,8-3.9,12.35-3.58a8.94,8.94,0,0,1,5.25,15.61,18.05,18.05,0,0,1-5.12,2.84L77.8,86.41c-4.56,1.9-9.2,3.83-14.12,4.34-8.84.91-18-2.8-26.48-.09-3.62,1.15-7,3.47-10.82,3.33-4.6-.16-8.22-3.82-11.32-7.24A28,28,0,0,1,10.67,81c-3.09-5.93.31-12.76,7.19-11.28C25.23,71.33,32.37,71.34,39.2,67.66Z"/><path class="cls-2" d="M26.3,77C64.13,58.5,92,49.14,102,56.18c-2.53,11.45-31.56,20.75-72.82,29a3,3,0,0,1-3.43-1.94l-.93-2.6A3,3,0,0,1,26.3,77Z"/><path class="cls-3" d="M38.27,75.27,41,71.92,26,63.39a5.9,5.9,0,0,1-2-8.33L34.63,38.57A43.71,43.71,0,0,1,31.73,17a135.06,135.06,0,0,1-23-.52H3.33A.43.43,0,0,1,3,15.79H3a.44.44,0,0,0-.14-.59L.21,13.62a.42.42,0,0,1,0-.74l1.42-.74a.45.45,0,0,1,.32,0l6.37,2a.5.5,0,0,0,.21,0A176.64,176.64,0,0,1,34.9,10.54a10.5,10.5,0,0,1,4.53.81l7.26,3.07a11,11,0,0,1,3.38,2.21l12,11.4a9.87,9.87,0,0,0,1.53,1.2l9.42,6a.3.3,0,0,0,.18.06l4.85.52a.42.42,0,0,1,.33.61l-.54,1a.4.4,0,0,1-.42.22l-2-.27A.42.42,0,0,0,75,38h0a.42.42,0,0,1-.51.6l-13-5a10,10,0,0,1-2.6-1.48L48.47,23.88c-1.23,1.88-.3,5.57,1.72,10.17l9.36,9.87L72.08,58l6.86,4.2a2.52,2.52,0,0,1,.13,4.23,5,5,0,0,1-2.43.82,2.51,2.51,0,0,1-2-.81L69.4,60.76,57.09,49.09l-12-7.6L30.49,59.21c6.5,3.08,8.35,7,14.63,10.66a2.16,2.16,0,0,1,.3,3.53,18,18,0,0,1-6.16,3.38A.94.94,0,0,1,38.27,75.27Z"/><path class="cls-3" d="M40.14,12.66s4.92,5.18,6.07.69l.17-.61a.74.74,0,0,1,.9-.49l.13,0a.73.73,0,0,0,.92-.81L48,9a2,2,0,0,1,.26-1.32,4.2,4.2,0,0,0,.62-3.36c-.65-1.87-6.29-4.88-9.42-.31s-1.63,7.73-1.63,7.73"/><path class="cls-4" d="M40.14,12.66a11.66,11.66,0,0,1,2,.67l1.58.68a2.92,2.92,0,0,0,1.12.28c.37,0,.83-.43,1.42-.94a2.13,2.13,0,0,1-.62,2.29,3.11,3.11,0,0,1-.67.36,3.59,3.59,0,0,1-.73.12c-.22,0-.45,0-.67-.06l-.59-.19a4.94,4.94,0,0,1-1.79-1.29A4.48,4.48,0,0,1,40.14,12.66Z"/><path class="cls-2" d="M37.43,9.59S36.07,5,38.17,2.07c2-2.78,7.81-3,10.73.7a.85.85,0,0,1-.38,1.34,2.16,2.16,0,0,1-1.86-.4c-1.86-1.22-1,2-1,2s-1.22-.09-1.49-.9c0,0-1.41,1.09-1.52,4a6.23,6.23,0,0,1-.69-2.48s-1.94,2-2,3.4a6.41,6.41,0,0,1-.19-3.4S37.28,7.3,37.43,9.59Z"/><path class="cls-5" d="M49.64,32.71a16.69,16.69,0,0,1-16.08,2.77l-5.68,10.1a2.79,2.79,0,0,0,.6,3.49,20.87,20.87,0,0,0,8.77,4.38,2.8,2.8,0,0,0,2.94-1.1l4.88-6.84,5.61,3.85a2.81,2.81,0,0,0,3.41-.19,12.86,12.86,0,0,0,4.36-7.24,2.81,2.81,0,0,0-1-2.77Z"/></g></g></svg>