<svg xmlns="http://www.w3.org/2000/svg" viewBox="0 0 61.97 94"><defs><style>.cls-1{fill:#905010;}.cls-2{fill:#805e3c;}.cls-3{fill:#bf6b16;}.cls-4{fill:#f8a21b;}.cls-5{fill:#2f9004;}</style></defs><g id="Layer_2" data-name="Layer 2"><g id="Layer_2-2" data-name="Layer 2"><path class="cls-1" d="M32.67,42.83A4.81,4.81,0,1,1,27.87,38,4.81,4.81,0,0,1,32.67,42.83Z"/><path class="cls-2" d="M41.89,36.74a4.81,4.81,0,1,1-4.8-4.81A4.82,4.82,0,0,1,41.89,36.74Z"/><path class="cls-3" d="M48.83,83.84a25.45,25.45,0,0,1-18-.86C37.08,71.19,43.21,48,27.31,35.74l-.1-.08A1.16,1.16,0,0,1,27,34a1.2,1.2,0,0,1,1.31-.4c14.62,5,24.51,29.79,20.64,50.08A.18.18,0,0,1,48.83,83.84Z"/><path class="cls-4" d="M35.79,38A4.81,4.81,0,1,1,31,33.22,4.8,4.8,0,0,1,35.79,38Z"/><path class="cls-5" d="M59.83,39.62,28.91,34.47C28.33,40.87,26,65.73,26,66.05a2.18,2.18,0,0,1-3.67.89c-7.89-8-8.91-20.09,4.88-32.47l-24.07,20a2.2,2.2,0,0,1-3.18-2c.38-9.86,6.74-18,20.78-18.75C7.5,31.07,2.41,22.33,3.24,12.64A2.17,2.17,0,0,1,6.64,11l15.5,16.46C15.78,15.23,19.55,5.71,27.74.36A2.17,2.17,0,0,1,31.11,2L26.57,31.88C29.61,14.29,40.17,8.76,51,11a2.19,2.19,0,0,1,1.23,3.56c-.15,0-18.56,14.47-24.41,19.07,16-11.24,27.9-7.23,33.82,2.69A2.19,2.19,0,0,1,59.83,39.62Z"/><path class="cls-2" d="M57,94H17.23c0-8.51,8.9-15.41,19.87-15.41S57,85.49,57,94Z"/></g></g></svg>