<svg xmlns="http://www.w3.org/2000/svg" viewBox="0 0 94 88.22"><defs><style>.cls-1{fill:#cad8d9;stroke:#905010;}.cls-1,.cls-4{stroke-linecap:round;stroke-linejoin:round;stroke-width:2px;}.cls-2{fill:#e23e21;}.cls-3{fill:#e6e8e7;}.cls-4{fill:none;stroke:#cad8d9;}.cls-5{fill:#f8a21b;}</style></defs><g id="Layer_2" data-name="Layer 2"><g id="Layer_2-2" data-name="Layer 2"><line class="cls-1" x1="73.27" y1="1" x2="43.57" y2="87.22"/><path class="cls-2" d="M87.09,41.63,38.21,25.72a5.12,5.12,0,0,1-3-7.31,31.35,31.35,0,0,1,58.51,19A5.12,5.12,0,0,1,87.09,41.63Z"/><path class="cls-3" d="M81.7,39.88,43.57,27.47C48.93,11,61.82.43,72.35,3.85S87.06,23.41,81.7,39.88Z"/><path class="cls-2" d="M70.28,36.16,55,31.18C60.36,14.72,68.12,2.48,72.35,3.85S75.64,19.69,70.28,36.16Z"/><line class="cls-4" x1="25.07" y1="69.54" x2="17.74" y2="87.22"/><line class="cls-4" x1="72.22" y1="69.54" x2="79.55" y2="87.22"/><path class="cls-5" d="M76.32,73.7H21a6.27,6.27,0,0,1-5-2.47L1.28,51.93a6.27,6.27,0,0,1,10-7.6L24.08,61.17H76.32a6.27,6.27,0,1,1,0,12.53Z"/><line class="cls-4" x1="13.24" y1="82.02" x2="84.05" y2="82.02"/></g></g></svg>