<svg xmlns="http://www.w3.org/2000/svg" viewBox="0 0 94 58.24"><defs><style>.cls-1{fill:#c82226;}.cls-2{fill:#bf6b16;}.cls-3{fill:#32adf2;}.cls-4{fill:#54a735;}</style></defs><g id="Layer_2" data-name="Layer 2"><g id="Layer_2-2" data-name="Layer 2"><circle class="cls-1" cx="76.6" cy="40.84" r="5.73"/><path class="cls-2" d="M17.41,23.44A17.4,17.4,0,1,0,34.8,40.84,17.4,17.4,0,0,0,17.41,23.44Zm0,29.8A12.4,12.4,0,1,1,29.8,40.84,12.42,12.42,0,0,1,17.41,53.24Z"/><path class="cls-2" d="M76.6,23.44A17.4,17.4,0,1,0,94,40.84,17.4,17.4,0,0,0,76.6,23.44Zm0,29.8A12.4,12.4,0,1,1,89,40.84,12.41,12.41,0,0,1,76.6,53.24Z"/><path class="cls-3" d="M44.94,42.34H17.4a1.5,1.5,0,0,1-1.35-2.15L29.78,11.81A1.5,1.5,0,0,1,31.13,11h36a1.5,1.5,0,0,1,1.18,2.42L46.12,41.76A1.48,1.48,0,0,1,44.94,42.34Zm-25.15-3H44.21L64,14H32.07Z"/><path class="cls-3" d="M44.94,50.37a1.5,1.5,0,0,1-1.5-1.5V41.18L26.9,7.19a1.5,1.5,0,1,1,2.7-1.31l16.69,34.3a1.52,1.52,0,0,1,.15.66v8A1.5,1.5,0,0,1,44.94,50.37Z"/><path class="cls-4" d="M39.52,5.13h0a3.25,3.25,0,0,1-3.25,3.24H24.45a3.24,3.24,0,0,1-3.24-3.24V3.25A3.24,3.24,0,0,1,25,0L36.78,1.92A3.25,3.25,0,0,1,39.52,5.13Z"/><path class="cls-3" d="M76.6,42.34a1.5,1.5,0,0,1-1.42-1L62.84,4.67a1.5,1.5,0,0,1,1.42-2H74.44a4.62,4.62,0,1,1,0,9.24h-2a1.5,1.5,0,0,1,0-3h2a1.62,1.62,0,1,0,0-3.24H66.35L78,40.36a1.5,1.5,0,0,1-.94,1.9A1.61,1.61,0,0,1,76.6,42.34Z"/><rect class="cls-1" x="40.24" y="48.39" width="9.4" height="3.33" rx="1.67"/><path class="cls-1" d="M23.13,40.84A5.73,5.73,0,1,1,17.4,35.1,5.73,5.73,0,0,1,23.13,40.84Z"/></g></g></svg>