<svg xmlns="http://www.w3.org/2000/svg" viewBox="0 0 80.43 90.55"><defs><style>.cls-1{fill:#ebfbfc;}.cls-2{fill:#f8a21b;}.cls-3{fill:#cad8d9;}.cls-4{fill:#222;}.cls-5{fill:none;stroke:#cad8d9;stroke-linecap:round;stroke-linejoin:round;stroke-width:2px;}</style></defs><g id="Layer_2" data-name="Layer 2"><g id="Layer_2-2" data-name="Layer 2"><path class="cls-1" d="M69.71,42.46V55.72h-59V42.46a6,6,0,0,1,6-6h47A6,6,0,0,1,69.71,42.46Z"/><path class="cls-1" d="M76.32,64.8V89.55H4.12V64.8l.44,0H75.88Z"/><rect class="cls-2" y="55.72" width="80.43" height="9.11" rx="4.55"/><rect class="cls-3" x="36.17" width="8.09" height="15.01" rx="4.04"/><path class="cls-4" d="M63.77,30.51v5.95H16.67V30.51A23.54,23.54,0,0,1,40.22,7h0A23.55,23.55,0,0,1,63.77,30.51Z"/><path class="cls-3" d="M25.73,46.62v9.1H18.44v-9.1A3.64,3.64,0,0,1,22.08,43h0A3.64,3.64,0,0,1,25.73,46.62Z"/><path class="cls-3" d="M37.81,46.62v9.1H30.53v-9.1A3.64,3.64,0,0,1,34.17,43h0A3.64,3.64,0,0,1,37.81,46.62Z"/><path class="cls-3" d="M49.9,46.62v9.1H42.62v-9.1A3.64,3.64,0,0,1,46.26,43h0A3.64,3.64,0,0,1,49.9,46.62Z"/><path class="cls-3" d="M62,46.62v9.1H54.71v-9.1A3.64,3.64,0,0,1,58.35,43h0A3.64,3.64,0,0,1,62,46.62Z"/><path class="cls-3" d="M21.7,77.91V89.55H12.39V77.91A4.65,4.65,0,0,1,17,73.26h0A4.66,4.66,0,0,1,21.7,77.91Z"/><path class="cls-3" d="M37.15,77.91V89.55H27.84V77.91a4.65,4.65,0,0,1,4.65-4.65h0A4.66,4.66,0,0,1,37.15,77.91Z"/><path class="cls-3" d="M52.6,77.91V89.55H43.29V77.91a4.65,4.65,0,0,1,4.65-4.65h0A4.66,4.66,0,0,1,52.6,77.91Z"/><path class="cls-3" d="M68.05,77.91V89.55H58.74V77.91a4.65,4.65,0,0,1,4.65-4.65h0A4.66,4.66,0,0,1,68.05,77.91Z"/><line class="cls-5" x1="1.05" y1="89.55" x2="79.39" y2="89.55"/></g></g></svg>