<svg xmlns="http://www.w3.org/2000/svg" viewBox="0 0 94 62.38"><defs><style>.cls-1{fill:#bf6b16;}.cls-2{fill:#905010;}.cls-3{fill:#cad8d9;}</style></defs><g id="Layer_2" data-name="Layer 2"><g id="Layer_2-2" data-name="Layer 2"><polygon class="cls-1" points="94 62.38 0 62.38 18.24 37.65 22.38 40.55 30.21 29.04 35.48 31.82 51.15 17.07 56.74 22.09 61.67 23.09 67.47 34.15 67.47 34.17 70.96 40.79 77.1 37.99 77.28 38.25 94 62.38"/><polygon class="cls-2" points="18.24 37.65 21.52 45.91 28.57 50.1 37.13 59.33 34.11 48.49 25.21 44.9 22.38 40.55 18.24 37.65"/><polygon class="cls-2" points="57.72 58.01 43.61 52.85 38.66 37.65 33.94 34.97 30.21 29.04 35.48 31.82 41.98 34.39 43.61 40.29 50.77 44.64 57.72 58.01"/><polygon class="cls-2" points="62.83 36.39 57.72 27.4 53.76 25.26 51.15 17.07 56.74 22.09 61.67 23.09 59.46 26 62.83 36.39"/><polygon class="cls-2" points="81.13 58.01 69.59 50.2 67.47 34.17 70.96 40.79 77.1 37.99 77.28 38.25 74.3 47.54 81.13 58.01"/><path class="cls-3" d="M24.88,16.15a2.64,2.64,0,0,1-2.64,2.64h-8a2.64,2.64,0,0,1,0-5.27,2.39,2.39,0,0,1,.71.1,3.64,3.64,0,0,1,6.61,0,2.32,2.32,0,0,1,.7-.1A2.64,2.64,0,0,1,24.88,16.15Z"/><path class="cls-3" d="M90.19,23.44a2.64,2.64,0,0,1-2.64,2.64h-8a2.64,2.64,0,0,1,0-5.27,2.39,2.39,0,0,1,.71.1,3.64,3.64,0,0,1,6.61,0,2.32,2.32,0,0,1,.7-.1A2.64,2.64,0,0,1,90.19,23.44Z"/><path class="cls-3" d="M72.52,4.65a2.64,2.64,0,0,1-2.64,2.64h-8a2.64,2.64,0,0,1,0-5.27,2.39,2.39,0,0,1,.71.1,3.64,3.64,0,0,1,6.61,0,2.32,2.32,0,0,1,.7-.1A2.64,2.64,0,0,1,72.52,4.65Z"/></g></g></svg>