<svg xmlns="http://www.w3.org/2000/svg" viewBox="0 0 96 80"><defs><style>.cls-1{fill:none;stroke:#cad8d9;stroke-linecap:round;stroke-linejoin:round;stroke-width:2px;}.cls-2{fill:#e23e21;}.cls-3{fill:#c82226;}</style></defs><g id="Layer_2" data-name="Layer 2"><g id="Layer_2-2" data-name="Layer 2"><line class="cls-1" x1="7.52" y1="53.95" x2="7.52" y2="26.57"/><line class="cls-1" x1="88.23" y1="53.95" x2="88.23" y2="26.57"/><line class="cls-1" x1="28.41" y1="53.95" x2="28.41" y2="25.25"/><line class="cls-1" x1="38.2" y1="53.95" x2="38.2" y2="28.86"/><line class="cls-1" x1="48" y1="53.95" x2="48" y2="29.84"/><line class="cls-1" x1="57.8" y1="53.95" x2="57.8" y2="28.37"/><line class="cls-1" x1="67.59" y1="53.95" x2="67.59" y2="24.62"/><path class="cls-1" d="M1,32,17.72,18.09q28.13,23.54,60.56,0L95,32"/><line class="cls-1" x1="17.72" y1="11.05" x2="17.72" y2="1"/><line class="cls-1" x1="78.28" y1="11.05" x2="78.28" y2="1"/><rect class="cls-2" x="1" y="48.67" width="94" height="10.56" rx="5.28"/><path class="cls-3" d="M23,11.14V79H12.44V11.14a5.28,5.28,0,0,1,5.28-5.28h0A5.29,5.29,0,0,1,23,11.14Z"/><path class="cls-3" d="M83.56,11.14V79H73V11.14a5.29,5.29,0,0,1,5.28-5.28h0A5.28,5.28,0,0,1,83.56,11.14Z"/><line class="cls-1" x1="8.66" y1="79" x2="87.34" y2="79"/></g></g></svg>