<svg xmlns="http://www.w3.org/2000/svg" viewBox="0 0 94 93.74"><defs><style>.cls-1{fill:#f1a0b4;}</style></defs><g id="Layer_2" data-name="Layer 2"><g id="Layer_2-2" data-name="Layer 2"><path class="cls-1" d="M94,68.29c-3.15,19.37-11.66,27.58-25.37,25-22.94,2.58-39.71-6-51.54-23.65-4.34-8.5-5.45-16.68-4.36-24.06a11.29,11.29,0,0,1-4.92-2.7C3.69,39,3.07,32.44,5.58,25.92a6.87,6.87,0,0,1-1.9-1.27c-3-2.78-3-7.77-.6-12.41a7.73,7.73,0,0,1-.73-.67c-2.89-3-3.15-7.43-.57-9.93s7-2.1,9.89.89a7.84,7.84,0,0,1,1,1.2c3.63-1.33,7.25-1,9.6,1.19a7.39,7.39,0,0,1,2.12,3.9c5-1.24,9.78-.45,13,2.61a11.28,11.28,0,0,1,1.81,2.22l.69-.24S62.72,5.55,64.29,33.08C75.87,27.53,94,43.51,94,68.29Z"/></g></g></svg>