<svg xmlns="http://www.w3.org/2000/svg" viewBox="0 0 94 77.54"><defs><style>.cls-1{fill:#4dd2f5;}.cls-2{fill:#bf6b16;}.cls-3{fill:#905010;stroke:#cad8d9;stroke-linecap:round;stroke-linejoin:round;stroke-width:2px;}.cls-4{fill:#e23e21;}.cls-5{fill:#f8a21b;}.cls-6{fill:#c82226;}</style></defs><g id="Layer_2" data-name="Layer 2"><g id="Layer_2-2" data-name="Layer 2"><path class="cls-1" d="M94,68.5c0,5-20.13,9-45,9s-44.94-4-44.94-9,20.11-9,44.94-9S94,63.51,94,68.5Z"/><path class="cls-2" d="M81.46,63.67c0,3.87-14.52,7-32.42,7s-32.4-3.13-32.4-7,14.5-7,32.4-7S81.46,59.81,81.46,63.67Z"/><line class="cls-3" x1="18.71" y1="3.42" x2="39.23" y2="63.54"/><path class="cls-4" d="M19.51,5.49l-.17.07.17-.07Z"/><path class="cls-5" d="M18.91,5.71A28.68,28.68,0,0,0,1.55,41.94a3.59,3.59,0,0,1,6.79-2.32C3.3,24.86,8,9.83,18.91,5.71Z"/><path class="cls-5" d="M20,5.35C31.08,2,44,11,49.05,25.72a3.59,3.59,0,0,1,6.79-2.32A28.68,28.68,0,0,0,20,5.35Z"/><path class="cls-6" d="M19.08,5.65l-.17.06C8,9.83,3.3,24.86,8.34,39.62a3.58,3.58,0,0,1,6.78-2.32C10.08,22.55,11.87,8.52,19.08,5.65Z"/><path class="cls-6" d="M20,5.35l-.18.06C27.24,3.27,37.23,13.28,42.27,28a3.58,3.58,0,0,1,6.78-2.32C44,11,31.08,2,20,5.35Z"/><path class="cls-4" d="M30,28.62a3.21,3.21,0,0,0-.3.21A3.21,3.21,0,0,1,30,28.62Z"/><path class="cls-5" d="M19.78,5.41l-.18.06c3.8-.88,10.84,10.13,15.88,24.88A3.59,3.59,0,0,1,42.27,28C37.23,13.28,27.24,3.27,19.78,5.41Z"/><path class="cls-4" d="M29.36,29.21a.74.74,0,0,0-.12.13A.74.74,0,0,1,29.36,29.21Z"/><path class="cls-4" d="M28.88,29.92s0,0,0,0S28.88,29.91,28.88,29.92Z"/><path class="cls-4" d="M28.69,32.67s0,0,0,0h0S28.68,32.66,28.69,32.67Z"/><path class="cls-5" d="M19.26,5.59a1.27,1.27,0,0,0-.18.06c-7.21,2.87-9,16.9-4,31.65A3.59,3.59,0,0,1,21.91,35C16.87,20.23,15.71,7.21,19.26,5.59Z"/><path class="cls-4" d="M30.93,28.12a3.93,3.93,0,0,0-.66.3A3.93,3.93,0,0,1,30.93,28.12Z"/><path class="cls-4" d="M29.7,28.83c-.12.12-.23.25-.34.38C29.47,29.08,29.58,29,29.7,28.83Z"/><path class="cls-4" d="M30.27,28.42a2.69,2.69,0,0,0-.27.2A2.69,2.69,0,0,1,30.27,28.42Z"/><path class="cls-4" d="M29.24,29.34a2.81,2.81,0,0,0-.34.55A2.81,2.81,0,0,1,29.24,29.34Z"/><path class="cls-4" d="M28.68,32.63a3.57,3.57,0,0,1,.2-2.71A3.57,3.57,0,0,0,28.68,32.63Z"/><path class="cls-6" d="M35.48,30.36a3.59,3.59,0,0,0-4.55-2.24,2.86,2.86,0,0,0-.66.31,2.61,2.61,0,0,0-.27.19,2.86,2.86,0,0,0-.3.22,3,3,0,0,0-.34.37.74.74,0,0,0-.12.13,3.43,3.43,0,0,0-.35.55v0a3.52,3.52,0,0,0-.2,2.71s0,0,0,0A3.58,3.58,0,0,0,21.91,35c-5-14.76-6.2-27.78-2.65-29.4l.17-.07.17,0C23.4,4.59,30.44,15.6,35.48,30.36Z"/><path class="cls-5" d="M81.7,14.4a8.47,8.47,0,1,1-8.48-8.47A8.48,8.48,0,0,1,81.7,14.4Z"/><path class="cls-5" d="M73.23,3.72a1.12,1.12,0,0,1-1.12-1.11V1.11a1.12,1.12,0,0,1,2.23,0v1.5A1.11,1.11,0,0,1,73.23,3.72Z"/><path class="cls-5" d="M73.23,28.8a1.11,1.11,0,0,1-1.12-1.11V26.2a1.12,1.12,0,1,1,2.23,0v1.49A1.11,1.11,0,0,1,73.23,28.8Z"/><path class="cls-5" d="M81.57,7.17a1.09,1.09,0,0,1-.79-.32,1.13,1.13,0,0,1,0-1.58l1.06-1a1.11,1.11,0,0,1,1.57,1.57l-1,1.06A1.11,1.11,0,0,1,81.57,7.17Z"/><path class="cls-5" d="M63.83,24.91a1.16,1.16,0,0,1-.79-.32A1.13,1.13,0,0,1,63,23L64.1,22a1.11,1.11,0,0,1,1.57,1.57l-1,1.06A1.14,1.14,0,0,1,63.83,24.91Z"/><path class="cls-5" d="M86.52,15.52H85a1.12,1.12,0,0,1,0-2.23h1.5a1.12,1.12,0,0,1,0,2.23Z"/><path class="cls-5" d="M61.43,15.52H59.94a1.12,1.12,0,0,1,0-2.23h1.49a1.12,1.12,0,0,1,0,2.23Z"/><path class="cls-5" d="M82.62,24.91a1.11,1.11,0,0,1-.78-.32l-1.06-1.06A1.11,1.11,0,1,1,82.36,22l1,1.05a1.11,1.11,0,0,1,0,1.58A1.14,1.14,0,0,1,82.62,24.91Z"/><path class="cls-5" d="M64.89,7.17a1.09,1.09,0,0,1-.79-.32L63,5.79a1.11,1.11,0,1,1,1.58-1.57l1,1a1.11,1.11,0,0,1,0,1.58A1.07,1.07,0,0,1,64.89,7.17Z"/></g></g></svg>