<svg xmlns="http://www.w3.org/2000/svg" viewBox="0 0 91.93 94"><defs><style>.cls-1{fill:#2f9004;}.cls-2{fill:#54a735;}</style></defs><g id="Layer_2" data-name="Layer 2"><g id="Layer_2-2" data-name="Layer 2"><path class="cls-1" d="M91.83,21.06,89.92,34.92l-.49,3.47-.16,1.39c-.06.51-.17,1-.28,1.52a13.17,13.17,0,0,1-.41,1.49,14.41,14.41,0,0,1-.53,1.43,17.69,17.69,0,0,1-7.74,8.7A16.63,16.63,0,0,1,75,54.79a13.18,13.18,0,0,1-1.39.17c-.2,0-.5,0-.64,0H63.74l-14,0a3,3,0,0,1-.82-6L62.41,45.2l6.73-1.9c2.88-.68,3-1,3.57-1.8a2.8,2.8,0,0,0,.48-2.13.65.65,0,0,0-.06-.23.6.6,0,0,0-.08-.21.78.78,0,0,0-.09-.21l-.07-.1,0,0,0-.19-.47-3.47L70.45,21.06a10.79,10.79,0,1,1,21.38,0Z"/><path class="cls-1" d="M.09,41.62,2,55.47l.49,3.47.16,1.4c.06.5.17,1,.28,1.51a13.17,13.17,0,0,0,.41,1.49,14.59,14.59,0,0,0,.53,1.44,17.66,17.66,0,0,0,7.74,8.69A16.39,16.39,0,0,0,17,75.34a12.87,12.87,0,0,0,1.39.17c.2,0,.5,0,.63,0h9.19l14,0a3,3,0,0,0,.82-6L29.52,65.75l-6.73-1.89c-2.88-.69-3-1.06-3.57-1.81a2.79,2.79,0,0,1-.48-2.13.65.65,0,0,1,.06-.23.6.6,0,0,1,.08-.21.88.88,0,0,1,.09-.2l.06-.1,0,0,0-.19.47-3.47,1.92-13.85a10.8,10.8,0,0,0-21.39-3A11.73,11.73,0,0,0,.09,41.62Z"/><path class="cls-2" d="M69,26.33a1.3,1.3,0,0,1-1.29,1.31H61.56c-.1,1.66-.28,3.91-.55,6.56h5a1.3,1.3,0,1,1,0,2.6H60.74c-.24,2-9.21,55.27-9.75,57.2H40.94c-.52-1.93-9.53-55.17-9.75-57.2H25.92a1.3,1.3,0,0,1,0-2.6h5c-.26-2.65-.44-4.9-.54-6.56H24.19a1.3,1.3,0,0,1-1.29-1.31A1.28,1.28,0,0,1,24.19,25h6.09a15.47,15.47,0,0,1,1.62-6.58H27.67a1.3,1.3,0,0,1-1.31-1.29,1.31,1.31,0,0,1,1.31-1.31h5.84a15.93,15.93,0,0,1,3.7-3.49L33.32,6.09a1.3,1.3,0,0,1,2.22-1.37l4,6.37a15.46,15.46,0,0,1,5.2-1.34l-.19-8.42A1.31,1.31,0,0,1,45.79,0a1.28,1.28,0,0,1,1.32,1.28l.19,8.47a15.29,15.29,0,0,1,5.13,1.34l4-6.37a1.3,1.3,0,1,1,2.2,1.37L54.7,12.37a15.42,15.42,0,0,1,3.72,3.49h5.84a1.31,1.31,0,0,1,1.31,1.31,1.3,1.3,0,0,1-1.31,1.29H60A15.61,15.61,0,0,1,61.64,25h6.1A1.28,1.28,0,0,1,69,26.33Z"/></g></g></svg>