<?xml version="1.0" encoding="utf-8"?>
<!-- Generator: Adobe Illustrator 27.0.0, SVG Export Plug-In . SVG Version: 6.00 Build 0)  -->
<svg version="1.0" xmlns="http://www.w3.org/2000/svg" xmlns:xlink="http://www.w3.org/1999/xlink" x="0px" y="0px"
	 viewBox="0 0 203.3 184.5" enable-background="new 0 0 203.3 184.5" xml:space="preserve">
<g id="Layer_1">
</g>
<g id="Layer_2">
	<g>
		<line fill="none" stroke="#354253" stroke-linecap="round" stroke-miterlimit="10" x1="67.2" y1="150.9" x2="139.4" y2="150.9"/>
		<line fill="none" stroke="#354253" stroke-linecap="round" stroke-miterlimit="10" x1="62.8" y1="150.9" x2="64.6" y2="150.9"/>
		<path fill="#DDF2F6" d="M136.6,109.1c0.1-2.2-0.5-4.5-1.8-6.2c-1.3-1.7-3.5-2.9-5.7-2.8c-2.2,0.1-4.3,1.7-4.8,3.9
			c-0.6-0.2-1.4-0.2-2,0.1c-0.4-1.9-1-3.8-1.9-5.5c3.1-2.4,7.5-3.1,11.2-1.8c3.7,1.3,6.7,4.7,7.5,8.5c0.9,3.9-0.4,8.1-3.2,10.9
			c0.1-0.1-0.8-0.8-0.8-1c-0.1-0.4,0.6-1.5,0.7-1.9C136.2,111.9,136.5,110.5,136.6,109.1z"/>
		<path fill="#DDF2F6" d="M94.8,139.5c-0.4,0.1-0.7-0.3-1-0.5c-1.2-1-3.2-0.9-4.2,0.3c-0.9-1.1-2.6-1-4-0.6c-1.4,0.3-3,0.7-4.2,0
			c-1.2-0.8-1.6-2.4-1.8-3.8c-1.2-9.8-0.4-19.8,2.4-29.2c-0.2,0.7-5.7-0.5-6.3-0.7c-2.2-0.6-4.2-1.6-6-3c-0.7-0.5-4.5-3.6-3.9-4.3
			c0,0,0,0,0,0c0.4-0.3,2.8,0.3,3.2,0.3c1.3,0,2.7-0.1,4-0.5c2.2-0.6,3-1.7,4-3.3c0.3-0.4,0.5-0.9,0.8-1.4c3.9,2.7,8.8,3.8,13.5,3.2
			c-4.7,6.2-7.7,13.7-8.8,21.4c-0.6,4.1-0.5,8.7,2.1,12c1.3,1.7,3,2.6,5,3.5c0.9,0.4,1.8,0.7,2.5,1.3c1.2,0.9,0.9,2.3,1.9,3.1
			c0.4,0.3,0.8,0.6,1,1C95.4,138.7,95.2,139.4,94.8,139.5z"/>
		<g>
			<path fill="#FFFFFF" d="M76.6,74.2c-1.8-4.5-2.4-9.5-1.5-14.2c0.1-0.7,0.3-1.5,0.9-2c0.8-0.6,2-0.3,2.9,0.1
				c3.8,1.7,7.1,4.2,9.9,7.3c3.7-1,7.6-1.4,11.4-0.9c1.8-2.7,4-5,6.6-7c0.7-0.6,1.5-1.1,2.4-1.4c0.9-0.3,1.9-0.2,2.7,0.3
				c0.9,0.6,1.2,1.8,1.4,2.9c0.8,4.4,0.3,9-1.4,13.2c1.6,3.2,2.5,6.7,2.3,10.3c-0.2,3.6-1.6,7.1-4.2,9.6c-2.4,2.3-5.6,3.7-8.9,4.3
				c-3.3,0.6-6.6,0.5-10,0.4c-3-0.1-6.1-0.3-8.7-1.6c-3.6-1.7-6.1-5.4-7-9.2S75.4,78,76.6,74.2z"/>
			<path opacity="0.44" fill="#A6DBE5" d="M97.6,91c-1.2,0.9-2.9,1.1-4.2,0.4c-1.3-0.7-2.2-2.2-2.1-3.7c0-0.1,0-0.3,0.1-0.4
				c0.1-0.2,0.4-0.2,0.6-0.2c1.2,0,2.3-0.6,3-1.5c-0.2,0.3,1.5,1.2,1.7,1.2c0.5,0.2,1.6-0.1,2,0.2c0.5,0.4,0.2,1.4,0.1,1.9
				C98.6,89.8,98.2,90.5,97.6,91z"/>
			<path fill="#DDF2F6" d="M114.1,84.9c-0.8,2.7-4.8,3.3-7.3,2.3c-2.7-1.2-4.3-4.2-6.8-5.7c-2.5-1.4-5.7-1.2-8.1,0.1
				c-1.6,0.9-2.9,2.2-4.3,3.5c-1.3,1.3-2.7,2.5-4.4,3.2c-1.7,0.7-3.7,0.9-5.3-0.1c-1.6-0.9-2.4-2.7-2.6-4.5
				c-0.2-1.8,0.1-3.6,0.4-5.4c0.3-1.5,0.9-3,1.2-4.5l-1.3-3.4c-0.2-1.7-0.5-3.4-0.8-5.2c-0.1-0.7-0.1-1.4-0.1-2.1
				c0-1.3,0.1-2.6,0.5-3.8c0.1-0.4,0.3-0.8,0.5-1.1s0.6-0.6,1-0.7c0.9-0.3,2.2,0.3,3.1,0.7c1,0.5,2,1,3,1.6c1.9,1.2,3.7,2.6,5.3,4.3
				c0.4,0.4,0.7,0.8,1.2,1c0.5,0.2,1.1,0.2,1.5-0.2c1.1-0.3,2.3-0.2,3.5-0.2c1.5-0.1,3-0.1,4.5-0.2c0.5,0,1,0,1.5-0.2
				c0.2,0,0.3-0.1,0.5-0.2c0.1-0.1,0.1-0.1,0.2-0.2c0.3-0.4,0.7-0.8,1-1.2c0.4-0.5,0.8-0.9,1.1-1.4l3.6-3.3c0.7-0.7,1.5-1.3,2.4-1.7
				c0.5-0.2,1-0.4,1.6-0.4c0.7,0,1.3,0.4,1.7,0.9c0.7,0.7,1.1,1.7,1.1,2.6c0.1,3.8,0.4,7.8-0.8,11.4c-0.2,0.5-0.4,1-0.3,1.5
				c0,0.5,0.2,1,0.4,1.5C113.9,77.5,115,81.9,114.1,84.9z"/>
			<path opacity="0.47" fill="#FFFFFF" d="M108.8,64.3c0.2-1,0.5-2,0.8-2.9c-1.1,0.7-2.1,1.4-3.1,2.2c-0.9,0.8-1.8,1.6-2.4,2.6
				c0.4,0.8,0.9,1.6,1.7,2.2c0.8,0.6,1.8,0.9,2.7,0.6c0.1,0,0.1,0,0.2-0.1c0.1-0.1,0.1-0.3,0.1-0.4
				C108.5,67.1,108.6,65.7,108.8,64.3z"/>
			<path opacity="0.47" fill="#FFFFFF" d="M78.7,63.4c-0.2,2.4-0.4,4.9-0.2,7.3c0,0.3,0.1,0.6,0.3,0.9c0.2,0.2,0.5,0.2,0.8,0.3
				c1.3,0.1,2.5-0.3,3.6-1c0.6-0.4,1-1,1.4-1.6c0.2-0.3,0.3-0.6,0.4-1c0.1-0.4,0.2-0.6-0.1-0.8c-1.1-1.1-2.4-2-3.8-2.8
				C80.3,64.1,79.5,63.7,78.7,63.4z"/>
			<path fill="none" stroke="#354253" stroke-linecap="round" stroke-linejoin="round" stroke-miterlimit="10" d="M76.6,74.2
				c-1.8-4.5-2.4-9.5-1.5-14.2c0.1-0.7,0.3-1.5,0.9-2c0.8-0.6,2-0.3,2.9,0.1c3.8,1.7,7.1,4.2,9.9,7.3c3.7-1,7.6-1.4,11.4-0.9
				c1.8-2.7,4-5,6.6-7c0.7-0.6,1.5-1.1,2.4-1.4c0.9-0.3,1.9-0.2,2.7,0.3c0.9,0.6,1.2,1.8,1.4,2.9c0.8,4.4,0.3,9-1.4,13.2
				c1.6,3.2,2.5,6.7,2.3,10.3c-0.2,3.6-1.6,7.1-4.2,9.6c-2.4,2.3-5.6,3.7-8.9,4.3c-3.3,0.6-6.6,0.5-10,0.4c-3-0.1-6.1-0.3-8.7-1.6
				c-3.6-1.7-6.1-5.4-7-9.2S75.4,78,76.6,74.2z"/>
			<path fill="none" stroke="#354253" stroke-linecap="round" stroke-linejoin="round" stroke-miterlimit="10" d="M104.1,66.1
				c1.4-2,3.4-3.7,5.6-4.8c-0.6,2.5-0.8,5-0.9,7.5"/>
			<path fill="none" stroke="#354253" stroke-linecap="round" stroke-linejoin="round" stroke-miterlimit="10" d="M84.3,66.8
				c-1.6-1.5-3.5-2.7-5.6-3.5c-0.3,2.7-0.3,5.5,0.1,8.2"/>
			<path fill="none" stroke="#354253" stroke-linecap="round" stroke-linejoin="round" stroke-miterlimit="10" d="M100.7,85.2
				c-0.5,1-1.5,1.7-2.6,1.9s-2.3-0.4-3-1.2c-0.8,0.8-1.8,1.3-3,1.4c-1.2,0.2-2.5-0.4-2.9-1.5"/>
			<path fill="none" stroke="#354253" stroke-linecap="round" stroke-linejoin="round" stroke-miterlimit="10" d="M98.8,86.9
				c0.4,1.5-0.2,3.2-1.4,4.1c-1.2,0.9-3.1,1-4.4,0.2c-1.3-0.8-2.1-2.5-1.8-4"/>
			<circle fill="#354253" cx="103.9" cy="79.5" r="1.8"/>
			<circle fill="#354253" cx="85.4" cy="80.7" r="1.8"/>
			<path fill="#354253" d="M93.7,83.1c0.9,0.2,1.8,0.1,2.6-0.3c0.4-0.2,0.8-0.4,1-0.8s0.3-0.8,0.1-1.2c-0.2-0.4-0.7-0.5-1.1-0.6
				c-1.1-0.2-3-0.2-3.9,0.6C91.4,81.9,92.7,82.9,93.7,83.1z"/>
			<path fill="none" stroke="#354253" stroke-linecap="round" stroke-linejoin="round" stroke-miterlimit="10" d="M95,86.4
				c0,1.3,0,2.5,0,3.8"/>
		</g>
		<path fill="#FFFFFF" d="M78.3,89c-0.1,1.8-0.8,3.4-1.2,5.1c-1,1.6-1.8,2.7-4,3.3c-1.3,0.4-2.7,0.5-4,0.5c-0.5,0-2.8-0.6-3.2-0.3
			c-0.9-1.1-1.6-2.5-1.9-3.9c-0.9-3.9,0.7-8.4,4-10.8c1.9-1.4,4.6-2.1,6.8-1.1C77.3,83,78.5,86.2,78.3,89z"/>
		<path fill="#A6DBE5" d="M121.4,110.3c-1.1,1.5-2.4,2.7-3.9,3.8c-0.1,0.1-0.3,0.2-0.4,0.2c-0.9,0.8-1.9,1.4-2.9,2.1
			c-0.8,0.6-1.6,1.1-2.5,1.5c-0.2,0.2-0.4,0.4-0.7,0.5c-2.3,1.1-5.2,0.9-7.5-0.3c-0.1-0.1-0.2-0.1-0.3-0.2c-0.1,0-0.1,0-0.2-0.1
			c-0.2-0.1-0.4-0.3-0.6-0.4c-0.3-0.3-0.6-0.8-0.7-1.2c0-0.2-0.1-0.5-0.1-0.7c0,0,0-0.1,0-0.1l-0.2,0.1c-2.9,3.2-4.7,7.5-4.7,12.3
			c0,10.2,8.2,18.4,18.4,18.4c10.2,0,18.4-8.2,18.4-18.4C133.6,119.6,128.6,112.8,121.4,110.3z"/>
		<path fill="none" stroke="#354253" stroke-linecap="round" stroke-miterlimit="10" d="M83.7,140.2c-1.2-0.6-2.4-1.2-3.7-1.4
			c-1.3-0.2-2.7,0-3.7,0.8c-1.6,1.3-1.9,3.8-2.1,6c-0.1,1.4-0.2,3,0.8,4c0.7,0.7,1.7,0.9,2.7,0.9c2.5,0.1,4.9-0.1,7.3-0.6
			c0.7-0.1,1.5-0.5,2.2-1"/>
		<path fill="none" stroke="#354253" stroke-linecap="round" stroke-miterlimit="10" d="M94.8,140.2c-1.5-1.6-4.3-1.6-6-0.2
			s-2.4,3.7-2.2,5.9c0.1,1.1,0.4,2.3,1.3,3.1c1,0.8,2.3,0.9,3.6,1c4.5,0.2,9,0.4,13.5,0.6c0.9,0,1.7-0.5,2.3-1.2"/>
		<path fill="none" stroke="#354253" stroke-linecap="round" stroke-miterlimit="10" d="M135.9,117c1.9-2.8,3.2-6,3.4-9.4
			c0.2-3.4-1-6.9-3.5-9.1c-2.7-2.4-6.7-2.9-10.2-2.1c-1.8,0.5-3.6,1.3-5.2,2.3"/>
		<path fill="none" stroke="#354253" stroke-linecap="round" stroke-miterlimit="10" d="M130.6,110.1c-0.4-2.5-2.3-4.7-4.7-5.4
			c-1.3-0.4-2.8-0.4-4.1,0"/>
		<path fill="none" stroke="#354253" stroke-linecap="round" stroke-miterlimit="10" d="M121,110.1c7.3,2.4,12.6,9.3,12.6,17.5
			c0,10.2-8.2,18.4-18.4,18.4s-18.4-8.2-18.4-18.4c0-4.7,1.8-9,4.7-12.3"/>
		<path fill="none" stroke="#354253" stroke-linecap="round" stroke-miterlimit="10" d="M121.9,105.5c9.5,2.9,16.4,11.7,16.4,22.1
			c0,12.8-10.4,23.1-23.1,23.1c-12.8,0-23.1-10.3-23.1-23.1c0-8.2,4.3-15.4,10.8-19.5"/>
		<path fill="none" stroke="#354253" stroke-linecap="round" stroke-miterlimit="10" d="M94,136.9c-4.6-0.2-9.1-2.6-11.8-6.3"/>
		<text transform="matrix(1 0 0 1 110.1635 135.174)" fill="#354253" font-family="'Sarabun-SemiBold'" font-size="19.5277px">$</text>
		<path fill="#DDF2F6" d="M115.1,115.6c3.7-0.9,6.2-4.7,6.6-8.4c0.4-3.8-0.9-7.6-2.9-10.9c-1.2-2.1-2.8-4.2-5.2-5
			c-1.6-0.5-3.4-0.3-5,0.3s-3,1.6-4.3,2.6c-1.1,0.8-2.3,1.8-2.7,3.1c-0.4,1.3-0.2,2.7,0.6,3.8c1.1,1.6,2.7,2,4.4,2.6
			c1.2,0.5,2.2,1.4,3.2,2.3C112.7,108.5,114.6,111.9,115.1,115.6z"/>
		<path fill="#DDF2F6" d="M105.7,93.4c2-1.2,4.3-2.1,6.6-2.2c0.7,0,1.5,0,2.1,0.3s1.2,0.9,1.3,1.6c0.1,1-0.6,1.8-1.4,2.5
			c-1.9,1.7-4.1,2.9-6.6,3.7c-1.7,0.5-5.6,1.1-6.4-1.3C100.8,96.1,104.4,94.2,105.7,93.4z"/>
		<path fill="none" stroke="#354253" stroke-linecap="round" stroke-miterlimit="10" d="M108.5,103.6c-2.8,1.4-5.6,3.5-6.8,6.4
			c-1.2,2.9-0.6,6.8,2.1,8.5c1.8,1.1,4.1,1.1,6.1,0.4c2-0.7,3.8-1.9,5.5-3.1c1.8-1.3,3.6-2.6,4.8-4.4c1.4-2.1,1.8-4.7,1.5-7.2
			c-0.3-2.5-1.1-4.9-2.2-7.1c-0.9-1.9-2-3.9-3.9-5c-2.6-1.6-6.1-1-8.8,0.4c-2.7,1.5-4.9,3.7-7.3,5.6"/>
		<path fill="none" stroke="#354253" stroke-linecap="round" stroke-miterlimit="10" d="M83.1,102.2c-4.5,11.6-5.4,24.6-2.6,36.7"/>
		<path fill="none" stroke="#354253" stroke-linecap="round" stroke-miterlimit="10" d="M81.2,105.6c-6.9,1-14.2-3.4-16.7-9.9
			c-1-2.5-1.2-5.4-0.4-7.9c0.8-2.6,2.7-4.9,5.3-5.8s5.6-0.2,7.4,1.8c1.4,1.7,1.8,4.1,1.5,6.4c-0.4,2.2-1.4,4.3-2.4,6.2"/>
	</g>
</g>
</svg>
