<?xml version="1.0" encoding="utf-8"?>
<!-- Generator: Adobe Illustrator 27.0.0, SVG Export Plug-In . SVG Version: 6.00 Build 0)  -->
<svg version="1.0" xmlns="http://www.w3.org/2000/svg" xmlns:xlink="http://www.w3.org/1999/xlink" x="0px" y="0px"
	 viewBox="0 0 203.3 184.5" enable-background="new 0 0 203.3 184.5" xml:space="preserve">
<g id="Layer_1">
	<path fill="#A6DBE5" d="M110.9,28.9c2.3,1.2,5.2,1,7.3-0.5s3.3-4.1,3-6.7c-0.1-0.6-0.3-1.2-0.7-1.5c-0.6-0.4-1.4-0.1-2,0.3
		c-0.6,0.4-1.1,1-1.7,1.3c-1.1,0.5-2.4,0.2-3.5-0.1s-2.5-0.5-3.5,0.1c-0.7,0.4-1.2,1.2-1.9,1.4c-0.5,0.1-1,0-1.5,0
		c-1.9,0-3.5,1.4-4.5,2.9c-2,3.2-2.2,7.4-0.5,10.8c1,2,2.7,3.6,4.3,5.2c0.8-1,1.7-2.1,1.5-3.4c-0.1-0.7-0.6-1.4-0.8-2.1
		c-0.3-0.7-0.3-1.6,0.3-2.1c0.6-0.5,1.6-0.2,2.1,0.4c0.4,0.4,0.5,1,0.6,1.5c0.8-0.2,1.2-2.7,1.3-3.5
		C110.7,31.6,110.9,30.2,110.9,28.9z"/>
	<line fill="none" stroke="#354253" stroke-linecap="round" stroke-miterlimit="10" x1="50.1" y1="150.9" x2="155.5" y2="150.9"/>
	<line fill="none" stroke="#354253" stroke-linecap="round" stroke-miterlimit="10" x1="47.8" y1="150.9" x2="47" y2="150.9"/>
	<path fill="#DDF2F6" d="M109.9,110.1c0.9,3.9,1.1,8.1,0.3,12c0.7-2.4,1.5-4.8,2.2-7.2c0.2-0.6,0.4-1.2,0.3-1.8
		c0-0.8-0.4-1.4-0.8-2.1c-1-1.9-1.9-3.8-2.7-5.7c-0.4-1-0.8-1.9-1.2-2.9c-0.3-0.9-0.6-2-1.1-2.8c-0.6,0.2,1.2,4.3,1.4,4.9
		C108.9,106.3,109.5,108.2,109.9,110.1z"/>
	<path fill="#DDF2F6" d="M117.5,43.3c-1.6,0.9-3.7,0.9-5.2,0c0.9,1.3,1.2,3,0.8,4.5c0.6-0.3,0.9-0.9,1.1-1.5
		c0.2-0.6,0.4-1.2,0.8-1.7c0.5-0.6,1.3-0.9,2.1-0.8"/>
	<path fill="#E2EDF7" d="M108.4,146.4c0.3,0.8-0.2,1.8-1,2.3c-0.8,0.4-1.7,0.5-2.6,0.4c-3.6-0.3-7.1-1.7-10.4-3.1
		c-0.6-0.2-1.2-0.5-1.5-1.1c-0.3-0.6-0.1-1.3,0.2-1.9c0.4-1,0.8-1.9,1.3-2.8c0.3-0.5,0.7-1.1,1.3-1.1c0.6,0,1,0.5,1.5,1
		c0.9,0.9,2.1,1.5,3.4,1.8c0.9,0.2,1.5-0.7,2.2-0.1c1,0.8,1.9,2.5,3.1,3C106.6,145.1,107.9,145.3,108.4,146.4z"/>
	<path fill="#E2EDF7" d="M135,140.7c0.5-0.5,1-1.2,1.7-1.5c1.1-0.5,2.5,0,3.7,0c0.9,0,1.8-0.4,2.7-0.7c0.9-0.3,1.8-0.6,2.7-0.6
		s1.9,0.6,2.2,1.5c0.2,0.6,0.1,1.4-0.3,1.9c-0.3,0.6-0.9,1-1.4,1.5c-3.1,2.5-6.9,4.1-10.6,5.7c-0.9,0.4-1.9,0.8-2.9,0.6
		c-1.3-0.3-2.1-1.5-2.5-2.7c-0.3-0.8-0.5-1.8-0.6-2.7c0-0.9,0.4-0.8,1.2-0.9C132.4,142.5,133.9,141.8,135,140.7z"/>
</g>
<g id="Layer_2">
	<path fill="none" stroke="#A6DBE5" stroke-miterlimit="10" d="M88.7,114.4c0.6-0.1,1.2,0.1,1.7,0.5s0.8,0.9,1.2,1.3"/>
	<path fill="none" stroke="#A6DBE5" stroke-miterlimit="10" d="M95.5,123c0.1-0.1,0.2-0.3,0.3-0.5c0.1-0.2,0.1-0.5,0.1-0.7"/>
	<path fill="none" stroke="#354254" stroke-linecap="round" stroke-miterlimit="10" d="M118,40.7c0,0-1.7,0.5-2.5-1.3"/>
	<ellipse fill="#354254" cx="117.1" cy="34.5" rx="0.8" ry="1"/>
	<path fill="none" stroke="#354253" stroke-linecap="round" stroke-linejoin="round" stroke-miterlimit="10" d="M106,61.3
		c-0.8,3.2-1.1,6.6-1,9.9c-2.8-0.2-5.6-0.4-8.4-0.6c-1.3-9.7,1.5-19.9,7.5-27.5c2.9,2.8,6.9,4.5,10.9,4.6c1.5,2.4,2.1,5.3,2.3,8.1
		c0.2,2.8-0.1,5.7-0.2,8.5c-0.4,8.5,0.5,17,2.7,25.1c-2.8,1.9-6.4,1.7-10.1,1.7"/>
	<path fill="none" stroke="#354253" stroke-linecap="round" stroke-linejoin="round" stroke-miterlimit="10" d="M104.3,71.3
		c0.1,3.6,0.3,7.2,0.4,10.8c0.1,2.1,0.2,4.5,1.6,6.1c0.6,0.7,1.3,1.2,2,1.8c0.7,0.6,1.2,1.4,1.3,2.3c0.1,0.9-0.6,1.9-1.5,1.9"/>
	<path fill="none" stroke="#354253" stroke-linecap="round" stroke-linejoin="round" stroke-miterlimit="10" d="M102,91
		c-0.5-0.2-1-0.1-1.6,0S99.3,91,99,90.5c-0.2-0.3-0.2-0.7-0.2-1c0.1-3.4-0.1-7.5,0-10.8"/>
	<path fill="none" stroke="#354253" stroke-linecap="round" stroke-linejoin="round" stroke-miterlimit="10" d="M106.6,98.3
		c5.9,14.2,13,28.1,21.4,41c0.2,0.2,0.4,0.4,0.7,0.3c2.5-0.4,4.9-1.3,7.2-2.5c0.3-0.2,0.5-0.6,0.3-0.9
		c-7.4-14.7-13.2-30.1-17.2-46.1"/>
	<path fill="none" stroke="#354253" stroke-linecap="round" stroke-linejoin="round" stroke-miterlimit="10" d="M102.4,96.3
		c-0.2,13-2.3,25.9-6.1,38.3c-0.2,0.6-0.4,1.3-0.1,1.8c0.3,0.6,1,0.9,1.6,1.1c1.6,0.5,3.3,0.7,5,0.8c4.7-7.9,8.1-16.6,10.1-25.7"/>
	<path fill="none" stroke="#354253" stroke-linecap="round" stroke-linejoin="round" stroke-miterlimit="10" d="M102.5,141.2
		c-1.3,0.4-2.7,0.4-3.9-0.1c-1.3-0.5-2.3-1.4-3-2.5c-1.3,1.2-2.3,2.6-2.7,4.4c-0.2,0.7-0.3,1.5,0.1,2.1c0.3,0.5,0.9,0.8,1.5,1
		c2.2,0.9,4.4,1.9,6.6,2.7c1.8,0.6,3.8,1.2,5.7,0.7c0.5-0.1,0.9-0.3,1.3-0.7c0.2-0.3,0.4-0.6,0.5-1c0.1-0.4,0.2-0.9,0-1.3
		c-0.3-0.5-0.9-0.6-1.4-0.8C105,145,103,143.3,102.5,141.2z"/>
	<path fill="none" stroke="#354253" stroke-linecap="round" stroke-linejoin="round" stroke-miterlimit="10" d="M102.3,138.4
		c-0.2,0.8-0.2,1.7,0,2.5"/>
	<path fill="none" stroke="#354253" stroke-linecap="round" stroke-linejoin="round" stroke-miterlimit="10" d="M95.9,138.7
		c0.3-0.5,0.6-1.1,0.8-1.7"/>
	<path fill="none" stroke="#354253" stroke-linecap="round" stroke-linejoin="round" stroke-miterlimit="10" d="M129.4,139.5
		c0.3,1,0.5,2.1,0.6,3.2"/>
	<path fill="none" stroke="#354253" stroke-linecap="round" stroke-linejoin="round" stroke-miterlimit="10" d="M135.4,137.4
		c0.5,0.6,1.1,1,1.8,1.3"/>
	<path fill="none" stroke="#354253" stroke-linecap="round" stroke-linejoin="round" stroke-miterlimit="10" d="M129.4,142.8
		c2.3,0,4.6-1,6.3-2.6c0.4-0.4,0.8-1,1.4-1.2c0.7-0.3,1.5,0,2.3,0.1c0.9,0.1,1.9,0.1,2.8-0.2c1.2-0.4,2.2-1.1,3.4-1.1
		c1.1,0,2.2,0.7,2.6,1.7c0.3,0.7-0.3,1.7-0.8,2.3c-0.5,0.6-1.2,1.1-1.8,1.6c-3.1,2.1-6.5,3.8-9.9,5.4c-0.9,0.4-2,0.9-3,0.6
		c-1.1-0.4-1.7-1.6-2.2-2.6C129.8,145.5,129.4,144.2,129.4,142.8"/>
	<path fill="none" stroke="#354253" stroke-linecap="round" stroke-linejoin="round" stroke-miterlimit="10" d="M104.7,43.6
		c0,0-0.1,0.1-0.1,0.1c0.3-0.5,0.6-1.1,0.8-1.7"/>
	<path fill="none" stroke="#354253" stroke-linecap="round" stroke-linejoin="round" stroke-miterlimit="10" d="M108.2,23.7
		c-1.3-1-3.3-0.8-4.6,0.2c-1.3,1-2.2,2.5-2.6,4.1c-0.7,2.5-0.7,5.2,0,7.7c0.7,2.5,2.4,4.8,4.4,6.5c1.1-0.9,1.7-2.3,1.6-3.7
		c-0.9-0.8-1.3-2.2-1-3.4c0.1-0.5,0.5-1.1,1-1.1c0.4,0,0.7,0.3,1,0.7c0.6,0.8,1,1.8,1.4,2.8"/>
	<path fill="none" stroke="#354253" stroke-linecap="round" stroke-linejoin="round" stroke-miterlimit="10" d="M114,47.3
		c0.3-1,0.7-2,1.2-2.9c1.4,0,2.8-0.8,3.8-1.7s1.5-2.4,1.5-3.7c0.4-0.3,0.9-0.8,1.1-1.2c0.2-0.5,0.2-1.1,0-1.6
		c-0.2-0.5-0.5-1-0.8-1.5c-0.2-0.5-0.4-1.1-0.4-1.6c-0.1-0.6-0.1-1.1-0.1-1.7c-0.1-1.2-0.5-2.4-1.1-3.4"/>
	<path fill="none" stroke="#354253" stroke-linecap="round" stroke-linejoin="round" stroke-miterlimit="10" d="M109.4,37.4
		c-0.2-0.7-0.1-1.5,0.1-2.2s0.6-1.4,0.9-2.1c0.6-1.4,0.7-3.1,0.3-4.6"/>
	<path fill="none" stroke="#354253" stroke-linecap="round" stroke-linejoin="round" stroke-miterlimit="10" d="M108.1,23.1
		c0.3-0.9,1.3-1.5,2.2-1.5c1-0.1,1.9,0.2,2.8,0.5c0.9,0.3,1.9,0.4,2.8,0.2c1.2-0.4,2-1.4,3.1-2c0.5-0.2,1-0.4,1.5-0.2
		c0.5,0.3,0.7,0.9,0.8,1.5c0.4,2.5-0.7,5.1-2.7,6.6c-2.2,1.7-5.5,1.9-7.9,0.4"/>
	<path fill="none" stroke="#A6DBE5" stroke-miterlimit="10" d="M107.5,93.5c1.9,0.4,3.9,0.7,5.8,0.6s3.9-0.8,5.3-2.2
		c1.5-1.7,2.2-4.3,4.2-5.2"/>
	<g>
		<path fill="#FFFFFF" d="M94.9,147.9l-3.4-5.2c-1.1-2.1-1.7-4.5-2-6.9l0.7-4.3c0.3-1.5,0.8-3,1.4-4.4l2.2-3.9
			c1.2-1.4,2.8-2.3,4.6-2.5l3.1-0.1c1,0,2,0.7,3,0.5c1-0.2,2-0.9,2.1-1.9l0.7-0.7c0.1-0.2,0.2-0.3,0.3-0.5l1-1.8
			c-0.1-0.6-0.2-1.1-0.3-1.7c0-0.2-0.1-0.4-0.2-0.5c-0.3-0.2-0.7-0.2-1-0.1c-0.7,0-1.4-0.3-1.8-0.8l-1-2c-0.1-0.8-0.3-1.7-0.8-2.3
			c-0.5-0.7-1.3-1.1-2.2-1.1l-6.6,0.5c-0.5,0.4-0.8,1-1,1.6c-0.3,0.8-0.7,1.6-1,2.5l-2.3,2.3c-2.5,1.9-5.6,3.4-8.8,3.4l-5.5,0.3
			c-0.2,0-0.5-0.1-0.7-0.1l-4.7-0.5c-0.4-0.1-0.8-0.3-1.2-0.3l-4.8-1c-0.4-0.1-0.7-0.3-1.1-0.3l-3.5-0.1c-0.3,0.1-0.7,0.4-1,0.4
			l-2.6,1.4c-0.3,0.2-0.6,0.4-0.8,0.6l-1.8,1.5c-0.2,0.1-0.4,0.3-0.6,0.4l-0.6,0.3c-0.1,0-0.3,0.1-0.4,0.1l-1.1,0.1
			c-0.8,0-1.5-0.3-2.3-0.3l-1-0.5c-0.1,0-0.2-0.1-0.3-0.1l-0.7-0.4c-0.1-0.1-0.2-0.1-0.3-0.2l-0.3-0.3c-0.1,0-0.1-0.1-0.2-0.1
			l-0.3-0.5c0-0.1,0-0.1-0.1-0.2l-0.3-0.5c0-0.1-0.1-0.3-0.1-0.4l-0.1-0.3c0-0.1-0.1-0.3-0.1-0.4l-0.2-0.5c0-0.1,0-0.2-0.1-0.3
			l-0.1-0.3c0-0.1-0.1-0.3-0.1-0.4l-0.1-0.3c0-0.1,0-0.2,0-0.3v-0.5c0-0.2,0-0.3,0-0.5l-0.1-0.6c0-0.1,0-0.2,0-0.3l-0.1-0.2
			c0,0,0-0.1-0.1-0.1l-0.1-0.1c0,0,0,0-0.1-0.1l-0.2,0.2c0,0-0.1,0.1-0.1,0.1l-0.3,0.4c-0.1,0.1-0.2,0.2-0.3,0.3l-0.2,0.2
			c0,0.1-0.1,0.1-0.1,0.2l-0.3,0.4c0,0.1-0.1,0.2-0.1,0.3l-0.1,0.3c0,0.1,0,0.2-0.1,0.3l-0.1,0.4c0,0.1,0,0.2-0.1,0.3v0.3
			c0,0.1,0,0.2,0,0.3v0.3c0,0.1,0,0.1,0,0.2v0.3c0,0.1,0,0.2,0,0.3l0.1,0.3c0,0.1,0,0.2,0.1,0.3l0.1,0.1c0,0,0,0,0.1,0.1l0.2-0.1
			c0,0,0.1,0,0.1,0.1h0.1c0,0.1,0,0.1,0.1,0.2l0.1,0.3c0,0.1,0,0.2,0.1,0.3l0.2,0.7c0,0.2,0,0.3,0.1,0.5l0.3,0.7c0,0,0,0,0.1,0
			l0.8,0.2l1.4,2c0,0,0.1,0,0.1,0H47c0-0.1,0-0.3,0.1-0.4v-0.1c0.1,0,0.2,0.1,0.3,0.1l1.9,1.2c1,0,1.9,0.3,2.8,0.5
			c0.1,0,0.3,0,0.4,0.1c0.1,0.1,0.2,0.3,0.2,0.4c0.3,1.7,0.8,3.3,1.1,4.9l0.1,0.3c0,0.1,0.1,0.2,0.1,0.3l0.2,0.8
			c0.1,0.2,0.1,0.4,0.2,0.6l0.1,0.2c0,0.1,0.1,0.3,0.1,0.4l0.1,0.3c0,0.1,0,0.2,0.1,0.3l0.1,0.4c0,0.1,0,0.2,0.1,0.3l0.1,0.5
			c0,0.1,0,0.1,0,0.2l-0.3,0.3c-0.7,1.4-1.8,2.6-3.1,3.4c-0.3,0.2-0.6,0.3-0.8,0.6c-0.2,0.2-0.5,0.5-0.5,0.8l-0.1,0.5
			c0,0.1,0,0.1-0.1,0.2v1.1c0,0.2,0,0.3,0,0.5l0.1,1c0,0.2,0,0.4,0.1,0.6l0.1,1.4c0,0.3,0.1,0.6,0.1,0.9l0.1,0.8
			c0,0.3,0.1,0.6,0.1,0.8l0.2,0.8c0,0,0,0.1,0,0.1l0.1,0.5c0,0,0,0.1,0.1,0.1l0.2,0.5c0,0.1,0,0.1,0.1,0.2l0.1,0.1c0,0,0,0,0.1,0H52
			c0.1,0,0.1,0,0.2-0.1l0.3-0.1c0,0,0.1,0,0.1-0.1l0.1-0.4c0-0.3-0.1-0.6-0.1-0.9l-0.1-1.2c0-0.4,0-0.8-0.1-1.2v-0.7
			c0-0.2,0-0.4,0-0.7l-0.1-0.4c0-0.2,0-0.4,0.1-0.6l0.3-0.8c0.1-0.1,0.1-0.2,0.2-0.3l0.7-1c0.1-0.2,0.3-0.3,0.4-0.5l0.5-0.5
			c0.1-0.1,0.1-0.1,0.2-0.2l0.5-0.6c0.1,0,0.1-0.1,0.2-0.1v0.8c0,0.2,0,0.3,0.1,0.5l0.4,1.4c0,0.1,0.1,0.2,0.1,0.3l0.5,1
			c0,0.1,0.1,0.3,0.1,0.4l0.3,0.8c0.1,0.2,0.1,0.3,0.2,0.5l0.2,0.3c0.1,0.2,0.2,0.4,0.3,0.6l0.2,0.5c0.1,0.2,0.2,0.3,0.3,0.5
			l0.3,0.6c0.1,0.1,0.1,0.2,0.2,0.3l0.4,0.8c0.1,0.1,0.1,0.2,0.2,0.3l0.4,0.7c0,0.1,0.1,0.2,0.1,0.3l0.3,0.5c0.1,0,0.1,0.1,0.1,0.1
			l0.2,0.2c0.3,0.4,0.9,0.5,1.3,0.2s0.5-0.9,0.2-1.3l-0.1-0.5c-0.1-0.3-0.2-0.6-0.3-0.9l-0.4-1.1c-0.1-0.2-0.1-0.3-0.2-0.5l-0.3-0.6
			c-0.1-0.2-0.1-0.3-0.2-0.5l-0.3-0.9c-0.1-0.2-0.1-0.5-0.2-0.7v-0.9c0.1-0.2,0.1-0.5,0.2-0.7l0.3-0.7c0.1-0.2,0.2-0.4,0.3-0.6
			l0.5-0.7c0.2-0.2,0.4-0.5,0.6-0.7l0.5-0.7c0.1-0.1,0.1-0.1,0.2-0.2l0.5-0.6c0.2-0.2,0.3-0.3,0.5-0.5l0.5-0.8
			c0.2-0.3,0.3-0.5,0.5-0.8l0.3-0.5c0-0.1,0-0.1,0.1-0.2l0.1-0.5c0-0.1,0-0.2,0.1-0.3v-0.7c0-0.2-0.1-0.4-0.1-0.7l-0.1-0.5
			c0-0.1-0.1-0.2-0.1-0.3l-0.1-0.3l0.9-0.1c0.2,0,0.4-0.1,0.7-0.1h0.8c0.3,0,0.6,0,0.9,0l0.9,0.1c0.2,0,0.4,0,0.7,0.1h0.5
			c0.2,0,0.3,0,0.5,0.1h0.7c0.1,0,0.2,0,0.3,0l0.5,0.1c0,0,0.1,0,0.1,0l0.5,0.3c0.2,0,0.3,0.1,0.5,0.2l0.7,0.3
			c0.2,0,0.3,0.1,0.5,0.2l0.5,0.2c0.1,0,0.3,0.1,0.4,0.1l0.3,0.1c0.1,0,0.2,0,0.3,0.1l0.5,0.1c0.1,0,0.1,0,0.2,0.1l0.5,0.2
			c0.2,0,0.3,0.1,0.5,0.1l0.5,0.2c0,0,0.1,0,0.1,0.1l0.6,0.1c0.1,0,0.2,0,0.3,0.1l0.4,0.1c0,0,0.1,0,0.1,0l0.3,0.1
			c0.2,0,0.3,0,0.5,0.1h0.5c0.1,0,0.2,0,0.3,0.1c-0.1,0.2-0.1,0.3-0.2,0.5l-0.1,0.3c0,0.1,0,0.2-0.1,0.3v0.8c0,0.2,0,0.4-0.1,0.6
			l-0.1,1.1c0,0.2-0.1,0.3-0.1,0.5l-0.1,1c0,0.1,0,0.3,0,0.4l0.1,0.8c0,0.2,0,0.4,0.1,0.7l0.1,1.1c0,0.2,0,0.4-0.1,0.6l-0.1,1
			c0,0.2,0,0.4,0.1,0.7l0.1,0.5c0,0.2,0,0.4,0.1,0.6l0.2,0.8c0,0.2,0.1,0.3,0.1,0.5l0.3,0.8c0,0.1,0.1,0.3,0.1,0.4l0.3,0.5
			c0.1,0.1,0.3,0.2,0.4,0.3l0.5,0.1c0.3,0,0.6,0.1,0.9-0.1v-0.3c0,0,0,0,0-0.1l-0.1-0.5c0-0.2,0-0.4,0-0.7l-0.1-1c0-0.2,0-0.5,0-0.7
			v-1.2c0-0.2,0-0.4,0-0.6V144c0-0.2,0-0.4,0-0.6v-0.7c0.1-0.3,0.1-0.7,0.2-1l0.2-1c0.1-0.2,0.1-0.3,0.2-0.5l0.2-0.8
			c0-0.2,0.1-0.3,0.1-0.5l0.3-1c0.1-0.3,0.1-0.6,0.2-0.9l0.1-0.7c0-0.1,0-0.3,0.1-0.4l0.1-0.3l0.2,0.8c0.1,0.3,0.2,0.7,0.3,1
			l0.4,0.9c0.1,0.2,0.2,0.5,0.3,0.7L86,140c0.1,0.2,0.2,0.4,0.3,0.7l0.7,1.3c0.2,0.3,0.3,0.5,0.5,0.8l0.5,0.7
			c0.2,0.3,0.3,0.6,0.5,0.8l0.7,0.8c0.2,0.3,0.5,0.6,0.7,0.8l0.5,0.6c0.2,0.2,0.4,0.3,0.6,0.5l0.6,0.6c0.2,0.2,0.4,0.4,0.7,0.6
			l0.4,0.4c0.3,0.3,1,1.2,1.5,1.2C94.9,150,95.3,148.6,94.9,147.9z"/>
		<path fill="#A6DBE5" d="M99.1,112.7c-0.3,1.7-1.3,3.5-2.9,4.3c-0.7,0.4-1.7,0.5-2.3,0c-0.5-0.4-0.6-1.2-0.6-1.9
			c-0.1-1.2,0-2.4,0-3.5c0-1,0.2-2.1,0.8-2.8c0.6-0.7,1.5-1.1,2.4-1.1c0.9-0.1,2.2-0.2,2.6,0.7C99.7,109.3,99.3,111.6,99.1,112.7z"
			/>
		<path fill="#DDF2F6" d="M61.7,134.3c0.4,1.5-0.1,3.1-0.7,4.6s-1.3,3-1.2,4.5c-0.1-1.5,0.8-2.8,1.8-3.9c1.1-1.2,2.4-2.4,2.8-4.1
			c0.3-1.3,0.2-2.9-1.5-2.7C61.8,132.8,61.4,133.2,61.7,134.3z"/>
		<path fill="#DDF2F6" d="M52.7,137.2c-1,0.6-2,1.3-2.5,2.4c-0.4,0.9-0.3,1.9-0.2,2.8c0.2,1.9,0.4,3.8,0.6,5.7
			c0.1,0.5,0.1,1.1,0.5,1.5s1,0.5,1.3,0.1c-0.2-1.2-0.4-2.5-0.4-3.8c0-1.3,0.2-2.6,0.9-3.7c0.6-1,1.5-1.8,2.1-2.9
			c0.3-0.6,0.6-1.2,0.6-1.9c0.1-0.5,0.2-1.6-0.1-2c-0.4-0.4-0.9,0.1-1.2,0.4C53.9,136.4,53.4,136.8,52.7,137.2z"/>
		<path fill="#DDF2F6" d="M43.6,117.5c0.1-0.1,0.2-0.3,0.3-0.4c0,0.9,0.1,1.7,0.3,2.5c-0.1-0.3,0.4-0.6,0.7-0.4
			c0.3,0.1,0.4,0.5,0.5,0.8c0.1,0.3,0.1,0.7,0.2,1c0.1,0.3,0.5,0.5,0.8,0.4c-0.1-0.4,0.5-0.6,0.9-0.4s0.6,0.5,0.8,0.9
			c0.6,0.8,1.5,1.3,2.5,1.3s2-0.4,2.6-1.1c0,0.5,0,1-0.1,1.5c-0.1,0.5-0.5,0.9-0.9,1c-0.3,0.1-0.6,0.1-0.9,0
			c-1.6-0.2-3.1-0.9-4.4-1.9c0,0.2-0.1,0.4-0.1,0.6c-1.1-0.5-2-1.5-2.3-2.7c0.2,0.1,0.1,0.4-0.1,0.5c-0.2,0.1-0.4,0-0.5-0.2
			s-0.2-0.3-0.2-0.5c-0.2-0.8-0.4-1.5-0.6-2.3c-0.1,0.2-0.4,0.4-0.6,0.4c-0.3,0.1-0.3-2.5-0.2-2.7c0.2-0.9,0.6-1.8,1.1-2.5
			c0.8-1,0.6,0.2,0.4,0.8C43.5,115.2,43.4,116.3,43.6,117.5z"/>
		<path fill="#DDF2F6" d="M80.6,135.5c1.3,0.2,2.6,0.2,4,0.1c-0.3-1.2-0.5-2.5-0.9-3.7c-0.3-0.7-0.3,0.1-0.4,0.4
			c-0.1,0.5-0.4,0.9-0.8,1.3c-0.7,0.6-1.7,0.9-2.6,0.9c-0.9,0-1.9-0.3-2.8-0.5c0.9,0.8,2,1.3,3.2,1.5c0.6,0.1,1.3,0,1.9,0
			c0.7,0,1.4,0,2.1,0c0.1,0,0.3,0,0.4,0.1c0.1,0.1,0,0.4,0,0.5c-1.3,3.1-2,6.4-1.8,9.8c-0.5-1.6-0.5-3.4-0.5-5.1
			c-0.1-1.7-0.3-3.5-1.3-4.9"/>
		<path fill="none" stroke="#354253" stroke-linecap="round" stroke-linejoin="round" stroke-miterlimit="10" d="M84.6,135.5
			c-2.4,0.4-4.8-0.1-7.1-0.8c-2.3-0.7-4.5-1.7-6.9-2.2c-2.4-0.5-4.9-0.5-7.1,0.6"/>
		<path fill="none" stroke="#354253" stroke-linecap="round" stroke-linejoin="round" stroke-miterlimit="10" d="M53.4,122.3
			c-0.9,1.8-0.8,3.9-0.2,5.8c0.5,1.9,1.4,3.7,2,5.6c0.6,1.9,0.7,3.9,0.3,5.9c-0.4,1.7,2,7.2,4,10.4c0.3,0.5,0.6,0.9,1.1,1.1
			s1.2,0,1.3-0.5c0.1-0.3-0.1-0.6-0.2-0.9c-1.1-2.2-2.2-4.6-1.6-7c0.3-1.3,1.2-2.3,2-3.3c0.8-1,1.7-2,2.3-3.2
			c0.5-1.1,0.7-2.5,0.1-3.6"/>
		<path fill="none" stroke="#354253" stroke-linecap="round" stroke-linejoin="round" stroke-miterlimit="10" d="M55.1,133.8
			c-0.6,1.7-1.7,3.2-3.2,4.3c-0.6,0.4-1.2,0.8-1.5,1.3c-0.4,0.6-0.4,1.4-0.3,2.1c0.1,2.7,0.4,5.4,0.8,8c0.5,0.3,1.3,0.3,1.8-0.1
			c-0.2-1-0.3-2.1-0.4-3.2c-0.1-1,0-2.1,0.4-3.1c0.6-1.4,1.7-2.5,2.6-3.7"/>
		<path fill="none" stroke="#354253" stroke-linecap="round" stroke-linejoin="round" stroke-miterlimit="10" d="M80.7,135.7
			c-0.7,3.8-0.7,7.7-0.2,11.5c0.1,0.7,0.3,1.5,0.7,2c0.5,0.6,1.3,0.8,1.9,0.4c-0.8-4.3-0.1-9.2,1.4-13.4"/>
		<path fill="none" stroke="#354253" stroke-linecap="round" stroke-linejoin="round" stroke-miterlimit="10" d="M83.4,131.3
			c1,1.8,1.1,3.9,1.6,5.9c1.1,4.6,4.4,8.4,7.6,11.8c0.3,0.3,0.6,0.6,1,0.8c0.4,0.2,0.9,0.1,1.2-0.2c1-1.1-1.8-4.1-2.4-5
			c-1.2-1.9-2.2-3.9-2.6-6c-0.6-3.3,0.2-6.6,1.1-9.8c0.7-2.2,1.5-4.7,3.3-6.3c1.7-1.5,4-2.2,6.2-1.9c1.1,0.2,2.1,0.6,3.2,0.6
			c1.4,0,2.8-0.8,3.2-2.1"/>
		<path fill="none" stroke="#354253" stroke-linecap="round" stroke-linejoin="round" stroke-miterlimit="10" d="M104.4,118.2
			c0.3,0.3,0.7,0.7,1.1,0.9s0.9,0.3,1.3,0c0.2-0.1,0.4-0.3,0.6-0.6c0.7-1,1.5-2.4,1.7-3.7c0.1-0.4-0.2-0.7-0.6-0.7
			c-1.2,0.1-2.7-0.4-3.3-1.3c-0.9-1.3-0.8-3.1-1.9-4.2c-0.9-0.8-2.2-1-3.4-1c-1.3,0-2.5,0-3.8,0.1c-0.6,0.1-1.3,0.2-1.8,0.6
			c-0.7,0.6-0.9,1.5-0.9,2.4c-0.1,1.3-0.2,2.6-0.1,3.9c0,0.8,0.2,1.7,0.8,2.3c0.5,0.4,1.2,0.4,1.9,0.3c1.4-0.3,2.5-1.5,3-2.9
			c0.5-1.4,0.5-2.9,0.4-4.3c-0.1-0.7-0.2-1.3-0.3-2"/>
		<path fill="none" stroke="#354253" stroke-linecap="round" stroke-linejoin="round" stroke-miterlimit="10" d="M93.2,111.2
			c-2.3,4.8-10.1,7.4-16.1,7.3c-2.8-0.1-5.5-0.7-8.2-1.3s-5.5-1.1-8.2-0.9c-2.8,0.2-5,1.8-6.9,3.8c-1.1,1.2-3.6,0.7-5.2,0.2
			c-1.6-0.5-2.8-1.8-3.5-3.4c-0.7-1.5-0.8-3.2-0.6-4.9c-1,0.8-1.8,1.6-2.1,2.9c-0.3,1.3-0.3,2.7,0.2,3.9c0.2-0.1,0.4-0.4,0.5-0.6
			c0,1.1,0.5,2.2,1.1,3.1c0.1-0.3,0.3-0.5,0.4-0.8c0.2,1.1,1.2,2.1,2.2,2.6c-0.1-0.3,0-0.6,0.2-0.9c1.2,1.5,3.3,2.1,5.2,2"/>
		<path fill="#354253" d="M108.4,116.5c0.3-0.5,0.4-1.1,0.5-1.7c0-0.1,0-0.3-0.1-0.4c-0.2-0.2-1-0.3-1.2-0.2
			c-0.3,0.1-0.5,0.3-0.5,0.6c0,0.4,0.2,0.7,0.4,1C107.5,115.9,108.3,116.7,108.4,116.5z"/>
		<path fill="#354253" d="M101.6,114.6c0.1,0.1,0.3,0.1,0.4,0.2c0.3,0.1,0.6,0.1,0.9,0c0.3-0.1,0.5-0.4,0.5-0.6
			c0-0.2-0.2-0.4-0.4-0.5s-0.4-0.1-0.6-0.1c-0.2,0-0.4,0-0.6,0.1C101.4,113.9,101.2,114.4,101.6,114.6z"/>
	</g>
	<path fill="none" stroke="#A6DBE5" stroke-miterlimit="10" d="M94.4,122.9c-3.1-1.4-5.5-4.7-5.9-8c-0.5-4.4,0.6-9.2,3.1-12.8
		s6.5-6.2,10.8-7.1"/>
	<path fill="none" stroke="#354253" stroke-linecap="round" stroke-linejoin="round" stroke-miterlimit="10" d="M107.6,91.8
		c-0.3,0.7,0,1.5,0.3,2.3s0.4,1.6-0.1,2.2c-0.5,0.6-1.3,0.6-2,0.6c-1.3,0-2.8-0.1-3.5-1.1c-0.6-0.9-0.4-2-0.3-3.1
		c0.3-4.1-1.6-8.1-2.7-12c-0.9-3.2-1.4-6.6-1.4-9.9"/>
	<path fill="none" stroke="#A6DBE5" stroke-miterlimit="10" d="M94.3,122.9c0.2,0.1,0.3,0.2,0.5,0.2c0.2,0,0.4,0,0.5,0
		c0.1,0,0.1-0.1,0.2-0.1"/>
</g>
</svg>
