<?xml version="1.0" encoding="utf-8"?>
<!-- Generator: Adobe Illustrator 24.0.1, SVG Export Plug-In . SVG Version: 6.00 Build 0)  -->
<svg version="1.1" id="Layer_1" xmlns="http://www.w3.org/2000/svg" xmlns:xlink="http://www.w3.org/1999/xlink" x="0px" y="0px"
	 viewBox="0 0 15 15" style="enable-background:new 0 0 15 15;" xml:space="preserve">
<g>
	<g>
		<path d="M12.95,14.25v0.02c0,0.18-0.15,0.33-0.33,0.33h-0.93c-0.42,0-0.78-0.32-0.83-0.74l-0.23-2.07l-0.03,0.05
			c-0.01,0.02-0.03,0.04-0.05,0.06l-1.48,1.35l0.23,0.03c0.48,0.07,0.85,0.47,0.86,0.95c0,0.01,0,0.02,0,0.04
			c0,0.18-0.15,0.33-0.33,0.33l0,0H4.44l0,0l0,0c-0.04,0-0.98,0-1.73-0.19c-0.19-0.05-0.41-0.14-0.67-0.3
			c-0.47-0.28-0.88-0.66-1.2-1.12l-0.02-0.03c-0.07-0.1-0.08-0.23-0.02-0.34c0.01-0.01,0.01-0.03,0.02-0.04l-0.26-0.36
			c-0.1-0.14-0.08-0.34,0.05-0.45c0.07-0.06,0.14-0.13,0.18-0.19c-0.21-0.63-0.21-0.67-0.21-0.73c0-0.2,0.12-0.29,0.29-0.35
			l-0.09-0.29C0.75,10.1,0.77,9.98,0.84,9.9c0.07-0.09,0.18-0.13,0.3-0.12l0.1,0.01l0.23-0.96C1.5,8.72,1.61,8.62,1.75,8.61
			s0.27,0.06,0.33,0.18l0.04,0.08L2.3,8.58c0.07-0.13,0.23-0.2,0.37-0.16c0.15,0.04,0.25,0.17,0.25,0.32V8.8l0.22-0.08
			C3.3,8.66,3.47,8.74,3.55,8.89c0.07,0.15,0.02,0.34-0.12,0.43c-0.05,0.03-1.17,0.78-0.97,2.35c0.15,1.12,1.12,1.63,1.67,1.83
			c0.01-0.22,0.03-0.47,0.06-0.76c0.17-1.79,0.83-3.5,1.9-4.96c0.25-0.34,0.5-0.66,0.74-0.93c0.69-0.8,1.3-1.39,1.69-1.74
			C8.58,5.04,8.65,4.96,8.7,4.88l4.18,1.38l0.02,0.8c0.02,0.73-0.18,1.44-0.56,2.05c-0.11,0.17-0.16,0.36-0.16,0.57l0.03,3.76
			C12.62,13.48,12.95,13.83,12.95,14.25L12.95,14.25z M14.73,2.67c-0.06-0.09-0.16-0.14-0.26-0.15l-1.75-0.06L12.3,1.82
			c-0.05-0.08-0.13-0.13-0.22-0.14l-1.87-0.35l-0.4-0.75c-0.07-0.14-0.22-0.2-0.36-0.17C9.3,0.44,9.2,0.56,9.18,0.7L8.9,4.24
			l3.96,1.31l-0.03-1.01l0.56-0.08c0.52-0.07,0.96-0.42,1.14-0.91l0.22-0.58C14.8,2.87,14.79,2.76,14.73,2.67L14.73,2.67z"/>
	</g>
</g>
</svg>
