<?xml version="1.0" encoding="utf-8"?>
<!-- Generator: Adobe Illustrator 24.0.1, SVG Export Plug-In . SVG Version: 6.00 Build 0)  -->
<svg version="1.1" id="Layer_1" xmlns="http://www.w3.org/2000/svg" xmlns:xlink="http://www.w3.org/1999/xlink" x="0px" y="0px"
	 viewBox="0 0 15 15" style="enable-background:new 0 0 15 15;" xml:space="preserve">
<g>
	<g>
		<path d="M5.02,6.19c0.03,0.22,0.13,0.42,0.3,0.59c0.92,0.87,2.27-0.26,1.61-1.31L9.2,3.2c1.06,0.66,2.18-0.69,1.31-1.61
			c-0.17-0.17-0.37-0.26-0.59-0.3C9.89,1.08,9.79,0.87,9.63,0.7c-0.41-0.41-1.07-0.41-1.48,0c-0.36,0.36-0.4,0.91-0.13,1.31
			L5.75,4.29C5.34,4.02,4.79,4.06,4.43,4.42C3.82,5.02,4.18,6.08,5.02,6.19L5.02,6.19z M5.02,6.19"/>
	</g>
	<path d="M1.83,10.84L1.36,12.1h12.28l-0.47-1.25H1.83z M1.83,10.84"/>
	<path d="M2.14,10.01h10.71l-0.47-1.25H2.61L2.14,10.01z M2.14,10.01"/>
	<rect x="0.4" y="12.93" width="14.21" height="1.67"/>
	<path d="M1.77,1.95l0.59-0.59l0.59,0.59L2.36,2.54L1.77,1.95z M1.77,1.95"/>
	<path d="M4.52,2.07l0.59-0.59l0.59,0.59L5.11,2.66L4.52,2.07z M4.52,2.07"/>
	<path d="M1.18,5.11l0.59-0.59l0.59,0.59L1.77,5.71L1.18,5.11z M1.18,5.11"/>
	<path d="M12.88,6.2l0.59-0.59l0.59,0.59l-0.59,0.59L12.88,6.2z M12.88,6.2"/>
	<path d="M12.76,3.44l0.59-0.59l0.59,0.59l-0.59,0.59L12.76,3.44z M12.76,3.44"/>
	<path d="M9.71,6.79L10.3,6.2l0.59,0.59L10.3,7.38L9.71,6.79z M9.71,6.79"/>
</g>
</svg>
