<?xml version="1.0" encoding="utf-8"?>
<!-- Generator: Adobe Illustrator 24.0.1, SVG Export Plug-In . SVG Version: 6.00 Build 0)  -->
<svg version="1.1" id="Layer_1" xmlns="http://www.w3.org/2000/svg" xmlns:xlink="http://www.w3.org/1999/xlink" x="0px" y="0px"
	 viewBox="0 0 15 15" style="enable-background:new 0 0 15 15;" xml:space="preserve">
<g>
	<path d="M0.76,11.87l7.31-2.32l0.52,1.63l-7.31,2.32L0.76,11.87z M0.76,11.87"/>
	<path d="M11.93,9.73c-1.28,0-2.31,1.04-2.31,2.31s1.04,2.31,2.31,2.31c1.28,0,2.31-1.04,2.31-2.31S13.21,9.73,11.93,9.73
		L11.93,9.73z M13.27,12.82l-0.57,0.57l-0.77-0.77l-0.77,0.77l-0.57-0.57l0.77-0.77l-0.77-0.77l0.57-0.57l0.77,0.77l0.77-0.77
		l0.57,0.57l-0.77,0.77L13.27,12.82z M13.27,12.82"/>
	<path d="M8.87,12.64H4v1.71h5.84C9.35,13.92,9,13.32,8.87,12.64L8.87,12.64z M8.87,12.64"/>
	<path d="M7.33,8.66c2.22,0,4.01-1.8,4.01-4.01s-1.8-4.01-4.01-4.01c-2.22,0-4.01,1.8-4.01,4.01S5.12,8.66,7.33,8.66L7.33,8.66z
		 M6.93,2.47V1.83h0.8v0.64C8.37,2.55,8.87,3.1,8.87,3.76h-0.8c0-0.27-0.22-0.5-0.5-0.5H7.09c-0.27,0-0.49,0.22-0.49,0.5
		c0,0.27,0.22,0.49,0.49,0.49h0.49c0.72,0,1.3,0.58,1.3,1.3c0,0.66-0.5,1.21-1.14,1.29v0.64h-0.8V6.84
		C6.29,6.77,5.79,6.22,5.79,5.56h0.8c0,0.26,0.21,0.48,0.48,0.48h0.5c0.27,0,0.5-0.22,0.5-0.49c0-0.27-0.22-0.5-0.5-0.5H7.09
		c-0.72,0-1.3-0.58-1.3-1.3C5.79,3.09,6.29,2.54,6.93,2.47L6.93,2.47z M6.93,2.47"/>
</g>
</svg>
