<?xml version="1.0" encoding="utf-8"?>
<!-- Generator: Adobe Illustrator 24.0.1, SVG Export Plug-In . SVG Version: 6.00 Build 0)  -->
<svg version="1.1" id="Layer_1" xmlns="http://www.w3.org/2000/svg" xmlns:xlink="http://www.w3.org/1999/xlink" x="0px" y="0px"
	 viewBox="0 0 15 15" style="enable-background:new 0 0 15 15;" xml:space="preserve">
<g>
	<g>
		<path d="M4.95,10.06c0.73,0,1.26-0.73,1.17-1.55c-0.08-0.78-0.7-1.35-1.36-1.28C4.09,7.3,3.62,8,3.7,8.78
			C3.78,9.53,4.34,10.06,4.95,10.06L4.95,10.06z M4.95,10.06"/>
		<path d="M1.19,9.25c-0.59,0.35-0.75,1.12-0.4,1.71c0.35,0.6,1.11,0.81,1.69,0.46c0.59-0.35,0.75-1.12,0.4-1.71
			C2.53,9.12,1.77,8.9,1.19,9.25L1.19,9.25z M1.19,9.25"/>
		<path d="M7.63,8.58c-0.58,0.34-0.76,1.11-0.4,1.71c0.55,0.95,1.99,0.8,2.25-0.3C9.72,8.94,8.56,8.03,7.63,8.58L7.63,8.58z
			 M7.63,8.58"/>
		<path d="M7.47,12.46c-0.32-0.88-1.32-1.51-2.25-1.41L5.1,11.06c-0.93,0.1-1.78,0.91-1.92,1.84l-0.02,0.17
			c-0.05,0.36,0.06,0.71,0.31,0.97c0.25,0.26,0.6,0.39,0.96,0.35c0.34-0.04,0.65-0.22,0.84-0.51L5.4,13.7
			c0.02-0.02,0.05-0.03,0.07-0.01l0.16,0.16c0.51,0.51,1.42,0.41,1.79-0.21c0.19-0.3,0.23-0.67,0.11-1.01L7.47,12.46z M7.47,12.46"
			/>
		<path d="M10.92,3.13c0.53-0.46,0.69-1.29,0.36-1.91C10.92,0.55,10.11,0.4,9.53,0.9C9,1.35,8.84,2.19,9.17,2.81
			C9.53,3.48,10.34,3.63,10.92,3.13L10.92,3.13z M10.92,3.13"/>
		<path d="M13.89,2.91c-0.56-0.39-1.33-0.23-1.72,0.33c-0.4,0.57-0.28,1.35,0.27,1.73C13,5.36,13.77,5.2,14.16,4.64
			C14.56,4.08,14.45,3.3,13.89,2.91L13.89,2.91z M13.89,2.91"/>
	</g>
	<path d="M6.07,3.81C6.62,4.2,7.39,4.05,7.79,3.48C8.7,2.07,6.82,0.75,5.8,2.08C5.4,2.65,5.52,3.43,6.07,3.81L6.07,3.81z M6.07,3.81
		"/>
	<path d="M11.63,6.57c0.01-1-0.79-1.98-1.78-2.16c-0.05,0-0.7-0.21-1.5,0.21c-0.44,0.23-0.79,0.59-0.98,1L7.31,5.78
		C7.16,6.11,7.17,6.48,7.34,6.8c0.35,0.66,1.21,0.82,1.77,0.35c0,0,0.18-0.15,0.17-0.15C9.3,6.98,9.34,6.99,9.35,7.01l0.11,0.2
		c0.12,0.21,0.3,0.37,0.52,0.48c0.16,0.07,0.32,0.11,0.49,0.11C11.1,7.8,11.68,7.26,11.63,6.57L11.63,6.57z M11.63,6.57"/>
</g>
</svg>
