<?xml version="1.0" encoding="utf-8"?>
<!-- Generator: Adobe Illustrator 24.0.1, SVG Export Plug-In . SVG Version: 6.00 Build 0)  -->
<svg version="1.1" id="Layer_1" xmlns="http://www.w3.org/2000/svg" xmlns:xlink="http://www.w3.org/1999/xlink" x="0px" y="0px"
	 viewBox="0 0 72 93" style="enable-background:new 0 0 72 93;" xml:space="preserve">
<style type="text/css">
	.st0{fill:#A6DBE4;}
	.st1{fill:#F4815A;}
</style>
<g>
	<rect x="23.5" y="41.48" class="st0" width="25" height="30.36"/>
	<path class="st1" d="M54.71,30.94l-8.36-5.53v-5.24c0-3.19-2.6-5.78-5.8-5.78c-2.92,0-5.34,2.16-5.74,4.96L17.29,30.94
		c-0.35,0.23-0.56,0.62-0.56,1.05v45.37c0,0.69,0.56,1.25,1.25,1.25h36.04c0.69,0,1.25-0.56,1.25-1.25V31.99
		C55.27,31.57,55.06,31.17,54.71,30.94L54.71,30.94z M40.55,16.9c1.82,0,3.29,1.47,3.29,3.28v3.58l-6.51-4.3
		C37.67,17.99,38.98,16.9,40.55,16.9L40.55,16.9z M36,30.18c1.14,0,2.07,0.92,2.07,2.06c0,1.13-0.93,2.06-2.07,2.06
		c-1.14,0-2.07-0.92-2.07-2.06C33.93,31.1,34.86,30.18,36,30.18L36,30.18z M52.76,76.1H19.24V32.66L34.75,22.4v5.44
		c-1.92,0.55-3.32,2.31-3.32,4.39c0,2.52,2.05,4.56,4.58,4.56c2.52,0,4.58-2.05,4.58-4.56c0-2.08-1.41-3.84-3.32-4.39V22.4
		l15.51,10.26V76.1z M52.76,76.1"/>
	<path class="st1" d="M33.84,56.95c-0.43-0.54-1.22-0.62-1.76-0.19c-0.54,0.43-0.62,1.22-0.19,1.76c0.7,0.87,1.72,1.37,2.72,1.6
		c0.05,0.65,0.59,1.17,1.25,1.17c0.63,0,1.15-0.47,1.24-1.08c1.8-0.31,3.06-1.51,3.27-3.13c0.24-1.88-0.98-3.69-2.97-4.39
		c-0.1-0.03-0.19-0.07-0.28-0.1v-2.51c0.13,0.08,0.22,0.16,0.28,0.24c0.4,0.57,1.18,0.7,1.75,0.3c0.57-0.4,0.7-1.18,0.31-1.75
		c-0.46-0.66-1.28-1.22-2.33-1.45c-0.01-0.68-0.57-1.23-1.25-1.23c-0.69,0-1.25,0.56-1.25,1.25v0.06c-0.08,0.02-0.17,0.05-0.25,0.07
		c-1.33,0.4-2.34,1.69-2.45,3.13c-0.11,1.44,0.65,2.68,2.04,3.33c0.15,0.07,0.38,0.17,0.66,0.28v3.16
		C34.29,57.37,34.02,57.18,33.84,56.95L33.84,56.95z M37.88,56.78c-0.05,0.39-0.32,0.69-0.77,0.86v-2.29
		C37.71,55.74,37.93,56.32,37.88,56.78L37.88,56.78z M34.41,50.92c0.01-0.19,0.09-0.39,0.2-0.55v1.14
		C34.45,51.35,34.39,51.15,34.41,50.92L34.41,50.92z M34.41,50.92"/>
	<path class="st1" d="M27.64,66.52c0,0.69,0.56,1.25,1.25,1.25h13.96c0.69,0,1.25-0.56,1.25-1.25c0-0.69-0.56-1.25-1.25-1.25H28.9
		C28.21,65.26,27.64,65.82,27.64,66.52L27.64,66.52z M27.64,66.52"/>
</g>
</svg>
