<?xml version="1.0" encoding="utf-8"?>
<!-- Generator: Adobe Illustrator 24.0.1, SVG Export Plug-In . SVG Version: 6.00 Build 0)  -->
<svg version="1.1" id="Layer_1" xmlns="http://www.w3.org/2000/svg" xmlns:xlink="http://www.w3.org/1999/xlink" x="0px" y="0px"
	 viewBox="0 0 72 93" style="enable-background:new 0 0 72 93;" xml:space="preserve">
<style type="text/css">
	.st0{fill:#F4815A;}
	.st1{fill:#A6DBE4;}
</style>
<g>
	<path class="st0" d="M62.86,46.78h-0.75v-7.73c0-14.39-11.71-26.1-26.11-26.1c-14.4,0-26.11,11.71-26.11,26.1v7.73H9.14
		C6.86,46.78,5,48.64,5,50.92v7.86c0,2.28,1.86,4.14,4.14,4.14h8.19c0.72,0,1.31-0.59,1.31-1.31c0-0.72-0.59-1.31-1.31-1.31H9.14
		c-0.83,0-1.51-0.68-1.51-1.51v-7.86c0-0.84,0.68-1.52,1.51-1.52h8.19c0.72,0,1.31-0.59,1.31-1.31v-9.04
		c0-9.57,7.79-17.36,17.37-17.36c9.58,0,17.37,7.79,17.37,17.36v9.02c0,0.01,0,0.01,0,0.02c0,0.72,0.59,1.31,1.31,1.31h8.19
		c0.83,0,1.51,0.68,1.51,1.52v7.86c0,0.84-0.68,1.51-1.51,1.51h-8.19c-0.72,0-1.31,0.59-1.31,1.31c0,0.72,0.59,1.31,1.31,1.31h4.19
		v5.17c0,3.79-3.08,6.87-6.87,6.87h-9.45c-0.72,0-1.31,0.59-1.31,1.31c0,0.72,0.59,1.31,1.31,1.31H52c5.23,0,9.49-4.26,9.49-9.49
		v-5.17h1.37c2.28,0,4.14-1.86,4.14-4.14v-7.86C67,48.64,65.14,46.78,62.86,46.78L62.86,46.78z M55.99,46.78v-7.73
		c0-11.02-8.97-19.98-19.99-19.98c-11.02,0-19.99,8.96-19.99,19.98v7.73h-3.5v-7.73c0-12.95,10.54-23.48,23.49-23.48
		c12.95,0,23.49,10.53,23.49,23.48v7.73H55.99z M55.99,46.78"/>
	<path class="st1" d="M39.25,80.05h-6.51c-2.09,0-3.78-1.69-3.78-3.78c0-2.09,1.69-3.78,3.78-3.78h6.51c2.09,0,3.78,1.69,3.78,3.78
		C43.04,78.36,41.34,80.05,39.25,80.05L39.25,80.05z M39.25,80.05"/>
	<path class="st1" d="M20.79,66.1c-2.78,0-5.04-2.26-5.04-5.04V48.64c0-2.78,2.26-5.04,5.04-5.04c2.78,0,5.04,2.26,5.04,5.04v12.42
		C25.82,63.84,23.57,66.1,20.79,66.1L20.79,66.1z M20.79,66.1"/>
	<path class="st1" d="M51.21,43.6c2.78,0,5.04,2.26,5.04,5.04v12.42c0,2.78-2.26,5.04-5.04,5.04c-2.78,0-5.04-2.26-5.04-5.04V48.64
		C46.18,45.86,48.43,43.6,51.21,43.6L51.21,43.6z M51.21,43.6"/>
</g>
</svg>
