<?xml version="1.0" encoding="utf-8"?>
<!-- Generator: Adobe Illustrator 24.0.1, SVG Export Plug-In . SVG Version: 6.00 Build 0)  -->
<svg version="1.1" id="Layer_1" xmlns="http://www.w3.org/2000/svg" xmlns:xlink="http://www.w3.org/1999/xlink" x="0px" y="0px"
	 viewBox="0 0 36 36" style="enable-background:new 0 0 36 36;" xml:space="preserve">
<style type="text/css">
	.st0{fill:#FFFFFF;}
	.st1{fill:#5B8D3E;}
</style>
<g>
	<path class="st0" d="M28.5,5.3C25.7,2.5,22,0.9,18,0.9S10.3,2.5,7.5,5.3S3,12.1,3,16.1c0,7,4.9,13.1,11.7,14.8l3.3,4.2l3.3-4.2
		C28.1,29.5,33,23.4,33,16.1C33,12.1,31.4,8.2,28.5,5.3z"/>
</g>
<g>
	<g>
		<g>
			<path class="st1" d="M25.4,16.9c0.7,2.6,0,5.8,0,5.8v-0.2c0.2-1.9-0.2-2.9-0.2-2.9c0.5,1.7-0.2,2.4-0.7,2.9
				c-0.2,0.2-0.5,0.2-0.5,0.2v-0.2c-0.2-2.2,1-5,1-5c-0.7,0.7-1.2,3.1-1.4,4.3c0.2-2.2-0.2-3.1-0.2-3.1c0.2,1.9-0.2,3.4-0.5,3.8
				c0,0.2,0,0.2,0,0.2v-0.2c-0.2-1.2-0.2-4.6-0.2-4.6c-0.2,0.7-0.5,2.4-0.5,3.6c0-1.9-0.7-3.1-0.7-3.1c0.7,2.4-0.2,4.1-0.2,4.1
				c0.2-2.2-0.5-2.9-0.5-2.9c0.5,1-0.5,2.6-0.5,2.6c-0.5-2.4,0.5-5.8,0.5-5.8c-0.5,1-0.7,2.9-1,4.3c0-1.9-0.7-2.6-0.7-2.6
				c0.7,1.9,0,4.3,0,4.3c0-2.2-0.5-3.4-0.5-3.4c0,1-0.7,2.6-1,3.4c0,0.2,0,0.2,0,0.2v-0.2c-0.5-1.7,0-5.3,0-5.3
				c-0.7,0.7-1,4.3-1.2,5.3c0,0.2,0,0.2,0,0.2v-0.2c0-1.4,0-3.1,0-3.1c-0.2,0.5-0.5,3.4-0.5,3.4v-0.2c0.2-3.8-0.5-5-0.5-5
				c0.2,1.9-0.2,4.3-0.5,5c0,0.2,0,0.2,0,0.2v-0.2c-0.5-1.2,0-3.6,0-3.6c-0.7,0.7-0.7,1.9-1,2.6c0-4.6-0.2-6-0.2-6
				c0.2,1.7-0.2,6-0.5,7l0,0l0,0c0-1.4-0.5-4.3-0.5-4.3c0,1.2-0.2,3.6-0.2,4.3c0,0.2,0,0.2,0,0.2v-0.2c-0.7-1.9,0-5.3,0-5.3
				c-1,1.4-1.2,4.6-1.2,5.3l0,0c0,0,0,0.2,0,0c-0.5-1,0-4.3,0-4.3c-0.5,0.7-0.7,3.6-0.7,4.3c0,0.2,0,0.2,0,0.2v-0.2
				c-0.7-2.6,0.7-5.8,0.7-5.8c-1.4,1-1.7,6-1.7,6V25h16.8v-2.6C26.4,17.6,25.4,16.9,25.4,16.9L25.4,16.9z"/>
		</g>
	</g>
	<g>
		<path class="st1" d="M14.3,11.5c0.6,0,1-0.6,0.9-1.2c-0.1-0.6-0.5-1-1-1c-0.5,0.1-0.9,0.6-0.8,1.2C13.4,11.1,13.8,11.5,14.3,11.5
			L14.3,11.5z"/>
		<path class="st1" d="M11.4,10.9c-0.5,0.3-0.6,0.9-0.3,1.3c0.3,0.5,0.9,0.6,1.3,0.4c0.5-0.3,0.6-0.9,0.3-1.3
			C12.4,10.8,11.9,10.6,11.4,10.9L11.4,10.9z"/>
		<path class="st1" d="M16.4,10.4c-0.4,0.3-0.6,0.9-0.3,1.3c0.4,0.7,1.5,0.6,1.7-0.2C18,10.6,17.1,9.9,16.4,10.4L16.4,10.4z"/>
		<path class="st1" d="M16.2,13.3c-0.2-0.7-1-1.2-1.7-1.1l-0.1,0c-0.7,0.1-1.4,0.7-1.5,1.4l0,0.1c0,0.3,0,0.5,0.2,0.7
			c0.2,0.2,0.5,0.3,0.7,0.3c0.3,0,0.5-0.2,0.6-0.4l0.1-0.1c0,0,0,0,0.1,0l0.1,0.1c0.4,0.4,1.1,0.3,1.4-0.2c0.1-0.2,0.2-0.5,0.1-0.8
			L16.2,13.3z"/>
	</g>
	<g>
		<path class="st1" d="M22.7,12.3c0.4-0.4,0.5-1,0.3-1.5c-0.3-0.5-0.9-0.6-1.3-0.2c-0.4,0.3-0.5,1-0.3,1.5
			C21.7,12.6,22.3,12.7,22.7,12.3L22.7,12.3z"/>
		<path class="st1" d="M25,12.1c-0.4-0.3-1-0.2-1.3,0.3c-0.3,0.4-0.2,1,0.2,1.3c0.4,0.3,1,0.2,1.3-0.3C25.5,13,25.4,12.4,25,12.1
			L25,12.1z"/>
		<path class="st1" d="M19,12.8c0.4,0.3,1,0.2,1.3-0.3c0.7-1.1-0.7-2.1-1.5-1.1C18.5,11.9,18.6,12.5,19,12.8L19,12.8z"/>
		<path class="st1" d="M23.3,15c0-0.8-0.6-1.5-1.4-1.7c0,0-0.5-0.2-1.2,0.2c-0.3,0.2-0.6,0.5-0.8,0.8l0,0.1c-0.1,0.3-0.1,0.5,0,0.8
			c0.3,0.5,0.9,0.6,1.4,0.3c0,0,0.1-0.1,0.1-0.1c0,0,0,0,0.1,0l0.1,0.2c0.1,0.2,0.2,0.3,0.4,0.4c0.1,0.1,0.2,0.1,0.4,0.1
			C22.9,15.9,23.3,15.5,23.3,15L23.3,15z"/>
	</g>
</g>
</svg>
