<?xml version="1.0" encoding="utf-8"?>
<!-- Generator: Adobe Illustrator 24.0.1, SVG Export Plug-In . SVG Version: 6.00 Build 0)  -->
<svg version="1.1" id="Layer_1" xmlns="http://www.w3.org/2000/svg" xmlns:xlink="http://www.w3.org/1999/xlink" x="0px" y="0px"
	 viewBox="0 0 36 36" style="enable-background:new 0 0 36 36;" xml:space="preserve">
<style type="text/css">
	.st0{fill:#FFFFFF;}
	.st1{fill:#A53628;}
</style>
<g>
	<path class="st0" d="M28.5,5.3C25.7,2.5,22,0.9,18,0.9S10.3,2.5,7.5,5.3S3,12.1,3,16.1c0,7,4.9,13.1,11.7,14.8l3.3,4.2l3.3-4.2
		C28.1,29.5,33,23.4,33,16.1C33,12.1,31.4,8.2,28.5,5.3z"/>
	<g>
		<path class="st1" d="M15.3,7.3C15,7,14.5,7,14.2,7.3c-0.4,0.4-1,1.1-1,2.2s0.6,1.8,1.1,2.2c0.4,0.4,0.6,0.6,0.6,1.1
			c0,0.5,0.4,0.8,0.8,0.8s0.8-0.4,0.8-0.8c0-1.2-0.6-1.8-1.1-2.2c-0.4-0.4-0.6-0.6-0.6-1.1c0-0.5,0.2-0.7,0.6-1.1
			C15.6,8.1,15.6,7.6,15.3,7.3z"/>
		<path class="st1" d="M19.1,7.3C18.8,7,18.3,7,18,7.3c-0.5,0.4-1.1,1.1-1.1,2.2s0.6,1.8,1.1,2.2c0.4,0.4,0.6,0.6,0.6,1.1
			c0,0.5,0.4,0.8,0.8,0.8c0.5,0,0.8-0.4,0.8-0.8c0-1.2-0.6-1.8-1.1-2.2c-0.4-0.4-0.6-0.6-0.6-1c0-0.5,0.2-0.7,0.6-1.1
			C19.5,8.1,19.5,7.6,19.1,7.3z"/>
		<path class="st1" d="M23.2,21.2c1.6,0,3-1.4,3-3c0-1.7-1.3-3-3-3h-1.1H11.2c-0.5,0-0.8,0.4-0.8,0.8v2.7c0,1.8,0.8,3.5,2.1,4.6
			h-1.8c-0.5,0-0.8,0.4-0.8,0.8s0.4,0.8,0.8,0.8h6h6c0.5,0,0.8-0.4,0.8-0.8s-0.4-0.8-0.8-0.8h-1.8c0.7-0.6,1.2-1.4,1.5-2.2H23.2z
			 M22.9,18.7v-1.9h0.3c0.7,0,1.4,0.6,1.4,1.4s-0.6,1.4-1.3,1.4h-0.3C22.9,19.3,22.9,19,22.9,18.7z M16.6,16.8
			c0.5-0.1,0.9,0.4,1,0.9c0.1,0.6-0.3,1.1-0.8,1.1c-0.4,0-0.8-0.4-0.9-0.9C15.8,17.4,16.1,16.9,16.6,16.8z M15,19.8
			c-0.4,0.3-1,0.1-1.2-0.3c-0.3-0.4-0.1-1,0.3-1.2c0.4-0.3,1-0.1,1.2,0.3S15.4,19.6,15,19.8z M18.5,21.4c-0.3,0.4-0.9,0.5-1.3,0.2
			l-0.1-0.1c0,0,0,0-0.1,0L17,21.6c-0.1,0.2-0.4,0.3-0.6,0.4c-0.3,0-0.5-0.1-0.7-0.3c-0.2-0.2-0.3-0.4-0.2-0.7l0-0.1
			c0.1-0.7,0.7-1.3,1.4-1.3l0.1,0c0.7-0.1,1.4,0.4,1.6,1l0,0.1C18.7,21,18.7,21.2,18.5,21.4z M18.4,19c-0.3-0.4-0.1-1,0.3-1.2
			c0.7-0.4,1.5,0.3,1.3,1C19.8,19.6,18.8,19.7,18.4,19z"/>
	</g>
</g>
</svg>
