<?xml version="1.0" encoding="utf-8"?>
<!-- Generator: Adobe Illustrator 24.0.1, SVG Export Plug-In . SVG Version: 6.00 Build 0)  -->
<svg version="1.1" id="Layer_1" xmlns="http://www.w3.org/2000/svg" xmlns:xlink="http://www.w3.org/1999/xlink" x="0px" y="0px"
	 viewBox="0 0 36 36" scale="0.5" style="enable-background:new 0 0 36 36;" xml:space="preserve">
<style type="text/css">
	.st0{fill:#FFFFFF;}
	.st1{fill:#009CA1;}
</style>
<g>
	<path class="st0" d="M28.5,5.3C25.7,2.5,22,0.9,18,0.9S10.3,2.5,7.5,5.3S3,12.1,3,16.1c0,7,4.9,13.1,11.7,14.8l3.3,4.2l3.3-4.2
		C28.1,29.5,33,23.4,33,16.1C33,12.1,31.4,8.2,28.5,5.3z"/>
	<g>
		<path class="st1" d="M25.7,16.4h-2.4V25h2.4c0.3,0,0.5-0.2,0.5-0.5v-7.7C26.2,16.6,25.9,16.4,25.7,16.4z M25.2,23.1h-1v-1h1V23.1z
			 M25.2,21.2h-1v-1h1V21.2z M25.2,19.3h-1v-1h1V19.3z"/>
		<path class="st1" d="M17,21.2c-0.3,0-0.5,0.2-0.5,0.5V25h1v-3.9H17z"/>
		<path class="st1" d="M19,21.2h-0.5V25h1v-3.4C19.4,21.4,19.2,21.2,19,21.2z"/>
		<path class="st1" d="M22.3,24.6V9.2c0-0.3-0.2-0.5-0.5-0.5h-7.7c-0.3,0-0.5,0.2-0.5,0.5v15.4c0,0.3,0.2,0.5,0.5,0.5h1.5v-3.4
			c0-0.8,0.7-1.4,1.4-1.4H19c0.8,0,1.4,0.7,1.4,1.4V25h1.5C22.1,25,22.3,24.8,22.3,24.6z M16.6,18.5h-1v-1h1V18.5z M18.5,18.5h-1v-1
			h1C18.5,17.5,18.5,18.5,18.5,18.5z M20.4,18.5h-1v-1h1V18.5z M20.3,12.9l-0.8,0.8l0.2,1.1c0,0.2,0,0.4-0.2,0.5
			c-0.2,0.1-0.3,0.1-0.5,0l-1-0.5l-1,0.5c-0.2,0.1-0.3,0.1-0.5,0c-0.2-0.1-0.2-0.3-0.2-0.5l0.2-1.1l-0.8-0.8
			c-0.1-0.1-0.2-0.3-0.1-0.5c0.1-0.2,0.2-0.3,0.4-0.3l1.2-0.2l0.5-1c0.1-0.2,0.3-0.3,0.4-0.3c0.2,0,0.3,0.1,0.4,0.3l0.5,1l1.1,0.2
			c0.2,0,0.3,0.1,0.4,0.3C20.5,12.6,20.4,12.8,20.3,12.9z"/>
		<path class="st1" d="M10.3,25h2.4v-8.6h-2.4c-0.3,0-0.5,0.2-0.5,0.5v7.7C9.8,24.8,10.1,25,10.3,25z M10.8,18.3h1v1h-1V18.3z
			 M10.8,20.2h1v1h-1V20.2z M10.8,22.1h1v1h-1V22.1z"/>
	</g>
</g>
</svg>
