<?xml version="1.0" encoding="utf-8"?>
<!-- Generator: Adobe Illustrator 24.0.1, SVG Export Plug-In . SVG Version: 6.00 Build 0)  -->
<svg version="1.1" id="Layer_1" xmlns="http://www.w3.org/2000/svg" xmlns:xlink="http://www.w3.org/1999/xlink" x="0px" y="0px"
	 viewBox="0 0 72 93" style="enable-background:new 0 0 72 93;" xml:space="preserve">
<style type="text/css">
	.st0{fill:#A6DBE4;}
	.st1{fill:#F4815A;}
</style>
<path class="st0" d="M55.52,59.48c-1.37,0.36-3.57,0.56-5.05,0.56c-9.21,0-16.67-7.43-16.67-16.6c0-4.7,1.96-8.95,5.12-11.96
	c7.9,2.22,13.69,9.45,13.69,18.02v2.21C52.6,55.21,54.13,56.94,55.52,59.48L55.52,59.48z"/>
<path class="st0" d="M58.81,16.97l-0.39,0.39l-0.39-0.39c-2.12-2.13-5.57-2.13-7.69,0s-2.12,5.57,0,7.7l7.51,7.51
	c0.32,0.32,0.83,0.32,1.15,0l7.51-7.51c2.12-2.13,2.12-5.57,0-7.7C64.38,14.85,60.93,14.85,58.81,16.97L58.81,16.97z"/>
<path class="st1" d="M41.67,64.54c-0.69,0-1.25,0.56-1.25,1.25v0.95c0,1.47-1.2,2.67-2.68,2.67s-2.68-1.2-2.68-2.67v-0.59
	c1.26-0.3,2.36-1.03,3.13-2.12c0.85-1.2,0.96-2.75,0.28-4.05c-0.68-1.31-2.01-2.12-3.49-2.12h-2.37c-1.47,0-2.81,0.81-3.49,2.12
	c-0.67,1.3-0.56,2.85,0.28,4.05c0.77,1.09,1.88,1.83,3.13,2.12v0.59c0,1.47-1.2,2.67-2.68,2.67s-2.68-1.2-2.68-2.67v-0.95
	c0-0.69-0.56-1.25-1.25-1.25s-1.25,0.56-1.25,1.25v0.95c0,2.85,2.33,5.17,5.19,5.17c1.57,0,2.99-0.7,3.94-1.81
	c0.95,1.11,2.36,1.81,3.94,1.81c2.86,0,5.19-2.32,5.19-5.17v-0.95C42.92,65.1,42.36,64.54,41.67,64.54L41.67,64.54z"/>
<path class="st1" d="M48.27,32.29h-4.29c-2.99-1.76-6.47-2.77-10.19-2.77s-7.2,1.01-10.19,2.77h-4.29c-8.5,0-15.41,6.88-15.41,15.35
	v6.89c0,3.37,2.36,6.19,5.53,6.92c-0.25,1.01-0.37,2.05-0.37,3.09c0,7.21,5.89,13.08,13.13,13.08h23.2
	c7.24,0,13.13-5.87,13.13-13.08c0-0.99-0.11-1.98-0.33-2.93c1.16-0.04,2.12-0.16,2.97-0.5c1.67-0.66,2.51-2.01,2.51-4.02v-9.45
	C63.68,39.18,56.77,32.29,48.27,32.29L48.27,32.29z M6.41,54.53v-6.89c0-7.08,5.79-12.84,12.9-12.84h0.91
	c-3.99,3.65-6.49,8.89-6.49,14.7v2.21c0,2.36-0.3,2.72-1.11,3.71c-0.5,0.61-1.19,1.45-1.98,2.9c-0.13,0.24-0.26,0.49-0.37,0.74
	C8.08,58.69,6.41,56.8,6.41,54.53L6.41,54.53z M45.39,75.11h-23.2c-5.86,0-10.62-4.74-10.62-10.57c0-1.76,0.44-3.49,1.28-5.03
	c0.68-1.24,1.23-1.91,1.71-2.5c1.08-1.31,1.68-2.2,1.68-5.3V49.5c0-9.63,7.87-17.47,17.55-17.47s17.55,7.84,17.55,17.47v2.21
	c0,3.1,0.61,3.99,1.68,5.3c0.49,0.59,1.04,1.26,1.71,2.5c0.83,1.53,1.28,3.27,1.28,5.03C56.02,70.37,51.25,75.11,45.39,75.11
	L45.39,75.11z M61.17,57.09c0,1.59-0.63,1.98-3.83,2.03c-0.12-0.27-0.26-0.54-0.4-0.8c-0.79-1.45-1.48-2.29-1.98-2.9
	c-0.81-0.98-1.11-1.35-1.11-3.71V49.5c0-5.81-2.5-11.05-6.49-14.7h0.91c7.11,0,12.9,5.76,12.9,12.84L61.17,57.09L61.17,57.09z"/>
<path class="st1" d="M44.5,47.87h-1.43c-0.69,0-1.25,0.56-1.25,1.25v3.89c0,0.69,0.56,1.25,1.25,1.25s1.25-0.56,1.25-1.25v-2.64
	h0.18c0.69,0,1.25-0.56,1.25-1.25S45.19,47.87,44.5,47.87L44.5,47.87z"/>
<path class="st1" d="M25.77,53.01v-3.89c0-0.69-0.56-1.25-1.25-1.25h-1.43c-0.69,0-1.25,0.56-1.25,1.25s0.56,1.25,1.25,1.25h0.18
	v2.64c0,0.69,0.56,1.25,1.25,1.25C25.21,54.26,25.77,53.7,25.77,53.01L25.77,53.01z"/>
</svg>
