<?xml version="1.0" encoding="utf-8"?>
<!-- Generator: Adobe Illustrator 24.0.1, SVG Export Plug-In . SVG Version: 6.00 Build 0)  -->
<svg version="1.1" id="Layer_1" xmlns="http://www.w3.org/2000/svg" xmlns:xlink="http://www.w3.org/1999/xlink" x="0px" y="0px"
	 viewBox="0 0 72 93" style="enable-background:new 0 0 72 93;" xml:space="preserve">
<style type="text/css">
	.st0{fill:#F5825A;}
	.st1{fill-rule:evenodd;clip-rule:evenodd;fill:#A6DBE4;}
</style>
<g>
	<path class="st0" d="M55.1,15.7c-0.7,0-1.4,0.5-1.4,1.3l-1.1,18.4c-1.8,22-31.2,22-32.9,0L18.4,17c0-0.7-0.7-1.3-1.4-1.3
		c-0.7,0-1.3,0.7-1.3,1.4l1.1,18.4c0.4,8.7,6.5,16.8,15.1,18.6v9.2c0.1,1.8,2.6,1.8,2.7,0v-8.8c0.9,0.1,1.9,0.1,2.8,0v8.8
		c0.1,1.8,2.6,1.8,2.7,0v-9.2c8.5-1.9,14.6-9.9,15.1-18.6l1.1-18.4C56.4,16.4,55.8,15.7,55.1,15.7L55.1,15.7z M55.1,15.7"/>
	<path class="st0" d="M29.9,36.2c-5.3,1.4-4.4,9.1,1.1,9.2h10c5.5-0.1,6.5-7.8,1.1-9.2c-0.1,0-0.4-0.1-0.5-0.1
		c-0.1-0.1-0.3-0.4-0.4-0.6c-2.4-3.7-8.1-3.7-10.5,0c-0.1,0.2-0.3,0.5-0.4,0.6C30.3,36.1,30,36.2,29.9,36.2L29.9,36.2z M33,37
		c1.4-2.1,4.6-2.1,6,0c0.8,1.1,1.1,1.5,2.5,1.8c2.2,0.6,1.8,3.8-0.5,3.9H31c-2.3-0.1-2.7-3.3-0.5-3.9C31.9,38.5,32.2,38.2,33,37
		L33,37z M33,37"/>
	<path class="st0" d="M36,30.8c5.5-0.1,5.5-9.8,0-9.9c-2.1,0-4.1,1.7-4.1,4.9c0,1.4,0.4,2.7,1.2,3.6C33.8,30.3,34.9,30.8,36,30.8
		L36,30.8z M36,23.7c0.3,0,0.6,0.2,0.9,0.4c1,1.1,0.6,4-0.9,4C34.1,28.1,34.1,23.7,36,23.7L36,23.7z M36,23.7"/>
	<path class="st0" d="M25.6,34.8c1.3,0.4,2.7,0,3.7-1c1.2-1.2,1.5-2.9,1-4.8c-0.4-1.4-1.1-2.5-2.1-3.1c-1-0.6-2.1-0.8-3.2-0.6
		c-2,0.5-3.6,2.7-2.7,5.8C22.8,33,24,34.4,25.6,34.8L25.6,34.8z M25.7,27.9c0.8-0.2,1.5,0.4,1.9,1.8c0.4,1.3,0,2.7-1.4,2.5
		c-0.6-0.2-1.1-0.8-1.4-1.8C24.5,28.9,25,28.1,25.7,27.9L25.7,27.9z M25.7,27.9"/>
	<path class="st0" d="M45.4,34.9c0.3,0,0.7,0,1-0.1c1.6-0.4,2.8-1.8,3.3-3.7c0.5-1.9,0.1-3.7-1-4.8c-1-1-2.4-1.3-3.7-1
		c-1.6,0.4-2.8,1.8-3.3,3.7c-0.5,1.9-0.1,3.7,1,4.8C43.5,34.5,44.4,34.9,45.4,34.9L45.4,34.9z M44.4,29.7c0.3-1,0.8-1.6,1.4-1.8
		c0.4-0.1,0.8,0,1.1,0.3c0.4,0.4,0.6,1.3,0.3,2.2c-0.3,1-0.8,1.6-1.4,1.8C44.4,32.4,44,31,44.4,29.7L44.4,29.7z M44.4,29.7"/>
	<path class="st1" d="M44.3,61.8H27.7c-1.5,0-2.8,1.2-2.8,2.8v9.8h22.2v-9.8C47.1,63,45.8,61.8,44.3,61.8L44.3,61.8z M44.3,61.8"/>
	<path class="st1" d="M16.3,17.3l39.3,0c1.5,0,2.8-1.2,2.8-2.8s-1.2-2.8-2.8-2.8H16.3c-1.5,0-2.8,1.2-2.8,2.8S14.8,17.3,16.3,17.3
		L16.3,17.3z M16.3,17.3"/>
	<path class="st0" d="M47.1,73H24.9c-2.3,0-4.1,1.9-4.1,4.1v2.8c0,0.8,0.6,1.4,1.4,1.4h27.7c0.8,0,1.4-0.6,1.4-1.4v-2.8
		C51.2,74.9,49.4,73,47.1,73L47.1,73z M48.5,78.6h-25v-1.4c0-0.8,0.6-1.4,1.4-1.4h22.2c0.8,0,1.4,0.6,1.4,1.4V78.6z M48.5,78.6"/>
	<path class="st0" d="M31.8,69.4h8.3c1.8-0.1,1.8-2.6,0-2.7h-8.3C30,66.7,30,69.3,31.8,69.4L31.8,69.4z M31.8,69.4"/>
</g>
</svg>
