<?xml version="1.0" encoding="utf-8"?>
<!-- Generator: Adobe Illustrator 27.0.0, SVG Export Plug-In . SVG Version: 6.00 Build 0)  -->
<svg version="1.0" xmlns="http://www.w3.org/2000/svg" xmlns:xlink="http://www.w3.org/1999/xlink" x="0px" y="0px"
	 viewBox="0 0 203.3 184.5" enable-background="new 0 0 203.3 184.5" xml:space="preserve">
<g id="Layer_1">
	<line fill="none" stroke="#354253" stroke-linecap="round" stroke-miterlimit="10" x1="40.6" y1="150.9" x2="155.9" y2="150.9"/>
	<line fill="none" stroke="#354253" stroke-linecap="round" stroke-miterlimit="10" x1="37.6" y1="150.9" x2="36.8" y2="150.9"/>
	<path fill="#DDF2F6" d="M132.6,70.5c0,0-0.1,0-0.1,0c-0.8,0.2-1.4,0.8-1.8,1.5c-0.4,0.7-0.5,1.5-0.4,2.3c0,0,16.5,0,25.4,0
		c0.3-1.2-0.1-2.6-1.1-3.3c-1-0.8-2.6-0.9-3.7-0.2c-0.1-0.9-0.6-1.7-1.3-2.2s-1.8-0.6-2.6-0.3c-0.4-2.2-2-4.1-4.1-4.8
		s-4.6-0.2-6.3,1.4c-1.6,1.5-2.4,4-1.8,6.2C134.2,70.4,133.3,70.3,132.6,70.5z"/>
	<path fill="#DDF2F6" d="M46,79.8c0,0-0.1,0-0.1,0c-0.8,0.2-1.4,0.8-1.8,1.5c-0.4,0.7-0.5,1.5-0.4,2.3c0,0,16.5,0,25.4,0
		c0.3-1.2-0.1-2.6-1.1-3.3c-1-0.8-2.6-0.9-3.7-0.2c-0.1-0.9-0.6-1.7-1.3-2.2c-0.8-0.5-1.8-0.6-2.6-0.3c-0.4-2.2-2-4.1-4.1-4.8
		c-2.1-0.7-4.6-0.2-6.3,1.4s-2.4,4-1.8,6.2C47.7,79.7,46.8,79.6,46,79.8z"/>
	<path fill="none" stroke="#354253" stroke-linecap="round" stroke-miterlimit="10" d="M133.1,150.8H64.8V48.6c0-1.3,1-2.3,2.3-2.3
		h63.7c1.3,0,2.3,1,2.3,2.3V150.8z"/>
	<path fill="#FFFFFF" d="M133.1,150.8H64.8V48.6c0-1.3,1-2.3,2.3-2.3h63.7c1.3,0,2.3,1,2.3,2.3V150.8z"/>
	<path fill="none" stroke="#354253" stroke-linecap="round" stroke-miterlimit="10" d="M133.1,150.8H64.8V48.6c0-1.3,1-2.3,2.3-2.3
		h63.7c1.3,0,2.3,1,2.3,2.3V150.8z"/>
	<rect x="85.2" y="146.5" fill="#DDF2F6" width="27.4" height="4.2"/>
	<rect x="85.2" y="146.5" fill="none" stroke="#354253" stroke-linecap="round" stroke-miterlimit="10" width="27.4" height="4.2"/>
	<rect x="90.3" y="113.6" fill="#A6DBE5" width="17.3" height="32.9"/>
	<path fill="none" stroke="#354253" stroke-linecap="round" stroke-miterlimit="10" d="M106.6,113.6H91.3c-0.6,0-1,0.4-1,1v31.9
		h17.3v-31.9C107.6,114.1,107.2,113.6,106.6,113.6z"/>
	<path fill="none" stroke="#354253" stroke-linecap="round" stroke-miterlimit="10" d="M83.2,137.5H69.9c-0.4,0-0.7-0.3-0.7-0.7
		v-1.4c0-0.4,0.3-0.7,0.7-0.7h13.3c0.4,0,0.7,0.3,0.7,0.7v1.4C83.9,137.2,83.6,137.5,83.2,137.5z"/>
	<path fill="none" stroke="#354253" stroke-linecap="round" stroke-miterlimit="10" d="M84.1,90.3H70.8c-0.4,0-0.7-0.3-0.7-0.7v-1.4
		c0-0.4,0.3-0.7,0.7-0.7h13.3c0.4,0,0.7,0.3,0.7,0.7v1.4C84.8,90,84.5,90.3,84.1,90.3z"/>
	<path fill="none" stroke="#354253" stroke-linecap="round" stroke-miterlimit="10" d="M105.6,90.3H92.3c-0.4,0-0.7-0.3-0.7-0.7
		v-1.4c0-0.4,0.3-0.7,0.7-0.7h13.3c0.4,0,0.7,0.3,0.7,0.7v1.4C106.3,90,106,90.3,105.6,90.3z"/>
	<path fill="none" stroke="#354253" stroke-linecap="round" stroke-miterlimit="10" d="M127,90.3h-13.3c-0.4,0-0.7-0.3-0.7-0.7v-1.4
		c0-0.4,0.3-0.7,0.7-0.7H127c0.4,0,0.7,0.3,0.7,0.7v1.4C127.7,90,127.4,90.3,127,90.3z"/>
	<path fill="none" stroke="#354253" stroke-linecap="round" stroke-miterlimit="10" d="M126.6,137.5h-13.3c-0.4,0-0.7-0.3-0.7-0.7
		v-1.4c0-0.4,0.3-0.7,0.7-0.7h13.3c0.4,0,0.7,0.3,0.7,0.7v1.4C127.3,137.2,127,137.5,126.6,137.5z"/>
	<g id="XMLID_00000136405857658098649520000007463439462167523981_">
		<g>
			<g>
				<path fill="#DDF2F6" d="M126.2,67.8v6.8h-11.7v-6.8c0-0.7,0.6-1.4,1.4-1.4h9C125.6,66.4,126.2,67,126.2,67.8z"/>
				<path fill="#DDF2F6" d="M124.5,113.6c0.7,0,1.4,0.6,1.4,1.4v6.8h-11.7V115c0-0.7,0.6-1.4,1.4-1.4H124.5z"/>
				<path fill="#DDF2F6" d="M104.8,67.8v6.8H93.1v-6.8c0-0.7,0.6-1.4,1.4-1.4h9C104.2,66.4,104.8,67,104.8,67.8z"/>
				<path fill="#DDF2F6" d="M83.3,67.8v6.8H71.6v-6.8c0-0.7,0.6-1.4,1.4-1.4h9C82.7,66.4,83.3,67,83.3,67.8z"/>
				<path fill="#DDF2F6" d="M81.1,113.6c0.7,0,1.4,0.6,1.4,1.4v6.8H70.7V115c0-0.7,0.6-1.4,1.4-1.4H81.1z"/>
			</g>
		</g>
		<g>
			<path fill="none" stroke="#354253" stroke-linecap="round" stroke-miterlimit="10" d="M83.3,74.6v-6.8c0-0.7-0.6-1.4-1.4-1.4h-9
				c-0.7,0-1.4,0.6-1.4,1.4v6.8v13h11.7V74.6z"/>
			<line fill="none" stroke="#354253" stroke-linecap="round" stroke-miterlimit="10" x1="71.6" y1="74.6" x2="83.3" y2="74.6"/>
			<path fill="none" stroke="#354253" stroke-linecap="round" stroke-miterlimit="10" d="M104.8,74.6v-6.8c0-0.7-0.6-1.4-1.4-1.4h-9
				c-0.7,0-1.4,0.6-1.4,1.4v6.8v13h11.7V74.6z"/>
			<line fill="none" stroke="#354253" stroke-linecap="round" stroke-miterlimit="10" x1="93.1" y1="74.6" x2="104.8" y2="74.6"/>
			<path fill="none" stroke="#354253" stroke-linecap="round" stroke-miterlimit="10" d="M126.2,74.6v-6.8c0-0.7-0.6-1.4-1.4-1.4h-9
				c-0.7,0-1.4,0.6-1.4,1.4v6.8v13h11.7V74.6z"/>
			<line fill="none" stroke="#354253" stroke-linecap="round" stroke-miterlimit="10" x1="114.5" y1="74.6" x2="126.2" y2="74.6"/>
			<path fill="none" stroke="#354253" stroke-linecap="round" stroke-miterlimit="10" d="M82.4,121.8V115c0-0.7-0.6-1.4-1.4-1.4h-9
				c-0.7,0-1.4,0.6-1.4,1.4v6.8v13h11.7V121.8z"/>
			<line fill="none" stroke="#354253" stroke-linecap="round" stroke-miterlimit="10" x1="70.7" y1="121.8" x2="82.4" y2="121.8"/>
			<path fill="none" stroke="#354253" stroke-linecap="round" stroke-miterlimit="10" d="M125.8,121.8V115c0-0.7-0.6-1.4-1.4-1.4h-9
				c-0.7,0-1.4,0.6-1.4,1.4v6.8v13h11.7V121.8z"/>
			
				<line fill="none" stroke="#354253" stroke-linecap="round" stroke-miterlimit="10" x1="114.1" y1="121.8" x2="125.8" y2="121.8"/>
		</g>
	</g>
	<path fill="#FFFFFF" d="M85.2,150.8H61.8v-6.8c0-0.8,0.7-1.5,1.5-1.5h20.5c0.8,0,1.5,0.7,1.5,1.5V150.8z"/>
	<path fill="#FFFFFF" d="M112.7,150.8h23.4v-6.8c0-0.8-0.7-1.5-1.5-1.5h-20.5c-0.8,0-1.5,0.7-1.5,1.5V150.8z"/>
	<path fill="#DDF2F6" d="M136.1,143.9v6.8h-3v-6.8c0-0.8-0.7-1.5-1.5-1.5h3C135.4,142.5,136.1,143.1,136.1,143.9z"/>
	<path fill="#DDF2F6" d="M85,143.9v6.8h-3v-6.8c0-0.8-0.7-1.5-1.5-1.5h3C84.4,142.5,85,143.1,85,143.9z"/>
	<path fill="none" stroke="#354253" stroke-linecap="round" stroke-miterlimit="10" d="M85.2,150.8H61.8v-6.8c0-0.8,0.7-1.5,1.5-1.5
		h20.5c0.8,0,1.5,0.7,1.5,1.5V150.8z"/>
	<path fill="none" stroke="#354253" stroke-linecap="round" stroke-miterlimit="10" d="M112.7,150.8h23.4v-6.8
		c0-0.8-0.7-1.5-1.5-1.5h-20.5c-0.8,0-1.5,0.7-1.5,1.5V150.8z"/>
	<path fill="#A6DBE5" d="M134.4,57.1H63.5c-0.5,0-0.9-0.4-0.9-0.9v-1.6c0-0.5,0.4-0.9,0.9-0.9h70.9c0.5,0,0.9,0.4,0.9,0.9v1.6
		C135.3,56.7,134.9,57.1,134.4,57.1z"/>
	<path fill="#A6DBE5" d="M134.4,100.3H63.5c-0.5,0-0.9-0.4-0.9-0.9v-1.6c0-0.5,0.4-0.9,0.9-0.9h70.9c0.5,0,0.9,0.4,0.9,0.9v1.6
		C135.3,99.9,134.9,100.3,134.4,100.3z"/>
	<path fill="none" stroke="#354253" stroke-linecap="round" stroke-miterlimit="10" d="M134.4,57.1H63.5c-0.5,0-0.9-0.4-0.9-0.9
		v-1.6c0-0.5,0.4-0.9,0.9-0.9h70.9c0.5,0,0.9,0.4,0.9,0.9v1.6C135.3,56.7,134.9,57.1,134.4,57.1z"/>
	<path fill="none" stroke="#354253" stroke-linecap="round" stroke-miterlimit="10" d="M134.4,100.3H63.5c-0.5,0-0.9-0.4-0.9-0.9
		v-1.6c0-0.5,0.4-0.9,0.9-0.9h70.9c0.5,0,0.9,0.4,0.9,0.9v1.6C135.3,99.9,134.9,100.3,134.4,100.3z"/>
	<g>
		<circle fill="#FFFFFF" cx="55.9" cy="123.1" r="11.7"/>
	</g>
	<g>
		<path fill="#DDF2F6" d="M67.6,123.1c0,6.5-5.2,11.7-11.7,11.7c-0.5,0-1,0-1.4-0.1c5.8-0.7,10.3-5.6,10.3-11.6
			c0-6-4.5-10.9-10.3-11.6c0.5-0.1,1-0.1,1.4-0.1C62.4,111.4,67.6,116.6,67.6,123.1z"/>
	</g>
	<g>
		<circle fill="none" stroke="#354253" stroke-linecap="round" stroke-miterlimit="10" cx="55.9" cy="123.1" r="11.7"/>
		<polyline fill="none" stroke="#354253" stroke-linecap="round" stroke-miterlimit="10" points="55.9,122.8 55.9,130.4 55.9,134.8 
			55.9,151.4 		"/>
		<line fill="none" stroke="#354253" stroke-linecap="round" stroke-miterlimit="10" x1="52.2" y1="126.2" x2="55.9" y2="130.4"/>
	</g>
	<rect x="65.2" y="100.3" opacity="0.15" fill="#4C2455" width="67.9" height="3.3"/>
	<rect x="65.2" y="57.1" opacity="0.15" fill="#4C2455" width="67.9" height="3.3"/>
	<circle fill="#FFFFFF" cx="104.1" cy="131.1" r="1.1"/>
	<circle fill="#A6DBE5" cx="135.3" cy="97.6" r="17.2"/>
	<circle fill="none" stroke="#354253" stroke-linecap="round" stroke-miterlimit="10" cx="135.3" cy="97.6" r="17.2"/>
	<path fill="#FFFFFF" d="M134.1,103.6c-0.7,0.7-1.7,0.7-2.4,0l0,0l-2.8-2.8c-0.7-0.7-0.7-1.7,0-2.4v0c0.7-0.7,1.7-0.7,2.4,0l1.6,1.6
		l6.4-6.4c0.7-0.7,1.7-0.7,2.4,0l0,0c0.7,0.7,0.7,1.7,0,2.4L134.1,103.6L134.1,103.6z"/>
</g>
<g id="Layer_2">
</g>
</svg>
