<svg id="icon4" width="47" height="64" data-name="icon4" xmlns="http://www.w3.org/2000/svg" viewBox="0 0 47.0007 64.0002"><defs><style>.cls-1{fill:#00a0a4;fill-rule:evenodd;}</style></defs><title>icon4</title><path class="cls-1" d="M46.7418,58.4772a.8219.8219,0,0,1-.8377.0757l-9.1385-4.69L33.1863,63.47a.73.73,0,0,1-.6853.53.6661.6661,0,0,1-.6854-.4537L23.5148,42.2881,15.214,63.546A.7712.7712,0,0,1,14.5286,64a.842.842,0,0,1-.6854-.53L10.264,53.8626l-9.1385,4.69a.6989.6989,0,0,1-.8377-.1511A.7137.7137,0,0,1,.0594,57.57l9.9-25.4184A18.9127,18.9127,0,0,1,23.5909,0,18.8581,18.8581,0,0,1,37.1464,32.1511L46.97,57.6449A.85.85,0,0,1,46.7418,58.4772Zm-14.1647,2.572L35.7,52.8032,29.4548,36.841a18.0127,18.0127,0,0,1-4.1123.8326v.0754l-.9139,2.3452Zm-17.9723,0,9.0623-23.3h-.0762a18.6444,18.6444,0,0,1-5.8638-.908L11.4825,52.8032ZM2.2678,56.2835l7.8439-4.01,6.2446-15.9622A18.3931,18.3931,0,0,1,11.254,33.21ZM41.1063,18.912a17.5158,17.5158,0,1,0-17.5154,17.4A17.46,17.46,0,0,0,41.1063,18.912ZM35.9279,33.21a19.57,19.57,0,0,1-5.1023,3.1017L37.07,52.2738l7.8439,4.01ZM7.9032,18.912A15.688,15.688,0,1,1,23.5909,34.4962,15.6622,15.6622,0,0,1,7.9032,18.912Zm29.8524-.0754A14.165,14.165,0,1,0,23.5909,32.9073,14.14,14.14,0,0,0,37.7556,18.8366ZM20.621,24.7371a.8214.8214,0,0,1-.8378-.0754.7175.7175,0,0,1-.3046-.7566l.6093-3.3288-2.437-2.4206a.6822.6822,0,0,1-.2284-.7566.7358.7358,0,0,1,.6092-.5294l3.3507-.454,1.5232-3.026a.7315.7315,0,0,1,.6853-.4537.8758.8758,0,0,1,.6855.4537l1.523,3.026,3.4269.454a.736.736,0,0,1,.6093.5294.7646.7646,0,0,1-.2285.7566L27.17,20.5008l.533,3.3289a.7171.7171,0,0,1-.3045.7563,1.087,1.087,0,0,1-.457.1511H26.561l-2.97-1.5886Zm5.3307-2.0423-.3807-2.194a1.0519,1.0519,0,0,1,.2284-.6808l1.5993-1.5886L25.19,17.9286a.6033.6033,0,0,1-.6093-.378l-.99-2.0429-.99,1.9669c-.1522.1514-.3807.3785-.6092.3785l-2.2085.3783L21.3824,19.82a.7593.7593,0,0,1,.2285.6808l-.3807,2.194,1.98-1.0591a.688.688,0,0,1,.3808-.076.5715.5715,0,0,1,.3808.076Z" transform="translate(0.0019 0.0005)"/></svg>