<svg id="icon2" width="40" height="55" data-name="icon2" xmlns="http://www.w3.org/2000/svg" viewBox="0 0 39.9999 54.9999"><defs><style>.cls-1{fill:#00a0a4;fill-rule:evenodd;}</style></defs><title>icon2</title><path class="cls-1" d="M12.6834,38.7452A2.9152,2.9152,0,0,0,15.3315,40.46H18.2a2.9157,2.9157,0,0,0,2.6619-1.7461h5.57A11.1932,11.1932,0,0,1,37.5643,49.9422V53.8a1.19,1.19,0,1,0,2.3792,0V49.9422A13.5853,13.5853,0,0,0,26.4317,36.3149H20.8548a2.9152,2.9152,0,0,0-2.6548-1.73H15.3315a2.9146,2.9146,0,0,0-2.6353,1.6869A8.3972,8.3972,0,0,1,5.32,28.9051a4.1037,4.1037,0,0,0,2.5826-2.528,13.87,13.87,0,0,0,24.1947-.0006A4.0645,4.0645,0,0,0,40,25.0009V20.17a4.1069,4.1069,0,0,0-2.9111-3.9343,17.1114,17.1114,0,0,0-34.1781,0A4.1073,4.1073,0,0,0,0,20.17v4.8305a4.1054,4.1054,0,0,0,2.9288,3.9382A10.8389,10.8389,0,0,0,8.37,37.3417a13.649,13.649,0,0,0-8.368,12.6V53.8a1.19,1.19,0,1,0,2.3791,0V49.9422A11.2048,11.2048,0,0,1,12.6834,38.7452ZM20,31.0632A11.6527,11.6527,0,1,1,31.5546,19.41,11.6175,11.6175,0,0,1,20,31.0632ZM37.621,20.17v4.8305a1.69,1.69,0,1,1-3.38,0V20.17a1.69,1.69,0,1,1,3.38,0ZM20,2.3991A14.8124,14.8124,0,0,1,34.7064,16.2562a4.0345,4.0345,0,0,0-1.0238.4951,13.913,13.913,0,0,0-27.3655,0,4.0145,4.0145,0,0,0-1.0238-.4951A14.8128,14.8128,0,0,1,20,2.3991ZM2.3792,25.0012V20.17a1.69,1.69,0,1,1,3.38,0v4.8305a1.69,1.69,0,1,1-3.38,0Z" transform="translate(0 0.0003)"/></svg>