<svg id="icon3" width="64" height="53" data-name="icon3" xmlns="http://www.w3.org/2000/svg" viewBox="0 0 63.1496 52.305"><defs><style>.cls-1{fill:#00a0a4;fill-rule:evenodd;}</style></defs><title>icon3</title><path class="cls-1" d="M60.5672,40.707,13.6193,52.7052A3.9677,3.9677,0,0,1,8.7987,49.847L.5234,17.4661a3.9673,3.9673,0,0,1,2.8582-4.82L50.33.6477A3.9677,3.9677,0,0,1,55.15,3.5059l8.2753,32.3809A3.9673,3.9673,0,0,1,60.5672,40.707ZM53.3291,3.9713a2.0857,2.0857,0,0,0-2.5342-1.5028L3.847,14.4666a2.0857,2.0857,0,0,0-1.5027,2.5341L10.62,49.3816a2.0857,2.0857,0,0,0,2.5343,1.5029L60.1018,38.8863a2.0854,2.0854,0,0,0,1.5026-2.5341Zm-6.98,25.8209,10.0149-2.5595,1.8613,7.2834-10.0148,2.56Zm3.217,4.997,6.373-1.6284-.9307-3.6419-6.3731,1.6286ZM34.8574,11.3911,51.2453,7.203l2.7922,10.9254L37.6494,22.3165ZM39.005,20.03l12.7462-3.2573L49.89,9.4891,37.1436,12.7464ZM46.39,37.541l-10.0148,2.56-1.8615-7.2837,10.0149-2.5592Zm-3.2169-4.9973L36.8,34.1724l.9307,3.6417,6.3731-1.6287ZM22.6778,35.8419l10.0148-2.56,1.8614,7.2837L24.5392,43.1253Zm3.2169,4.997L32.2678,39.21l-.9307-3.642-6.373,1.6289Zm2.63-20.07a.9306.9306,0,1,1,.5789-.4292A.9691.9691,0,0,1,28.5248,20.7685Zm-4.1072-.89a.94.94,0,0,1,.4654,1.8209l-1.8209.4652a.94.94,0,1,1-.4653-1.8207Zm2.9438-3.6621-8.1939,2.0944a.94.94,0,0,1-.4654-1.8213l8.1939-2.0938a.94.94,0,1,1,.4654,1.8207Zm-7.2633,5.7358a.9393.9393,0,0,1-.6777,1.1432l-.9105.2327a.94.94,0,1,1-.4653-1.8207l.91-.2327A.9394.9394,0,0,1,20.0981,21.9521Zm-4.5724-2.7106-8.194,2.0938a.94.94,0,1,1-.4654-1.8207L15.06,17.42a.94.94,0,0,1,.4654,1.8213ZM8.03,24.0667l.91-.2327a.94.94,0,1,1,.4654,1.8208l-.9105.2327A.94.94,0,1,1,8.03,24.0667Zm5.0175.6575a.94.94,0,0,1-.4653-1.821l1.8209-.4654a.94.94,0,1,1,.4653,1.8207Zm9.6711,18.8666L12.7035,46.15,10.842,38.8665l10.0149-2.56Zm-3.2169-4.9973-6.3731,1.6283.9307,3.642,6.373-1.6289Z" transform="translate(-0.3996 -0.5239)"/></svg>