<svg xmlns="http://www.w3.org/2000/svg" viewBox="0 0 80.34 96"><defs><style>.cls-1{fill:none;stroke:#cad8d9;stroke-linecap:round;stroke-linejoin:round;stroke-width:2px;}.cls-2{fill:#32adf2;}.cls-3{fill:#ebfbfc;}.cls-4{fill:#c82226;}.cls-5{fill:#cad8d9;}</style></defs><g id="Layer_2" data-name="Layer 2"><g id="Layer_2-2" data-name="Layer 2"><rect class="cls-1" x="35.48" y="5.45" width="9.39" height="17.42" rx="4.69"/><line class="cls-1" x1="40.17" y1="24.19" x2="40.17" y2="1"/><path class="cls-2" d="M76.27,95V89.47a4.94,4.94,0,0,0-4.94-4.94H9a4.94,4.94,0,0,0-4.94,4.94V95Z"/><rect class="cls-2" x="7.14" y="47.77" width="66.06" height="10.61" rx="5.3"/><rect class="cls-3" x="12.84" y="58.38" width="54.66" height="26.15"/><path class="cls-4" d="M67.5,40.87v6.9H12.84v-6.9A27.33,27.33,0,0,1,40.17,13.53h0A27.34,27.34,0,0,1,67.5,40.87Z"/><line class="cls-1" x1="1" y1="95" x2="79.34" y2="95"/><rect class="cls-5" x="57.66" y="58.38" width="4.35" height="26.15"/><rect class="cls-5" x="47.83" y="58.38" width="4.35" height="26.15"/><rect class="cls-5" x="37.99" y="58.38" width="4.35" height="26.15"/><rect class="cls-5" x="28.16" y="58.38" width="4.35" height="26.15"/><rect class="cls-5" x="18.33" y="58.38" width="4.35" height="26.15"/></g></g></svg>