<svg xmlns="http://www.w3.org/2000/svg" viewBox="0 0 94 78.7"><defs><style>.cls-1{fill:#2f9004;}.cls-2{fill:#ebfbfc;}.cls-3{fill:#54a735;}.cls-4{fill:#cad8d9;}.cls-5{fill:#f8a21b;}</style></defs><g id="Layer_2" data-name="Layer 2"><g id="Layer_2-2" data-name="Layer 2"><polygon class="cls-1" points="94 78.69 49.78 78.69 71.89 41.76 94 78.69"/><polygon class="cls-2" points="79.05 53.71 71.89 41.76 64.74 53.71 71.89 61.78 79.05 53.71"/><polygon class="cls-1" points="44.22 78.69 0 78.69 22.11 41.76 44.22 78.69"/><polygon class="cls-2" points="29.27 53.71 22.11 41.76 14.96 53.71 22.11 61.78 29.27 53.71"/><polygon class="cls-3" points="75.7 78.69 18.3 78.69 47.01 30.76 75.7 78.69"/><polygon class="cls-2" points="56.29 46.27 47.01 30.76 37.72 46.27 47 56.74 56.29 46.27"/><path class="cls-4" d="M82.34,29.79a2.64,2.64,0,0,1-2.64,2.64h-8a2.64,2.64,0,0,1,0-5.27,2.39,2.39,0,0,1,.71.1,3.64,3.64,0,0,1,6.61,0,2.32,2.32,0,0,1,.7-.1A2.64,2.64,0,0,1,82.34,29.79Z"/><path class="cls-4" d="M16.16,33.44a2.64,2.64,0,0,1-2.64,2.64h-8a2.64,2.64,0,0,1,0-5.27,2.39,2.39,0,0,1,.71.1,3.64,3.64,0,0,1,6.61,0,2.32,2.32,0,0,1,.7-.1A2.64,2.64,0,0,1,16.16,33.44Z"/><path class="cls-4" d="M42.56,19.57a2.64,2.64,0,0,1-2.64,2.64h-8a2.64,2.64,0,0,1,0-5.27,2.39,2.39,0,0,1,.71.1,3.64,3.64,0,0,1,6.61,0,2.32,2.32,0,0,1,.7-.1A2.64,2.64,0,0,1,42.56,19.57Z"/><path class="cls-5" d="M24.52,6.22A6.22,6.22,0,1,1,18.3,0,6.22,6.22,0,0,1,24.52,6.22Z"/></g></g></svg>