<svg xmlns="http://www.w3.org/2000/svg" viewBox="0 0 73.66 95"><defs><style>.cls-1{fill:#bf6b16;}.cls-2{fill:#cad8d9;stroke:#bf6b16;stroke-linecap:round;stroke-linejoin:round;stroke-width:2px;}.cls-3{fill:#2f9004;}</style></defs><g id="Layer_2" data-name="Layer 2"><g id="Layer_2-2" data-name="Layer 2"><path class="cls-1" d="M46.72,94H26.94c-5.46-27.52,3.23-56.74,7.61-84.26h4.57C43.5,37.26,52.18,66.48,46.72,94Z"/><line class="cls-2" x1="53.17" y1="94" x2="20.49" y2="94"/><path class="cls-1" d="M19.55,21.46a8.17,8.17,0,0,0,2.71,4.25,8.48,8.48,0,0,0,4.23,1.82,15,15,0,0,0,2.33.18c.38,0,.81-.06,1.2-.08s.78,0,1.19-.1c.83-.16,1.61-.27,2.42-.46l2.42-.65.71,10.11-3.2-.48c-1.06-.2-2.14-.5-3.18-.75-.53-.15-1.06-.36-1.58-.54s-1-.34-1.56-.59a19.63,19.63,0,0,1-3-1.63,12.77,12.77,0,0,1-4.54-4.95,10.21,10.21,0,0,1-1-6.15Z"/><path class="cls-1" d="M54.94,21.44a10.14,10.14,0,0,1-1,6.15,12.77,12.77,0,0,1-4.54,4.95,19.63,19.63,0,0,1-3,1.63c-.52.25-1,.39-1.56.59s-1,.39-1.58.54c-1,.25-2.12.55-3.18.75l-3.2.48.72-10.11,2.41.65c.81.19,1.59.3,2.42.46.41.06.79.06,1.19.1s.82.1,1.2.08a15,15,0,0,0,2.33-.18,8.48,8.48,0,0,0,4.23-1.82,8.17,8.17,0,0,0,2.71-4.25Z"/><path class="cls-3" d="M28.32,23.92a52.78,52.78,0,0,1-19.25,0,3.08,3.08,0,0,1-1.76-5c2.25-2.63,6.5-4.42,11.38-4.42S28,16.32,30.19,19A3.06,3.06,0,0,1,28.32,23.92Z"/><path class="cls-3" d="M64.56,23.25a53,53,0,0,1-19.24,0,3.08,3.08,0,0,1-1.76-5c2.24-2.64,6.5-4.42,11.38-4.42s9.28,1.84,11.49,4.55A3.06,3.06,0,0,1,64.56,23.25Z"/><path class="cls-1" d="M13,38.48a10.3,10.3,0,0,0,1.7,2.83A12.68,12.68,0,0,0,17,43.49,16.1,16.1,0,0,0,22.66,46a22.07,22.07,0,0,0,3,.53c1,.12,2.09.13,3.1.19s2.1-.06,3.14-.13l3.15-.35L33.94,58.85l-3.79-1.22c-1.25-.47-2.5-1-3.71-1.5S24,54.94,22.86,54.25A29.35,29.35,0,0,1,19.5,52a21.26,21.26,0,0,1-5.36-6,13.7,13.7,0,0,1-2-7.41Z"/><path class="cls-1" d="M61.51,38.55a13.8,13.8,0,0,1-2,7.41,21.26,21.26,0,0,1-5.36,6,29.35,29.35,0,0,1-3.36,2.3c-1.16.69-2.36,1.26-3.58,1.88s-2.46,1-3.71,1.5l-3.79,1.22L38.58,46.22l3.15.35c1,.07,2.07.08,3.14.13s2.08-.07,3.1-.19A22.07,22.07,0,0,0,51,46a16.1,16.1,0,0,0,5.64-2.49A12.68,12.68,0,0,0,59,41.31a10.06,10.06,0,0,0,1.7-2.83Z"/><path class="cls-3" d="M21.75,40A52.73,52.73,0,0,1,2.51,40a3.08,3.08,0,0,1-1.77-5C3,32.3,7.24,30.51,12.12,30.51s9.28,1.85,11.5,4.56A3.06,3.06,0,0,1,21.75,40Z"/><path class="cls-3" d="M71.13,40a52.73,52.73,0,0,1-19.24,0,3.08,3.08,0,0,1-1.77-5c2.25-2.63,6.51-4.42,11.38-4.42s9.28,1.85,11.5,4.56A3.06,3.06,0,0,1,71.13,40Z"/><path class="cls-3" d="M48.73,11.7a65.37,65.37,0,0,1-23.83,0,3.8,3.8,0,0,1-2.19-6.22C25.5,2.21,30.77,0,36.81,0S48.3,2.28,51.05,5.64A3.79,3.79,0,0,1,48.73,11.7Z"/></g></g></svg>