<svg xmlns="http://www.w3.org/2000/svg" viewBox="0 0 96 85.37"><defs><style>.cls-1{fill:#bf6b16;}.cls-2{fill:#ebfbfc;}.cls-3{fill:#f8a21b;}.cls-4{fill:#905010;stroke:#cad8d9;}.cls-4,.cls-5{stroke-linecap:round;stroke-linejoin:round;stroke-width:2px;}.cls-5{fill:#cad8d9;stroke:#bf6b16;}</style></defs><g id="Layer_2" data-name="Layer 2"><g id="Layer_2-2" data-name="Layer 2"><path class="cls-1" d="M93.33,31.1V84.37H2.67V31.1h9.51V24.77H24V20.55q16.5-4,17.61-12.83V5.86A6.17,6.17,0,0,1,48,0a6.72,6.72,0,0,1,4.55,1.72,5.6,5.6,0,0,1,1.89,4.14V7.72Q53.3,14.14,72.05,20.55v4.22H83.82V31.1Z"/><path class="cls-2" d="M42.59,67.46V84.37H53.41V67.46A5.41,5.41,0,0,0,48,62.05h0A5.41,5.41,0,0,0,42.59,67.46Z"/><rect class="cls-3" x="31.15" y="53.03" width="4.51" height="20.01"/><rect class="cls-3" x="28.87" y="73.03" width="9.06" height="11.33"/><rect class="cls-3" x="17.75" y="53.03" width="4.51" height="20.01"/><rect class="cls-3" x="15.48" y="73.03" width="9.06" height="11.33"/><rect class="cls-3" x="73.73" y="53.03" width="4.51" height="20.01"/><rect class="cls-3" x="71.46" y="73.03" width="9.06" height="11.33"/><rect class="cls-3" x="60.34" y="53.03" width="4.51" height="20.01"/><rect class="cls-3" x="58.07" y="73.03" width="9.06" height="11.33"/><line class="cls-4" x1="13.89" y1="53.03" x2="82.11" y2="53.03"/><line class="cls-5" x1="95" y1="84.37" x2="1" y2="84.37"/><rect class="cls-2" x="59.31" y="32.94" width="7.82" height="12.2"/><rect class="cls-2" x="44.09" y="32.94" width="7.82" height="12.2"/><rect class="cls-2" x="28.87" y="32.94" width="7.82" height="12.2"/></g></g></svg>