<svg xmlns="http://www.w3.org/2000/svg" viewBox="0 0 94 87.89"><defs><style>.cls-1{fill:#32adf2;}.cls-2{fill:#fbcca4;}.cls-3{fill:#bf6b16;}.cls-4{fill:#54a735;}.cls-5{fill:#f8a21b;}</style></defs><g id="Layer_2" data-name="Layer 2"><g id="Layer_2-2" data-name="Layer 2"><path class="cls-1" d="M94,75.42c0,6.89-20.25,12.47-45.24,12.47S3.52,82.31,3.52,75.42,23.77,63,48.76,63,94,68.55,94,75.42Z"/><path class="cls-2" d="M86.89,73.62c-24,5.67-46.78,6.21-68,0,0-9.69,15.21-17.58,34-17.58S86.89,63.93,86.89,73.62Z"/><path class="cls-3" d="M72,65.88a20.85,20.85,0,0,1-14.71-.71c5.09-9.64,10.1-28.58-2.9-38.64l-.08-.07a.94.94,0,0,1-.17-1.33,1,1,0,0,1,1.07-.33c12,4.1,20,24.37,16.88,41A.14.14,0,0,1,72,65.88Z"/><path class="cls-4" d="M77.85,29.39,54.92,25.57c-.44,4.75-2.13,23.19-2.13,23.43a1.62,1.62,0,0,1-2.73.66c-5.85-5.94-6.61-14.91,3.62-24.09L35.83,40.44a1.63,1.63,0,0,1-2.36-1.52c.28-7.31,5-13.39,15.41-13.91-9.85-2-13.62-8.45-13-15.63a1.62,1.62,0,0,1,2.53-1.2L49.9,20.39C45.18,11.3,48,4.24,54.05.27a1.61,1.61,0,0,1,2.5,1.25L53.18,23.65C55.44,10.6,63.27,6.5,71.33,8.17a1.62,1.62,0,0,1,.91,2.64c-.11,0-13.77,10.73-18.11,14.14C66,16.62,74.82,19.59,79.22,27A1.63,1.63,0,0,1,77.85,29.39Z"/><path class="cls-5" d="M20.7,21.24a7.09,7.09,0,1,1-7.09-7.09A7.09,7.09,0,0,1,20.7,21.24Z"/><path class="cls-5" d="M13.61,11.15a1.06,1.06,0,0,1-1-1.06V8.68a1.06,1.06,0,0,1,2.11,0v1.41A1.06,1.06,0,0,1,13.61,11.15Z"/><path class="cls-5" d="M13.61,34.86a1,1,0,0,1-1-1V32.4a1.06,1.06,0,1,1,2.11,0v1.41A1.05,1.05,0,0,1,13.61,34.86Z"/><path class="cls-5" d="M21.5,14.41a1,1,0,0,1-.74-.31,1,1,0,0,1,0-1.48l1-1a1.05,1.05,0,0,1,1.49,1.49l-1,1A1,1,0,0,1,21.5,14.41Z"/><path class="cls-5" d="M4.73,31.18A1,1,0,0,1,4,30.87a1.06,1.06,0,0,1,0-1.49l1-1a1,1,0,0,1,1.48,1.48l-1,1A1.05,1.05,0,0,1,4.73,31.18Z"/><path class="cls-5" d="M26.18,22.3H24.77a1.06,1.06,0,1,1,0-2.11h1.41a1.06,1.06,0,0,1,0,2.11Z"/><path class="cls-5" d="M2.46,22.3H1.05a1.06,1.06,0,0,1,0-2.11H2.46a1.06,1.06,0,1,1,0,2.11Z"/><path class="cls-5" d="M22.5,31.18a1.05,1.05,0,0,1-.75-.31l-1-1a1,1,0,0,1,1.48-1.48l1,1a1.06,1.06,0,0,1,0,1.49A1,1,0,0,1,22.5,31.18Z"/><path class="cls-5" d="M5.73,14.41A1,1,0,0,1,5,14.1l-1-1a1.05,1.05,0,1,1,1.49-1.49l1,1a1,1,0,0,1,0,1.48A1,1,0,0,1,5.73,14.41Z"/></g></g></svg>