<svg xmlns="http://www.w3.org/2000/svg" viewBox="0 0 75.29 95"><defs><style>.cls-1{fill:#cafcf8;}.cls-2{fill:#c82226;}.cls-3{fill:#e23e21;}.cls-4{fill:#4dd2f5;}.cls-5{fill:#32adf2;}.cls-6{fill:#f8a21b;}.cls-7{fill:#bf6b16;}.cls-8{fill:none;stroke:#805e3c;stroke-linecap:round;stroke-linejoin:round;stroke-width:2px;}</style></defs><g id="Layer_2" data-name="Layer 2"><g id="Layer_2-2" data-name="Layer 2"><rect class="cls-1" x="6.89" y="24.68" width="61.52" height="69.32"/><rect class="cls-2" y="15.39" width="75.29" height="9.29"/><polygon class="cls-3" points="66.23 0 75.29 15.39 0 15.39 9.06 0 66.23 0"/><rect class="cls-4" x="14.92" y="30.39" width="10.49" height="11.35"/><rect class="cls-5" x="14.92" y="30.39" width="10.49" height="3.27"/><rect class="cls-4" x="32.4" y="30.39" width="10.49" height="11.35"/><rect class="cls-5" x="32.4" y="30.39" width="10.49" height="3.27"/><rect class="cls-4" x="49.88" y="30.39" width="10.49" height="11.35"/><rect class="cls-5" x="49.88" y="30.39" width="10.49" height="3.27"/><rect class="cls-4" x="14.92" y="47.81" width="10.49" height="11.35"/><rect class="cls-5" x="14.92" y="47.81" width="10.49" height="3.27"/><rect class="cls-4" x="32.4" y="47.81" width="10.49" height="11.35"/><rect class="cls-5" x="32.4" y="47.81" width="10.49" height="3.27"/><rect class="cls-4" x="49.88" y="47.81" width="10.49" height="11.35"/><rect class="cls-5" x="49.88" y="47.81" width="10.49" height="3.27"/><rect class="cls-4" x="49.88" y="65.23" width="10.49" height="11.35"/><rect class="cls-5" x="49.88" y="65.23" width="10.49" height="3.27"/><rect class="cls-6" x="19.1" y="82.64" width="19.6" height="11.35"/><polygon class="cls-7" points="38.71 82.64 38.71 85.92 30.65 85.92 30.65 94 27.16 94 27.16 85.92 19.1 85.92 19.1 82.64 38.71 82.64"/><rect class="cls-4" x="49.88" y="82.64" width="10.49" height="11.35"/><rect class="cls-5" x="49.88" y="82.64" width="10.49" height="3.27"/><rect class="cls-4" x="14.92" y="65.23" width="10.49" height="11.35"/><rect class="cls-5" x="14.92" y="65.23" width="10.49" height="3.27"/><rect class="cls-4" x="32.4" y="65.23" width="10.49" height="11.35"/><rect class="cls-5" x="32.4" y="65.23" width="10.49" height="3.27"/><line class="cls-8" x1="73.58" y1="94" x2="1.71" y2="94"/></g></g></svg>