<svg xmlns="http://www.w3.org/2000/svg" viewBox="0 0 94 73.47"><defs><style>.cls-1{fill:#f8a21b;}.cls-2{fill:#c82226;}</style></defs><g id="Layer_2" data-name="Layer 2"><g id="Layer_2-2" data-name="Layer 2"><path class="cls-1" d="M94,8.4V60.33a6,6,0,0,1-7.52,5.8c-27.54-7.6-55.08,15-82.63,4.55A6,6,0,0,1,0,65.07V13.14a6,6,0,0,1,7.52-5.8C35.06,15,62.6-7.61,90.15,2.79A6,6,0,0,1,94,8.4Z"/><path class="cls-2" d="M68,33.15a106.59,106.59,0,0,0-13.2,2.28l0-.58c0-.19,0-.38,0-.56A106.59,106.59,0,0,1,68,32a.81.81,0,0,0,.72-.79.64.64,0,0,0-.72-.65A108.63,108.63,0,0,0,54.59,32.9a6.91,6.91,0,0,0-.4-1c3-.68,5.93-1.3,8.9-1.77a.88.88,0,0,0,.72-.83.6.6,0,0,0-.72-.61c-3.24.52-6.48,1.21-9.73,2a5.48,5.48,0,0,0-1.77-1.36V19.52a.54.54,0,0,0-.72-.54,1,1,0,0,0-.72.89v8.9A6.12,6.12,0,0,0,49,28.66V15.21a.54.54,0,0,0-.72-.54,1,1,0,0,0-.72.9v13.2a5.72,5.72,0,0,0-.57.11l-.57.17V15.85a.54.54,0,0,0-.72-.54,1,1,0,0,0-.72.89V29.65a11,11,0,0,0-1.14.67v-8.9a.54.54,0,0,0-.72-.54,1,1,0,0,0-.72.89v9.72a12.08,12.08,0,0,0-1.78,2.2c-3.24.76-6.48,1.45-9.72,2a.88.88,0,0,0-.72.83.6.6,0,0,0,.72.61c3-.48,5.93-1.09,8.9-1.78a11.74,11.74,0,0,0-.4,1.23A108.67,108.67,0,0,1,26,38.89a.8.8,0,0,0-.72.78.64.64,0,0,0,.72.65,108.45,108.45,0,0,0,13.2-2.27c0,.19,0,.38,0,.57s0,.38,0,.57A108.45,108.45,0,0,1,26,41.46a.81.81,0,0,0-.72.79.64.64,0,0,0,.72.65,108.63,108.63,0,0,0,13.44-2.33,6.91,6.91,0,0,0,.4,1c-3,.68-5.94,1.3-8.9,1.78a.87.87,0,0,0-.72.83.59.59,0,0,0,.72.6c3.24-.52,6.48-1.21,9.72-2a5.6,5.6,0,0,0,1.78,1.35V54a.55.55,0,0,0,.72.55,1,1,0,0,0,.72-.9V44.7a6.12,6.12,0,0,0,1.14.12V58.26a.54.54,0,0,0,.72.54,1,1,0,0,0,.72-.89V44.7a5.72,5.72,0,0,0,.57-.11l.57-.17V57.63a.55.55,0,0,0,.72.54,1,1,0,0,0,.72-.9V43.83a11.05,11.05,0,0,0,1.14-.68v8.9a.55.55,0,0,0,.72.55,1,1,0,0,0,.72-.89V42a11.32,11.32,0,0,0,1.77-2.2c3.25-.76,6.49-1.45,9.73-2a.87.87,0,0,0,.72-.83.6.6,0,0,0-.72-.61c-3,.48-5.93,1.1-8.9,1.78a10.39,10.39,0,0,0,.4-1.23A108.63,108.63,0,0,1,68,34.59a.81.81,0,0,0,.72-.79A.64.64,0,0,0,68,33.15Zm-21,10c-3.54.89-6.42-1.31-6.42-4.86a8.73,8.73,0,0,1,6.42-8c3.54-.88,6.42,1.32,6.42,4.86A8.72,8.72,0,0,1,47,43.15Z"/></g></g></svg>