<svg xmlns="http://www.w3.org/2000/svg" viewBox="0 0 97 96.75"><defs><style>.cls-1{fill:none;stroke:#bf6b16;stroke-linecap:round;stroke-linejoin:round;stroke-width:3px;}</style></defs><g id="Layer_2" data-name="Layer 2"><g id="Layer_2-2" data-name="Layer 2"><path class="cls-1" d="M65.79,34.58C77.37,29,95.5,45,95.5,69.8c-3.14,19.36-11.66,27.57-25.38,25-12.8-4.68-16.35-14.64-15.8-27a43.28,43.28,0,0,1,7.77-22.24c2.57-3.78,4.12-7.48,3.7-11C64.22,7,41.4,14.91,41.4,14.91,23.1,21.07,5,44.51,18.59,71.13c11.83,17.61,28.6,26.23,51.53,23.65"/><path class="cls-1" d="M40.71,15.15a11.28,11.28,0,0,0-1.81-2.22c-3.26-3.06-8-3.85-13-2.61A27.05,27.05,0,0,0,13,18.17a28.41,28.41,0,0,0-5.89,9.25C4.57,33.94,5.19,40.49,9.31,44.37a11.29,11.29,0,0,0,4.92,2.7"/><path class="cls-1" d="M25.86,10.32a7.39,7.39,0,0,0-2.12-3.9c-2.35-2.2-6-2.52-9.6-1.19A17.35,17.35,0,0,0,7.48,9.72a18.74,18.74,0,0,0-2.9,4c-2.44,4.64-2.36,9.63.6,12.41a6.87,6.87,0,0,0,1.9,1.27"/><path class="cls-1" d="M14.14,5.23a7.84,7.84,0,0,0-1-1.2C10.28,1,5.84.64,3.28,3.14s-2.32,7,.57,9.93a7.73,7.73,0,0,0,.73.67"/></g></g></svg>