<svg xmlns="http://www.w3.org/2000/svg" viewBox="0 0 43.34 96"><defs><style>.cls-1{fill:none;stroke:#cad8d9;stroke-linecap:round;stroke-linejoin:round;stroke-width:2px;}.cls-2{fill:#4dd2f5;}.cls-3{fill:#bf6b16;}.cls-4{fill:#54a735;}.cls-5{fill:#ebfbfc;}</style></defs><g id="Layer_2" data-name="Layer 2"><g id="Layer_2-2" data-name="Layer 2"><line class="cls-1" x1="21.67" y1="1" x2="21.67" y2="10.36"/><path class="cls-2" d="M28.63,15.35V13.56a7,7,0,0,0-7-7h0a7,7,0,0,0-7,7v1.79Z"/><path class="cls-2" d="M34.44,95H8.91L15.3,61.64A22.47,22.47,0,0,0,15,51.75L12.21,41.07H31.14L28.36,51.75A22.47,22.47,0,0,0,28,61.64Z"/><rect class="cls-3" x="19.76" y="41.07" width="3.83" height="53.93"/><path class="cls-4" d="M36.08,19.3l2.24,4.2H5l2.24-4.2a7.44,7.44,0,0,1,6.57-4H29.51A7.44,7.44,0,0,1,36.08,19.3Z"/><path class="cls-4" d="M39.44,29.58l-1.13,6.8A6.75,6.75,0,0,1,31.65,42h-20A6.75,6.75,0,0,1,5,36.38L3.9,29.58Z"/><line class="cls-1" x1="40.45" y1="95" x2="2.9" y2="95"/><rect class="cls-2" y="23.5" width="43.34" height="6.09" rx="3.04"/><rect class="cls-5" x="9.13" y="32.14" width="4.55" height="6.57" rx="2.27"/><rect class="cls-5" x="15.98" y="32.14" width="4.55" height="6.57" rx="2.27"/><rect class="cls-5" x="22.82" y="32.14" width="4.55" height="6.57" rx="2.27"/><rect class="cls-5" x="29.67" y="32.14" width="4.55" height="6.57" rx="2.27"/></g></g></svg>